SplineFontDB: 3.2
FontName: Fallout-Classic-Dialog-Regular
FullName: Fallout Classic Dialog
FamilyName: Fallout-Classic-Dialog-Regular
Weight: Regular
Copyright: Copyright (c) <2022> <Vitalis Sandor Ung (Slowhand at fodev.net, github.com/Sasabmeg)> \n\n(MIT license)\n\nPermission is hereby granted, free of charge, to any person obtaining a copy\nof this software and associated documentation files (the "Software"), to deal\nin the Software without restriction, including without limitation the rights\nto use, copy, modify, merge, publish, distribute, sublicense, and/or sell\ncopies of the Software, and to permit persons to whom the Software is\nfurnished to do so, subject to the following conditions:\n\nThe above copyright notice and this permission notice shall be included in all\ncopies or substantial portions of the Software.\n\nTHE SOFTWARE IS PROVIDED "AS IS", WITHOUT WARRANTY OF ANY KIND, EXPRESS OR\nIMPLIED, INCLUDING BUT NOT LIMITED TO THE WARRANTIES OF MERCHANTABILITY,\nFITNESS FOR A PARTICULAR PURPOSE AND NONINFRINGEMENT. IN NO EVENT SHALL THE\nAUTHORS OR COPYRIGHT HOLDERS BE LIABLE FOR ANY CLAIM, DAMAGES OR OTHER\nLIABILITY, WHETHER IN AN ACTION OF CONTRACT, TORT OR OTHERWISE, ARISING FROM,\nOUT OF OR IN CONNECTION WITH THE SOFTWARE OR THE USE OR OTHER DEALINGS IN THE\nSOFTWARE.
UComments: "2022-12-17: Created with FontForge (http://fontforge.org)"
Version: 1.00
ItalicAngle: 0
UnderlinePosition: -101
UnderlineWidth: 50
Ascent: 819
Descent: 205
InvalidEm: 0
sfntRevision: 0x00010000
LayerCount: 2
Layer: 0 1 "Back" 1
Layer: 1 1 "Fore" 0
XUID: [1021 448 459894302 26878]
FSType: 0
OS2Version: 0
OS2_WeightWidthSlopeOnly: 0
OS2_UseTypoMetrics: 1
CreationTime: 1671241044
ModificationTime: 1674588878
PfmFamily: 17
TTFWeight: 400
TTFWidth: 5
LineGap: 188
VLineGap: 0
OS2TypoAscent: 0
OS2TypoAOffset: 1
OS2TypoDescent: 0
OS2TypoDOffset: 1
OS2TypoLinegap: 188
OS2WinAscent: 0
OS2WinAOffset: 1
OS2WinDescent: 0
OS2WinDOffset: 1
HheadAscent: 0
HheadAOffset: 1

StartChar: c
Encoding: 99 99 0
Width: 612
Flags: W
LayerCount: 2
Fore
SplineSet
256 511.799804688 m 2,0,-1
 512 511.799804688 l 1,1,-1
 512 409.400390625 l 1,2,-1
 204.799804688 409.400390625 l 1,3,-1
 153.599609375 359 l 1,4,-1
 153.599609375 153.400390625 l 1,5,-1
 204.799804688 102.200195312 l 1,6,-1
 512 102.200195312 l 1,7,-1
 512 -0.2001953125 l 1,8,-1
 256 -0.2001953125 l 2,9,10
 201.298100425 -0.242404054442 201.298100425 -0.242404054442 155.358384122 17.2366290107 c 128,-1,11
 109.41866782 34.7156620759 109.41866782 34.7156620759 79.6332246739 64.3224228797 c 128,-1,12
 49.847781528 93.9291836835 49.847781528 93.9291836835 28.9214306759 132.321952978 c 128,-1,13
 7.9950798237 170.714722272 7.9950798237 170.714722272 3.3395968447 213.158430038 c 128,-1,14
 -1.31588613429 255.602137805 -1.31588613429 255.602137805 2.98331982196 298.052724475 c 128,-1,15
 7.28252577822 340.503311146 7.28252577822 340.503311146 27.9691943241 378.928047022 c 128,-1,16
 48.65586287 417.352782899 48.65586287 417.352782899 78.3928169927 447.005268093 c 128,-1,17
 108.129771115 476.657753286 108.129771115 476.657753286 154.370782544 494.20759842 c 128,-1,18
 200.611793973 511.757443554 200.611793973 511.757443554 256 511.799804688 c 2,0,-1
EndSplineSet
EndChar

StartChar: A
Encoding: 65 65 1
Width: 920
Flags: W
LayerCount: 2
Fore
SplineSet
643.599609375 307 m 1,0,-1
 643.599609375 563 l 1,1,-1
 409.599609375 307 l 1,2,-1
 643.599609375 307 l 1,0,-1
819.200195312 716.599609375 m 1,3,-1
 819.200195312 -0.2001953125 l 1,4,-1
 643.599609375 -0.2001953125 l 1,5,-1
 643.599609375 204.599609375 l 1,6,-1
 307.200195312 204.599609375 l 1,7,-1
 102.400390625 -0.2001953125 l 1,8,-1
 0 -0.2001953125 l 1,9,-1
 0 74.2001953125 l 1,10,-1
 642.400390625 716.599609375 l 1,11,-1
 819.200195312 716.599609375 l 1,3,-1
EndSplineSet
EndChar

StartChar: p
Encoding: 112 112 2
Width: 712
Flags: W
LayerCount: 2
Fore
SplineSet
409.599609375 102.200195312 m 1,0,-1
 460.799804688 154.200195312 l 1,1,-1
 460.799804688 358.200195312 l 1,2,-1
 409.599609375 409.400390625 l 1,3,-1
 153.599609375 409.400390625 l 1,4,-1
 153.599609375 102.200195312 l 1,5,-1
 409.599609375 102.200195312 l 1,0,-1
0 511.799804688 m 1,6,-1
 409.599609375 511.799804688 l 2,7,8
 453.645927427 511.71318769 453.645927427 511.71318769 490.522828655 494.126387318 c 128,-1,9
 527.399729884 476.539586945 527.399729884 476.539586945 551.20814646 446.863316579 c 128,-1,10
 575.016563037 417.187046213 575.016563037 417.187046213 591.65838196 378.745755673 c 128,-1,11
 608.300200884 340.304465133 608.300200884 340.304465133 611.876927003 297.850418988 c 128,-1,12
 615.453653122 255.396372843 615.453653122 255.396372843 611.86656258 212.956366313 c 128,-1,13
 608.279472038 170.516359783 608.279472038 170.516359783 591.63068054 132.140312035 c 128,-1,14
 574.981889041 93.7642642878 574.981889041 93.7642642878 551.172061873 64.1813159441 c 128,-1,15
 527.362234705 34.5983676004 527.362234705 34.5983676004 490.494098428 17.1560924278 c 128,-1,16
 453.625962151 -0.286182744815 453.625962151 -0.286182744815 409.599609375 -0.2001953125 c 2,17,-1
 153.599609375 -0.2001953125 l 1,18,-1
 153.599609375 -205 l 1,19,-1
 0 -205 l 1,20,-1
 0 511.799804688 l 1,6,-1
EndSplineSet
EndChar

StartChar: a
Encoding: 97 97 3
Width: 664
Flags: W
LayerCount: 2
Fore
SplineSet
204.799804688 102.200195312 m 1,0,-1
 409.599609375 102.200195312 l 1,1,-1
 409.599609375 409.400390625 l 1,2,-1
 204.799804688 409.400390625 l 1,3,-1
 153.599609375 359 l 1,4,-1
 153.599609375 153.400390625 l 1,5,-1
 204.799804688 102.200195312 l 1,0,-1
563.200195312 511.799804688 m 1,6,-1
 563.200195312 -0.2001953125 l 1,7,-1
 256 -0.2001953125 l 2,8,9
 200.940586652 -0.135468815755 200.940586652 -0.135468815755 154.843836137 17.4330668622 c 128,-1,10
 108.747085622 35.0016025402 108.747085622 35.0016025402 78.9867483539 64.6661325976 c 128,-1,11
 49.2264110858 94.3306626551 49.2264110858 94.3306626551 28.4247501672 132.76379335 c 128,-1,12
 7.62308924863 171.196924044 7.62308924863 171.196924044 3.15304529318 213.649283211 c 128,-1,13
 -1.31699866227 256.101642377 -1.31699866227 256.101642377 3.1677012346 298.543497461 c 128,-1,14
 7.65240113146 340.985352544 7.65240113146 340.985352544 28.4639217078 379.369670192 c 128,-1,15
 49.2754422841 417.75398784 49.2754422841 417.75398784 79.0377742156 447.348696685 c 128,-1,16
 108.800106147 476.94340553 108.800106147 476.94340553 154.884462474 494.403811031 c 128,-1,17
 200.968818801 511.864216533 200.968818801 511.864216533 256 511.799804688 c 2,18,-1
 563.200195312 511.799804688 l 1,6,-1
EndSplineSet
EndChar

StartChar: B
Encoding: 66 66 4
Width: 817
Flags: W
LayerCount: 2
Fore
SplineSet
487 102.200195312 m 1,0,-1
 538.200195312 153.400390625 l 1,1,-1
 538.200195312 255.799804688 l 1,2,-1
 487 307 l 1,3,-1
 180.599609375 307 l 1,4,-1
 180.599609375 102.200195312 l 1,5,-1
 487 102.200195312 l 1,0,-1
487 409.400390625 m 1,6,-1
 538.200195312 460.599609375 l 1,7,-1
 538.200195312 563 l 1,8,-1
 487 614.200195312 l 1,9,-1
 180.599609375 614.200195312 l 1,10,-1
 180.599609375 409.400390625 l 1,11,-1
 487 409.400390625 l 1,6,-1
0 716.599609375 m 1,12,-1
 563.200195312 716.599609375 l 2,13,14
 612.063162316 716.829817345 612.063162316 716.829817345 648.530306817 686.641294271 c 128,-1,15
 684.997451318 656.452771197 684.997451318 656.452771197 700.076052558 610.480572917 c 128,-1,16
 715.154653798 564.508374636 715.154653798 564.508374636 716.663791192 515.084231771 c 128,-1,17
 718.172928585 465.660088905 718.172928585 465.660088905 699.518911933 422.303276042 c 128,-1,18
 680.864895281 378.946463178 680.864895281 378.946463178 647.467773438 359.104492188 c 1,19,20
 674.840601865 342.895264511 674.840601865 342.895264511 692.324379844 309.423596315 c 128,-1,21
 709.808157822 275.95192812 709.808157822 275.95192812 714.937013385 236.455716836 c 128,-1,22
 720.065868949 196.959505552 720.065868949 196.959505552 712.402106985 154.876431963 c 128,-1,23
 704.738345021 112.793358375 704.738345021 112.793358375 686.009098166 78.6477017895 c 128,-1,24
 667.27985131 44.5020452036 667.27985131 44.5020452036 632.574886209 22.4926790699 c 128,-1,25
 597.869921109 0.483312936276 597.869921109 0.483312936276 553.109375 0.4208984375 c 2,26,-1
 0 -0.2001953125 l 1,27,-1
 0 716.599609375 l 1,12,-1
EndSplineSet
EndChar

StartChar: b
Encoding: 98 98 5
Width: 712
Flags: W
LayerCount: 2
Fore
SplineSet
409.599609375 102.200195312 m 1,0,-1
 460.799804688 153.400390625 l 1,1,-1
 460.799804688 359 l 1,2,-1
 409.599609375 409.400390625 l 1,3,-1
 153.599609375 409.400390625 l 1,4,-1
 153.599609375 102.200195312 l 1,5,-1
 409.599609375 102.200195312 l 1,0,-1
0 716.599609375 m 1,6,-1
 153.599609375 716.599609375 l 1,7,-1
 154.096679688 511.799804688 l 1,8,-1
 358.400390625 511.799804688 l 2,9,10
 413.437655673 511.729723414 413.437655673 511.729723414 459.524681892 494.156704517 c 128,-1,11
 505.611708111 476.583685621 505.611708111 476.583685621 535.373610932 446.916260374 c 128,-1,12
 565.135513753 417.248835128 565.135513753 417.248835128 585.944909194 378.813680576 c 128,-1,13
 606.754304635 340.378526025 606.754304635 340.378526025 611.2358473 297.925731289 c 128,-1,14
 615.717389966 255.472936554 615.717389966 255.472936554 611.244187422 213.031516975 c 128,-1,15
 606.770984878 170.590097395 606.770984878 170.590097395 585.967200181 132.207803799 c 128,-1,16
 565.163415485 93.8255102022 565.163415485 93.8255102022 535.402647748 64.2336962227 c 128,-1,17
 505.641880012 34.6418822433 505.641880012 34.6418822433 459.547800747 17.1859604131 c 128,-1,18
 413.453721482 -0.269961417162 413.453721482 -0.269961417162 358.400390625 -0.2001953125 c 2,19,-1
 0 -0.2001953125 l 1,20,-1
 0 716.599609375 l 1,6,-1
EndSplineSet
EndChar

StartChar: C
Encoding: 67 67 6
Width: 715
Flags: W
LayerCount: 2
Fore
SplineSet
614.400390625 -0.2001953125 m 1,0,-1
 204.799804688 -0.2001953125 l 1,1,2
 137.935335968 12.7531164361 137.935335968 12.7531164361 89.9806504748 68.1821957925 c 128,-1,3
 42.0259649815 123.611275149 42.0259649815 123.611275149 20.9419976372 198.571669767 c 128,-1,4
 -0.141969707096 273.532064386 -0.141969707096 273.532064386 0.552400691792 359.758684146 c 128,-1,5
 1.24677109068 445.985303906 1.24677109068 445.985303906 23.4877875678 520.621329779 c 128,-1,6
 45.7288040448 595.257355652 45.7288040448 595.257355652 93.162887888 649.944221979 c 128,-1,7
 140.596971731 704.631088306 140.596971731 704.631088306 204.799804688 716.599609375 c 1,8,-1
 614.400390625 716.599609375 l 1,9,-1
 614.400390625 614.200195312 l 1,10,-1
 230.799804688 614.200195312 l 1,11,-1
 179.599609375 563 l 1,12,-1
 179.599609375 153.400390625 l 1,13,-1
 230.799804688 102.200195312 l 1,14,-1
 614.400390625 102.200195312 l 1,15,-1
 614.400390625 -0.2001953125 l 1,0,-1
EndSplineSet
EndChar

StartChar: D
Encoding: 68 68 7
Width: 814
Flags: W
LayerCount: 2
Fore
SplineSet
182.799804688 102.200195312 m 1,0,-1
 483.799804688 102.200195312 l 1,1,-1
 535 153.400390625 l 1,2,-1
 535 563 l 1,3,-1
 483.799804688 614.200195312 l 1,4,-1
 182.799804688 614.200195312 l 1,5,-1
 182.799804688 102.200195312 l 1,0,-1
0 716.599609375 m 1,6,-1
 460.799804688 716.599609375 l 2,7,8
 515.809440712 716.599609375 515.809440712 716.599609375 561.882893641 692.104008252 c 128,-1,9
 607.95634657 667.608407129 607.95634657 667.608407129 637.72149004 626.163075564 c 128,-1,10
 667.486633509 584.717743999 667.486633509 584.717743999 688.305154443 530.988945345 c 128,-1,11
 709.123675378 477.260146691 709.123675378 477.260146691 713.621326073 417.869619202 c 128,-1,12
 718.118976769 358.479091714 718.118976769 358.479091714 713.659706913 299.078839999 c 128,-1,13
 709.200437056 239.678588284 709.200437056 239.678588284 688.407736182 185.904609343 c 128,-1,14
 667.615035307 132.130630401 667.615035307 132.130630401 637.855115863 90.620670096 c 128,-1,15
 608.095196419 49.1107097908 608.095196419 49.1107097908 561.989285178 24.5150238662 c 128,-1,16
 515.883373938 -0.080662058475 515.883373938 -0.080662058475 460.799804688 -0.2001953125 c 2,17,-1
 0 -1.2001953125 l 1,18,-1
 0 716.599609375 l 1,6,-1
EndSplineSet
EndChar

StartChar: s
Encoding: 115 115 8
Width: 712
Flags: W
LayerCount: 2
Fore
SplineSet
153.604492188 511.799804688 m 2,0,-1
 563.204101562 511.799804688 l 1,1,-1
 563.1875 409.399414062 l 1,2,-1
 182.340820312 409.399414062 l 1,3,-1
 154.631835938 376.095703125 l 1,4,-1
 154.631835938 332.348632812 l 1,5,-1
 182.004882812 307 l 1,6,-1
 459.44140625 307 l 2,7,8
 501.626771605 307.431049374 501.626771605 307.431049374 534.898412241 290.777120088 c 128,-1,9
 568.170052877 274.123190802 568.170052877 274.123190802 585.468353885 247.139638636 c 128,-1,10
 602.766654893 220.15608647 602.766654893 220.15608647 611.033957977 187.405024151 c 128,-1,11
 619.301261061 154.653961832 619.301261061 154.653961832 611.469788834 121.776078368 c 128,-1,12
 603.638316607 88.8981949048 603.638316607 88.8981949048 586.659117416 61.6445809112 c 128,-1,13
 569.679918225 34.3909669175 569.679918225 34.3909669175 536.47650804 17.2133335158 c 128,-1,14
 503.273097855 0.0357001139664 503.273097855 0.0357001139664 460.8046875 -0.2001953125 c 2,15,-1
 0.021484375 -0.19921875 l 1,16,-1
 0.0048828125 102.200195312 l 1,17,-1
 436.404296875 102.200195312 l 1,18,-1
 461.655273438 127.737304688 l 1,19,-1
 461.672851562 173.943359375 l 1,20,-1
 433.592773438 202.6015625 l 1,21,-1
 153.604492188 204.599609375 l 2,22,23
 111.552481525 205.29366232 111.552481525 205.29366232 78.4990493343 222.672966414 c 128,-1,24
 45.4456171433 240.052270508 45.4456171433 240.052270508 28.3438066697 267.285616517 c 128,-1,25
 11.241996196 294.518962525 11.241996196 294.518962525 3.1863671186 327.269688808 c 128,-1,26
 -4.86926195881 360.020415092 -4.86926195881 360.020415092 3.08368230742 392.58723482 c 128,-1,27
 11.0366265737 425.154054549 11.0366265737 425.154054549 28.0827319145 451.995055518 c 128,-1,28
 45.1288372554 478.836056487 45.1288372554 478.836056487 78.2404675662 495.455202431 c 128,-1,29
 111.352097877 512.074348376 111.352097877 512.074348376 153.604492188 511.799804688 c 2,0,-1
EndSplineSet
EndChar

StartChar: d
Encoding: 100 100 9
Width: 715
Flags: W
LayerCount: 2
Fore
SplineSet
460.799804688 409.400390625 m 1,0,-1
 204.799804688 409.400390625 l 1,1,-1
 153.599609375 359 l 1,2,-1
 153.599609375 153.400390625 l 1,3,-1
 204.799804688 102.200195312 l 1,4,-1
 460.799804688 102.200195312 l 1,5,-1
 460.799804688 409.400390625 l 1,0,-1
460.799804688 716.599609375 m 1,6,-1
 614.400390625 716.599609375 l 1,7,-1
 614.400390625 -0.2001953125 l 1,8,-1
 256 -0.2001953125 l 2,9,10
 194.374797276 -0.2001953125 194.374797276 -0.2001953125 144.446276684 21.7998046875 c 128,-1,11
 94.5177560923 43.7998046875 94.5177560923 43.7998046875 63.8029794498 79.7998046875 c 128,-1,12
 33.0882028074 115.799804688 33.0882028074 115.799804688 16.3939161495 161.799804688 c 128,-1,13
 -0.300370508311 207.799804688 -0.300370508311 207.799804688 -0.355620403679 255.799804688 c 128,-1,14
 -0.410870299047 303.799804688 -0.410870299047 303.799804688 16.2047453121 349.799804688 c 128,-1,15
 32.8203609233 395.799804688 32.8203609233 395.799804688 63.50030611 431.799804688 c 128,-1,16
 94.1802512967 467.799804688 94.1802512967 467.799804688 144.181437512 489.799804688 c 128,-1,17
 194.182623727 511.799804688 194.182623727 511.799804688 256 511.799804688 c 2,18,-1
 460.799804688 511.799804688 l 1,19,-1
 460.799804688 716.599609375 l 1,6,-1
EndSplineSet
EndChar

StartChar: E
Encoding: 69 69 10
Width: 715
Flags: W
LayerCount: 2
Fore
SplineSet
0 716.599609375 m 1,0,-1
 614.400390625 716.599609375 l 1,1,-1
 614.400390625 614.200195312 l 1,2,-1
 180.799804688 614.200195312 l 1,3,-1
 180.799804688 409.400390625 l 1,4,-1
 614.400390625 409.400390625 l 1,5,-1
 614.400390625 307 l 1,6,-1
 180.799804688 307 l 1,7,-1
 180.799804688 102.200195312 l 1,8,-1
 614.400390625 102.200195312 l 1,9,-1
 614.400390625 -0.2001953125 l 1,10,-1
 0 -0.2001953125 l 1,11,-1
 0 716.599609375 l 1,0,-1
EndSplineSet
EndChar

StartChar: F
Encoding: 70 70 11
Width: 715
Flags: W
LayerCount: 2
Fore
SplineSet
0 716.599609375 m 1,0,-1
 614.400390625 716.599609375 l 1,1,-1
 614.400390625 614.200195312 l 1,2,-1
 180.799804688 614.200195312 l 1,3,-1
 180.799804688 409.400390625 l 1,4,-1
 563.200195312 409.400390625 l 1,5,-1
 563.200195312 307 l 1,6,-1
 180.799804688 307 l 1,7,-1
 180.799804688 -0.2001953125 l 1,8,-1
 0 -0.2001953125 l 1,9,-1
 0 716.599609375 l 1,0,-1
EndSplineSet
EndChar

StartChar: G
Encoding: 71 71 12
Width: 817
Flags: W
LayerCount: 2
Fore
SplineSet
0 461.400390625 m 2,0,1
 0 575.88074877 0 575.88074877 71.3850824662 646.240179072 c 128,-1,2
 142.770164932 716.599609375 142.770164932 716.599609375 256 716.599609375 c 2,3,-1
 716.799804688 716.599609375 l 1,4,-1
 716.799804688 614.200195312 l 1,5,-1
 229 614.200195312 l 1,6,-1
 177.799804688 563 l 1,7,-1
 177.799804688 153.400390625 l 1,8,-1
 229 102.200195312 l 1,9,-1
 535 102.200195312 l 1,10,-1
 535 307 l 1,11,-1
 307.200195312 307 l 1,12,-1
 307.200195312 409.400390625 l 1,13,-1
 716.799804688 409.400390625 l 1,14,-1
 716.799804688 204.599609375 l 2,15,16
 716.799804688 -0.2001953125 716.799804688 -0.2001953125 460.799804688 -0.2001953125 c 2,17,-1
 256 -0.2001953125 l 2,18,19
 142.991155096 -0.2001953125 142.991155096 -0.2001953125 71.4955775481 70.9530332787 c 128,-1,20
 0 142.10626187 0 142.10626187 0 256.599609375 c 2,21,-1
 0 461.400390625 l 2,0,1
EndSplineSet
EndChar

StartChar: H
Encoding: 72 72 13
Width: 817
Flags: W
LayerCount: 2
Fore
SplineSet
716.799804688 716.599609375 m 1,0,-1
 716.799804688 -0.2001953125 l 1,1,-1
 539 -0.2001953125 l 1,2,-1
 539 307 l 1,3,-1
 184.799804688 307 l 1,4,-1
 183.799804688 -0.2001953125 l 1,5,-1
 0 -0.2001953125 l 1,6,-1
 0 716.599609375 l 1,7,-1
 183.799804688 716.599609375 l 1,8,-1
 183.799804688 409.400390625 l 1,9,-1
 539 409.400390625 l 1,10,-1
 539 716.599609375 l 1,11,-1
 716.799804688 716.599609375 l 1,0,-1
EndSplineSet
EndChar

StartChar: I
Encoding: 73 73 14
Width: 510
Flags: W
LayerCount: 2
Fore
SplineSet
0 -0.2001953125 m 1,0,-1
 0 102.200195312 l 1,1,-1
 115.599609375 102.200195312 l 1,2,-1
 115.599609375 614.200195312 l 1,3,-1
 0 614.200195312 l 1,4,-1
 0 716.599609375 l 1,5,-1
 409.599609375 716.599609375 l 1,6,-1
 409.599609375 614.200195312 l 1,7,-1
 295.200195312 614.200195312 l 1,8,-1
 295.200195312 102.200195312 l 1,9,-1
 409.599609375 102.200195312 l 1,10,-1
 409.599609375 -0.2001953125 l 1,11,-1
 0 -0.2001953125 l 1,0,-1
EndSplineSet
EndChar

StartChar: J
Encoding: 74 74 15
Width: 817
Flags: W
LayerCount: 2
Fore
SplineSet
716.799804688 716.599609375 m 1,0,-1
 716.799804688 153.400390625 l 2,1,2
 716.909513935 111.100242176 716.909513935 111.100242176 677.463813923 77.9829880441 c 128,-1,3
 638.01811391 44.8657339118 638.01811391 44.8657339118 574.846365674 27.8493450007 c 128,-1,4
 511.674617437 10.8329560897 511.674617437 10.8329560897 435.243936463 2.88841807326 c 128,-1,5
 358.813255488 -5.05611994314 358.813255488 -5.05611994314 282.340785317 2.95333894204 c 128,-1,6
 205.868315145 10.9627978272 205.868315145 10.9627978272 142.60753659 27.935452512 c 128,-1,7
 79.3467580355 44.9081071968 79.3467580355 44.9081071968 39.7284493108 77.6878904635 c 128,-1,8
 0.110140586147 110.46767373 0.110140586147 110.46767373 0 152.099609375 c 2,9,-1
 0 307 l 1,10,-1
 179.799804688 307 l 1,11,-1
 179.799804688 153.400390625 l 1,12,-1
 231 102.200195312 l 1,13,-1
 488.799804688 102.200195312 l 1,14,-1
 540 153.400390625 l 1,15,-1
 540 716.599609375 l 1,16,-1
 716.799804688 716.599609375 l 1,0,-1
EndSplineSet
EndChar

StartChar: K
Encoding: 75 75 16
Width: 817
Flags: W
LayerCount: 2
Fore
SplineSet
0 716.599609375 m 1,0,-1
 180.799804688 716.599609375 l 1,1,-1
 180.799804688 409.200195312 l 1,2,-1
 283 409.400390625 l 1,3,-1
 590.200195312 716.599609375 l 1,4,-1
 716.799804688 716.599609375 l 1,5,-1
 716.799804688 613.200195312 l 1,6,-1
 435 330.200195312 l 1,7,-1
 716.799804688 51 l 1,8,-1
 716.799804688 -0.2001953125 l 1,9,-1
 539 -0.2001953125 l 1,10,-1
 283 255.799804688 l 1,11,-1
 180.799804688 255.799804688 l 1,12,-1
 180.799804688 -0.2001953125 l 1,13,-1
 0 -0.2001953125 l 1,14,-1
 0 716.599609375 l 1,0,-1
EndSplineSet
EndChar

StartChar: L
Encoding: 76 76 17
Width: 715
Flags: W
LayerCount: 2
Fore
SplineSet
182.799804688 716.599609375 m 1,0,-1
 182.799804688 102.200195312 l 1,1,-1
 614.400390625 102.200195312 l 1,2,-1
 614.400390625 -0.2001953125 l 1,3,-1
 0 -1.244140625 l 1,4,-1
 0 716.599609375 l 1,5,-1
 182.799804688 716.599609375 l 1,0,-1
EndSplineSet
EndChar

StartChar: M
Encoding: 77 77 18
Width: 817
Flags: W
LayerCount: 2
Fore
SplineSet
0 716.599609375 m 1,0,-1
 512 716.599609375 l 2,1,2
 604.521846929 716.599609375 604.521846929 716.599609375 660.676590534 646.264407871 c 128,-1,3
 716.831334138 575.929206367 716.831334138 575.929206367 716.799804688 460.599609375 c 2,4,-1
 716.799804688 -0.2001953125 l 1,5,-1
 543 -0.2001953125 l 1,6,-1
 543 563 l 1,7,-1
 491.799804688 614.200195312 l 1,8,-1
 436.599609375 614.200195312 l 1,9,-1
 436.599609375 -0.2001953125 l 1,10,-1
 285.200195312 -0.2001953125 l 1,11,-1
 285.200195312 614.200195312 l 1,12,-1
 178.799804688 614.200195312 l 1,13,-1
 178.799804688 -0.2001953125 l 1,14,-1
 -1 0.7998046875 l 1,15,-1
 0 716.599609375 l 1,0,-1
EndSplineSet
EndChar

StartChar: N
Encoding: 78 78 19
Width: 817
Flags: W
LayerCount: 2
Fore
SplineSet
0 716.599609375 m 1,0,-1
 175.799804688 716.599609375 l 1,1,-1
 537 409.400390625 l 1,2,-1
 537 716.599609375 l 1,3,-1
 716.799804688 716.599609375 l 1,4,-1
 716.799804688 -0.2001953125 l 1,5,-1
 537 -0.2001953125 l 1,6,-1
 537 204.599609375 l 1,7,-1
 175.799804688 511.799804688 l 1,8,-1
 175.799804688 -0.2001953125 l 1,9,-1
 0 -0.2001953125 l 1,10,-1
 0 716.599609375 l 1,0,-1
EndSplineSet
EndChar

StartChar: h
Encoding: 104 104 20
Width: 715
Flags: W
LayerCount: 2
Fore
SplineSet
0 716.599609375 m 1,0,-1
 153.599609375 716.599609375 l 1,1,-1
 153.599609375 511.799804688 l 1,2,-1
 409.599609375 511.799804688 l 2,3,4
 450.663031031 511.799804688 450.663031031 511.799804688 483.791672293 499.87954741 c 128,-1,5
 516.920313556 487.959290132 516.920313556 487.959290132 537.791418086 470.248430679 c 128,-1,6
 558.662522616 452.537571225 558.662522616 452.537571225 574.044997731 426.526880227 c 128,-1,7
 589.427472846 400.516189229 589.427472846 400.516189229 596.89377778 378.101587566 c 128,-1,8
 604.360082714 355.686985904 604.360082714 355.686985904 608.657561506 328.208560712 c 128,-1,9
 612.955040299 300.730135519 612.955040299 300.730135519 613.677715462 286.234491174 c 128,-1,10
 614.400390625 271.73884683 614.400390625 271.73884683 614.400390625 255.799804688 c 2,11,-1
 614.400390625 -0.2001953125 l 1,12,-1
 460.799804688 -0.2001953125 l 1,13,-1
 460.799804688 359 l 1,14,-1
 409.599609375 409.400390625 l 1,15,-1
 153.599609375 409.400390625 l 1,16,-1
 153.599609375 -0.2001953125 l 1,17,-1
 0 -0.2001953125 l 1,18,-1
 0 716.599609375 l 1,0,-1
EndSplineSet
EndChar

StartChar: O
Encoding: 79 79 21
Width: 817
Flags: W
LayerCount: 2
Fore
SplineSet
183.599609375 359 m 0,0,1
 184.346713901 243.646769279 184.346713901 243.646769279 232.821641533 172.923482296 c 128,-1,2
 281.296569164 102.200195312 281.296569164 102.200195312 358.400390625 102.200195312 c 0,3,4
 399.282294628 102.200195312 399.282294628 102.200195312 429.725735082 113.774981233 c 128,-1,5
 460.169175535 125.349767154 460.169175535 125.349767154 485.402576076 153.137982634 c 128,-1,6
 510.635976616 180.926198114 510.635976616 180.926198114 524.507015599 232.499956819 c 128,-1,7
 538.378054582 284.073715525 538.378054582 284.073715525 540.200195312 359 c 0,8,9
 539.459023935 472.250841782 539.459023935 472.250841782 487.81586259 543.225518547 c 128,-1,10
 436.172701245 614.200195312 436.172701245 614.200195312 358.400390625 614.200195312 c 0,11,12
 281.018355222 614.200195312 281.018355222 614.200195312 231.936699341 543.484860776 c 128,-1,13
 182.855043461 472.769526239 182.855043461 472.769526239 183.599609375 359 c 0,0,1
358.400390625 716.599609375 m 0,14,15
 528.73021036 716.599609375 528.73021036 716.599609375 622.765007524 624.400313373 c 128,-1,16
 716.799804688 532.201017371 716.799804688 532.201017371 716.799804688 359 c 0,17,18
 716.799804688 188.568647166 716.799804688 188.568647166 622.18485907 94.1842259265 c 128,-1,19
 527.569913452 -0.2001953125 527.569913452 -0.2001953125 358.400390625 -0.2001953125 c 0,20,21
 188.490765736 -0.2001953125 188.490765736 -0.2001953125 94.2453828681 93.0486572187 c 128,-1,22
 0 186.29750975 0 186.29750975 0 359 c 0,23,24
 0 529.929659018 0 529.929659018 94.4102991955 623.264634196 c 128,-1,25
 188.820598391 716.599609375 188.820598391 716.599609375 358.400390625 716.599609375 c 0,14,15
EndSplineSet
EndChar

StartChar: P
Encoding: 80 80 22
Width: 817
Flags: W
LayerCount: 2
Fore
SplineSet
178.799804688 409.400390625 m 1,0,-1
 487.799804688 409.400390625 l 1,1,-1
 539 459.799804688 l 1,2,-1
 539 563 l 1,3,-1
 487.799804688 614.200195312 l 1,4,-1
 178.799804688 614.200195312 l 1,5,-1
 178.799804688 409.400390625 l 1,0,-1
0 -0.2001953125 m 1,6,-1
 0 716.599609375 l 1,7,-1
 487.799804688 716.599609375 l 2,8,9
 537.408422974 716.599609375 537.408422974 716.599609375 577.346243307 705.900884307 c 128,-1,10
 617.284063639 695.202159239 617.284063639 695.202159239 649.419457987 672.098764741 c 128,-1,11
 681.554852336 648.995370243 681.554852336 648.995370243 699.177328512 608.301183379 c 128,-1,12
 716.799804688 567.606996515 716.799804688 567.606996515 716.799804688 511.799804688 c 128,-1,13
 716.799804688 455.992953768 716.799804688 455.992953768 699.177311304 415.298833766 c 128,-1,14
 681.554817921 374.604713764 681.554817921 374.604713764 649.419475195 351.501215062 c 128,-1,15
 617.284132469 328.39771636 617.284132469 328.39771636 577.346226099 317.69885818 c 128,-1,16
 537.408319729 307 537.408319729 307 487.799804688 307 c 2,17,-1
 178.799804688 307 l 1,18,-1
 178.799804688 -0.2001953125 l 1,19,-1
 0 -0.2001953125 l 1,6,-1
EndSplineSet
EndChar

StartChar: Q
Encoding: 81 81 23
Width: 833
Flags: W
LayerCount: 2
Fore
SplineSet
358.400390625 614.200195312 m 0,0,1
 281.089943744 614.200195312 281.089943744 614.200195312 231.84477656 543.533992151 c 128,-1,2
 182.599609375 472.867788989 182.599609375 472.867788989 182.599609375 359 c 0,3,4
 182.599609375 242.648166918 182.599609375 242.648166918 216.382421185 172.424181115 c 128,-1,5
 250.165232994 102.200195312 250.165232994 102.200195312 307.200195312 102.200195312 c 1,6,-1
 307.200195312 204.599609375 l 1,7,-1
 409.599609375 204.599609375 l 1,8,-1
 409.599609375 102.200195312 l 1,9,10
 468.314417813 102.200195312 468.314417813 102.200195312 503.757306563 172.615034568 c 128,-1,11
 539.200195312 243.029873824 539.200195312 243.029873824 539.200195312 359 c 0,12,13
 539.200195312 472.15905177 539.200195312 472.15905177 487.72224254 543.179623541 c 128,-1,14
 436.244289768 614.200195312 436.244289768 614.200195312 358.400390625 614.200195312 c 0,0,1
358.400390625 716.599609375 m 0,15,16
 528.73021036 716.599609375 528.73021036 716.599609375 622.765007524 624.400313373 c 128,-1,17
 716.799804688 532.201017371 716.799804688 532.201017371 716.799804688 359 c 0,18,19
 716.799804688 188.568647166 716.799804688 188.568647166 622.18485907 94.1842259265 c 128,-1,20
 527.569913452 -0.2001953125 527.569913452 -0.2001953125 358.400390625 -0.2001953125 c 0,21,22
 188.490765736 -0.2001953125 188.490765736 -0.2001953125 94.2453828681 93.0486572187 c 128,-1,23
 0 186.29750975 0 186.29750975 0 359 c 0,24,25
 0 529.929659018 0 529.929659018 94.4102991955 623.264634196 c 128,-1,26
 188.820598391 716.599609375 188.820598391 716.599609375 358.400390625 716.599609375 c 0,15,16
409.599609375 -0.2001953125 m 1,27,-1
 617.1328125 -0.2001953125 l 1,28,-1
 716.799804688 -102.599609375 l 1,29,-1
 409.599609375 -102.599609375 l 1,30,-1
 409.599609375 -0.2001953125 l 1,27,-1
EndSplineSet
EndChar

StartChar: R
Encoding: 82 82 24
Width: 817
Flags: W
LayerCount: 2
Fore
SplineSet
182.799804688 409.400390625 m 1,0,-1
 486.799804688 409.400390625 l 1,1,-1
 538 460.599609375 l 1,2,-1
 538 563 l 1,3,-1
 486.799804688 614.200195312 l 1,4,-1
 182.799804688 614.200195312 l 1,5,-1
 182.799804688 409.400390625 l 1,0,-1
0 -0.2001953125 m 1,6,-1
 0 716.599609375 l 1,7,-1
 486.799804688 716.599609375 l 2,8,9
 605.780302277 716.599609375 605.780302277 716.599609375 661.290053482 670.220793204 c 128,-1,10
 716.799804688 623.841977032 716.799804688 623.841977032 716.799804688 511.799804688 c 0,11,12
 716.799804688 388.537146926 716.799804688 388.537146926 589.200195312 359 c 1,13,14
 651.792210649 337.384911977 651.792210649 337.384911977 684.296007668 284.19387522 c 128,-1,15
 716.799804688 231.002838463 716.799804688 231.002838463 716.799804688 153.400390625 c 2,16,-1
 716.799804688 -0.2001953125 l 1,17,-1
 538 -0.2001953125 l 1,18,-1
 538 255.799804688 l 1,19,-1
 486.799804688 307 l 1,20,-1
 182.799804688 307 l 1,21,-1
 182.799804688 -0.2001953125 l 1,22,-1
 0 -0.2001953125 l 1,6,-1
EndSplineSet
EndChar

StartChar: S
Encoding: 83 83 25
Width: 815
Flags: W
LayerCount: 2
Fore
SplineSet
204.799804688 716.599609375 m 2,0,-1
 665.599609375 716.599609375 l 1,1,-1
 665.599609375 614.200195312 l 1,2,-1
 232 614.200195312 l 1,3,-1
 180.799804688 563 l 1,4,-1
 180.799804688 460.599609375 l 1,5,-1
 232 409.400390625 l 1,6,-1
 512 409.400390625 l 2,7,8
 556.13760076 409.741971235 556.13760076 409.741971235 593.054949889 396.019104212 c 128,-1,9
 629.972299018 382.296237188 629.972299018 382.296237188 653.775417588 358.781086278 c 128,-1,10
 677.578536158 335.265935368 677.578536158 335.265935368 694.189506537 304.672683065 c 128,-1,11
 710.800476916 274.079430763 710.800476916 274.079430763 714.331029407 240.153254381 c 128,-1,12
 717.861581897 206.227077999 717.861581897 206.227077999 714.227709019 172.244278895 c 128,-1,13
 710.593836142 138.26147979 710.593836142 138.26147979 693.913358046 107.405116414 c 128,-1,14
 677.23287995 76.5487530376 677.23287995 76.5487530376 653.41569931 52.6572456083 c 128,-1,15
 629.59851867 28.765738179 629.59851867 28.765738179 592.768545482 14.460026286 c 128,-1,16
 555.938572293 0.154314392873 555.938572293 0.154314392873 512 -0.2001953125 c 2,17,-1
 0 -0.2001953125 l 1,18,-1
 0 102.200195312 l 1,19,-1
 487.799804688 102.200195312 l 1,20,-1
 539 153.400390625 l 1,21,-1
 539 255.799804688 l 1,22,-1
 487.799804688 307 l 1,23,-1
 204.799804688 307 l 2,24,25
 160.357657245 306.926932594 160.357657245 306.926932594 123.30720568 320.873141951 c 128,-1,26
 86.2567541142 334.819351308 86.2567541142 334.819351308 62.4757804315 358.477480156 c 128,-1,27
 38.6948067487 382.135609004 38.6948067487 382.135609004 22.1911112866 412.827705672 c 128,-1,28
 5.68741582453 443.519802341 5.68741582453 443.519802341 2.31553576841 477.465632805 c 128,-1,29
 -1.05634428771 511.411463269 -1.05634428771 511.411463269 2.73618587511 545.370811061 c 128,-1,30
 6.52871603793 579.330158853 6.52871603793 579.330158853 23.31539913 610.085054744 c 128,-1,31
 40.1020822221 640.839950636 40.1020822221 640.839950636 63.9403075315 664.587913363 c 128,-1,32
 87.7785328408 688.33587609 87.7785328408 688.33587609 124.473248603 702.421201221 c 128,-1,33
 161.167964365 716.506526352 161.167964365 716.506526352 204.799804688 716.599609375 c 2,0,-1
EndSplineSet
EndChar

StartChar: T
Encoding: 84 84 26
Width: 715
Flags: W
LayerCount: 2
Fore
SplineSet
0 716.599609375 m 1,0,-1
 614.400390625 716.599609375 l 1,1,-1
 614.400390625 614.200195312 l 1,2,-1
 399.599609375 614.200195312 l 1,3,-1
 399.599609375 -0.2001953125 l 1,4,-1
 216.799804688 -0.2001953125 l 1,5,-1
 216.799804688 614.200195312 l 1,6,-1
 0 614.200195312 l 1,7,-1
 0 716.599609375 l 1,0,-1
EndSplineSet
EndChar

StartChar: U
Encoding: 85 85 27
Width: 817
Flags: W
LayerCount: 2
Fore
SplineSet
0 716.599609375 m 1,0,-1
 183.799804688 716.599609375 l 1,1,-1
 183.799804688 153.400390625 l 1,2,-1
 235 102.200195312 l 1,3,-1
 488.799804688 102.200195312 l 1,4,-1
 540 153.400390625 l 1,5,-1
 540 716.599609375 l 1,6,-1
 716.799804688 716.599609375 l 1,7,-1
 716.799804688 -0.2001953125 l 1,8,-1
 591.200195312 -0.2001953125 l 1,9,-1
 591.200195312 51 l 1,10,-1
 540 -0.2001953125 l 1,11,-1
 235 -0.2001953125 l 2,12,13
 183.141831619 -0.2001953125 183.141831619 -0.2001953125 141.985237317 10.4791345669 c 128,-1,14
 100.828643016 21.1584644462 100.828643016 21.1584644462 68.130698962 44.3205480503 c 128,-1,15
 35.4327549081 67.4826316544 35.4327549081 67.4826316544 17.716377454 108.079110153 c 128,-1,16
 0 148.675588651 0 148.675588651 0 204.599609375 c 2,17,-1
 0 716.599609375 l 1,0,-1
EndSplineSet
EndChar

StartChar: V
Encoding: 86 86 28
Width: 920
Flags: W
LayerCount: 2
Fore
SplineSet
0 716.599609375 m 1,0,-1
 183.799804688 716.599609375 l 1,1,-1
 388.599609375 102.200195312 l 1,2,-1
 460.799804688 102.200195312 l 1,3,-1
 665.599609375 716.599609375 l 1,4,-1
 819.200195312 716.599609375 l 1,5,-1
 819.200195312 644.200195312 l 1,6,-1
 591.400390625 -0.2001953125 l 1,7,-1
 204.799804688 -0.2001953125 l 1,8,-1
 0 614.200195312 l 1,9,-1
 0 716.599609375 l 1,0,-1
EndSplineSet
EndChar

StartChar: W
Encoding: 87 87 29
Width: 817
Flags: W
LayerCount: 2
Fore
SplineSet
0 -0.2001953125 m 1,0,-1
 -1 715.599609375 l 1,1,-1
 178.799804688 716.599609375 l 1,2,-1
 178.799804688 102.200195312 l 1,3,-1
 285.200195312 102.200195312 l 1,4,-1
 285.200195312 716.599609375 l 1,5,-1
 436.599609375 716.599609375 l 1,6,-1
 436.599609375 102.200195312 l 1,7,-1
 491.799804688 102.200195312 l 1,8,-1
 543 153.400390625 l 1,9,-1
 543 716.599609375 l 1,10,-1
 716.799804688 716.599609375 l 1,11,-1
 716.799804688 255.799804688 l 2,12,13
 716.831334186 140.470765439 716.831334186 140.470765439 660.676520944 70.1352850633 c 128,-1,14
 604.521707702 -0.2001953125 604.521707702 -0.2001953125 512 -0.2001953125 c 2,15,-1
 0 -0.2001953125 l 1,0,-1
EndSplineSet
EndChar

StartChar: Z
Encoding: 90 90 30
Width: 817
Flags: W
LayerCount: 2
Fore
SplineSet
0 716.599609375 m 1,0,-1
 716.799804688 716.599609375 l 1,1,-1
 716.799804688 575 l 1,2,-1
 204.799804688 102.200195312 l 1,3,-1
 716.799804688 102.200195312 l 1,4,-1
 716.799804688 -0.2001953125 l 1,5,-1
 0 -0.2001953125 l 1,6,-1
 0 141.400390625 l 1,7,-1
 512 614.200195312 l 1,8,-1
 0 613.200195312 l 1,9,-1
 0 716.599609375 l 1,0,-1
EndSplineSet
EndChar

StartChar: X
Encoding: 88 88 31
Width: 817
Flags: W
LayerCount: 2
Fore
SplineSet
0 716.599609375 m 1,0,-1
 102.400390625 716.599609375 l 1,1,-1
 358.400390625 460.599609375 l 1,2,-1
 614.400390625 716.599609375 l 1,3,-1
 716.799804688 716.599609375 l 1,4,-1
 716.799804688 614.200195312 l 1,5,-1
 460.799804688 359 l 1,6,-1
 716.799804688 102.200195312 l 1,7,-1
 716.799804688 -0.2001953125 l 1,8,-1
 614.400390625 -0.2001953125 l 1,9,-1
 358.400390625 255.799804688 l 1,10,-1
 102.400390625 -0.2001953125 l 1,11,-1
 0 -0.2001953125 l 1,12,-1
 0 102.200195312 l 1,13,-1
 256 359 l 1,14,-1
 0 614.200195312 l 1,15,-1
 0 716.599609375 l 1,0,-1
EndSplineSet
EndChar

StartChar: Y
Encoding: 89 89 32
Width: 920
Flags: W
LayerCount: 2
Fore
SplineSet
0 716.599609375 m 1,0,-1
 143.599609375 716.599609375 l 1,1,-1
 409.599609375 450.599609375 l 1,2,-1
 675.599609375 716.599609375 l 1,3,-1
 819.200195312 716.599609375 l 1,4,-1
 819.200195312 676.400390625 l 1,5,-1
 498 359 l 1,6,-1
 498 -0.2001953125 l 1,7,-1
 317.200195312 -0.2001953125 l 1,8,-1
 317.200195312 359 l 1,9,-1
 0 676.400390625 l 1,10,-1
 0 716.599609375 l 1,0,-1
EndSplineSet
EndChar

StartChar: q
Encoding: 113 113 33
Width: 715
Flags: W
LayerCount: 2
Fore
SplineSet
204.799804688 102.200195312 m 1,0,-1
 460.799804688 102.200195312 l 1,1,-1
 460.799804688 409.400390625 l 1,2,-1
 204.799804688 409.400390625 l 1,3,-1
 153.600585938 358.200195312 l 1,4,-1
 153.600585938 154.200195312 l 1,5,-1
 204.799804688 102.200195312 l 1,0,-1
614.400390625 511.799804688 m 1,6,-1
 614.400390625 -205 l 1,7,-1
 460.799804688 -205 l 1,8,-1
 460.799804688 -0.2001953125 l 1,9,-1
 204.799804688 -0.2001953125 l 2,10,11
 160.773609398 -0.286182744815 160.773609398 -0.286182744815 123.905604986 17.1560924278 c 128,-1,12
 87.0376005753 34.5983676004 87.0376005753 34.5983676004 63.2278585553 64.1813159441 c 128,-1,13
 39.4181165352 93.7642642878 39.4181165352 93.7642642878 22.7693845646 132.140312035 c 128,-1,14
 6.12065259402 170.516359783 6.12065259402 170.516359783 2.53357486183 212.956366313 c 128,-1,15
 -1.05350287035 255.396372843 -1.05350287035 255.396372843 2.52321043909 297.850418988 c 128,-1,16
 6.09992374853 340.304465133 6.09992374853 340.304465133 22.7416831437 378.745755673 c 128,-1,17
 39.3834425389 417.187046213 39.3834425389 417.187046213 63.1917739679 446.863316579 c 128,-1,18
 87.0001053969 476.539586945 87.0001053969 476.539586945 123.876874759 494.126387318 c 128,-1,19
 160.753644121 511.71318769 160.753644121 511.71318769 204.799804688 511.799804688 c 2,20,-1
 614.400390625 511.799804688 l 1,6,-1
EndSplineSet
EndChar

StartChar: e
Encoding: 101 101 34
Width: 715
Flags: W
LayerCount: 2
Fore
SplineSet
460.400390625 307 m 1,0,-1
 460.799804688 359 l 1,1,-1
 409.599609375 409.400390625 l 1,2,-1
 204.799804688 409.400390625 l 1,3,-1
 153.599609375 359 l 1,4,-1
 153.599609375 307 l 1,5,-1
 460.400390625 307 l 1,0,-1
358.400390625 511.799804688 m 2,6,7
 473.986352042 511.799804688 473.986352042 511.799804688 544.193371334 455.97118111 c 128,-1,8
 614.400390625 400.142557533 614.400390625 400.142557533 614.400390625 307 c 2,9,-1
 614.400390625 204.599609375 l 1,10,-1
 153.599609375 204.599609375 l 1,11,-1
 153.599609375 153.400390625 l 1,12,-1
 204.799804688 102.200195312 l 1,13,-1
 563.200195312 102.200195312 l 1,14,-1
 563.200195312 -0.2001953125 l 1,15,-1
 204.799804688 -0.2001953125 l 2,16,17
 128.000244141 -0.2001953125 128.000244141 -0.2001953125 64.0001220703 63.7999267578 c 128,-1,18
 0 127.800048828 0 127.800048828 0 204.599609375 c 2,19,-1
 0 307 l 2,20,21
 0 400.485749615 0 400.485749615 70.1390348353 456.142777151 c 128,-1,22
 140.278069671 511.799804688 140.278069671 511.799804688 256 511.799804688 c 2,23,-1
 358.400390625 511.799804688 l 2,6,7
EndSplineSet
EndChar

StartChar: f
Encoding: 102 102 35
Width: 612
Flags: W
LayerCount: 2
Fore
SplineSet
307.200195312 716.599609375 m 2,0,-1
 512 716.599609375 l 1,1,-1
 512 614.200195312 l 1,2,-1
 306 612.700195312 l 1,3,-1
 256 561.5 l 1,4,-1
 256 511.799804688 l 1,5,-1
 512 511.799804688 l 1,6,-1
 512 410.200195312 l 1,7,-1
 256 410.200195312 l 1,8,-1
 256 -0.2001953125 l 1,9,-1
 102.400390625 -0.2001953125 l 1,10,-1
 102.400390625 409.400390625 l 1,11,-1
 0 410.200195312 l 1,12,-1
 0 511.799804688 l 1,13,-1
 102.400390625 511.799804688 l 1,14,15
 102.400390625 567.462527565 102.400390625 567.462527565 119.629138703 608.636480221 c 128,-1,16
 136.857886781 649.810432877 136.857886781 649.810432877 166.771312957 672.560342899 c 128,-1,17
 196.684739134 695.310252922 196.684739134 695.310252922 231.628894562 705.954931148 c 128,-1,18
 266.57304999 716.599609375 266.57304999 716.599609375 307.200195312 716.599609375 c 2,0,-1
EndSplineSet
EndChar

StartChar: g
Encoding: 103 103 36
Width: 715
Flags: W
LayerCount: 2
Fore
SplineSet
204.799804688 102.200195312 m 1,0,-1
 460.799804688 102.200195312 l 1,1,-1
 460.799804688 409.400390625 l 1,2,-1
 204.799804688 409.400390625 l 1,3,-1
 153.599609375 359 l 1,4,-1
 153.599609375 153.400390625 l 1,5,-1
 204.799804688 102.200195312 l 1,0,-1
614.400390625 511.799804688 m 1,6,-1
 614.400390625 -51.400390625 l 2,7,8
 614.400390625 -100.198321547 614.400390625 -100.198321547 583.526126061 -136.13291372 c 128,-1,9
 552.651861497 -172.067505893 552.651861497 -172.067505893 507.140540606 -188.533752947 c 128,-1,10
 461.629219714 -205 461.629219714 -205 409.599609375 -205 c 2,11,-1
 256 -205 l 1,12,-1
 102.400390625 -205 l 1,13,-1
 102.400390625 -102.599609375 l 1,14,-1
 256 -102.599609375 l 1,15,-1
 382.400390625 -102.599609375 l 1,16,-1
 436.599609375 -77 l 1,17,-1
 460.799804688 -51.400390625 l 1,18,-1
 460.799804688 -0.2001953125 l 1,19,-1
 204.799804688 -0.2001953125 l 2,20,21
 160.296289597 0.192849574081 160.296289597 0.192849574081 123.219292186 18.0338368889 c 128,-1,22
 86.1422947741 35.8748242037 86.1422947741 35.8748242037 62.3670070043 65.7131490293 c 128,-1,23
 38.5917192345 95.5514738549 38.5917192345 95.5514738549 22.11062449 134.104267273 c 128,-1,24
 5.62952974559 172.657060691 5.62952974559 172.657060691 2.29093961746 215.132473446 c 128,-1,25
 -1.04765051067 257.607886202 -1.04765051067 257.607886202 2.77741975754 300.020376669 c 128,-1,26
 6.60249002574 342.432867137 6.60249002574 342.432867137 23.410859885 380.693258769 c 128,-1,27
 40.2192297442 418.9536504 40.2192297442 418.9536504 64.0607273707 448.373728864 c 128,-1,28
 87.9022249973 477.793807328 87.9022249973 477.793807328 124.567817189 494.987068782 c 128,-1,29
 161.233409382 512.180330237 161.233409382 512.180330237 204.799804688 511.799804688 c 2,30,-1
 614.400390625 511.799804688 l 1,6,-1
EndSplineSet
EndChar

StartChar: i
Encoding: 105 105 37
Width: 254
Flags: W
LayerCount: 2
Fore
SplineSet
0 717.032226562 m 1,0,-1
 153.599609375 716.897460938 l 1,1,-1
 153.599609375 613.6328125 l 1,2,-1
 0 613.6328125 l 1,3,-1
 0 717.032226562 l 1,0,-1
0 512.232421875 m 1,4,-1
 153.599609375 512.232421875 l 1,5,-1
 153.599609375 -0.2001953125 l 1,6,-1
 0 -0.2001953125 l 1,7,-1
 0 512.232421875 l 1,4,-1
EndSplineSet
EndChar

StartChar: j
Encoding: 106 106 38
Width: 612
Flags: W
LayerCount: 2
Fore
SplineSet
358.400390625 716.599609375 m 1,0,-1
 512 716.599609375 l 1,1,-1
 512 613.334960938 l 1,2,-1
 358.400390625 613.200195312 l 1,3,-1
 358.400390625 716.599609375 l 1,0,-1
358.400390625 511.799804688 m 1,4,-1
 512 511.799804688 l 1,5,-1
 512 0.0703125 l 2,6,7
 512 -43.6341635622 512 -43.6341635622 494.485596708 -80.2173232718 c 128,-1,8
 476.971193416 -116.800482981 476.971193416 -116.800482981 447.341563786 -140.413982187 c 128,-1,9
 417.711934156 -164.027481393 417.711934156 -164.027481393 379.303155007 -180.529761651 c 128,-1,10
 340.894375857 -197.032041908 340.894375857 -197.032041908 298.447187929 -200.578095592 c 128,-1,11
 256 -204.124149275 256 -204.124149275 213.552812071 -200.56885898 c 128,-1,12
 171.105624143 -197.013568685 171.105624143 -197.013568685 132.696844993 -180.515485745 c 128,-1,13
 94.2880658436 -164.017402806 94.2880658436 -164.017402806 64.658436214 -140.427850857 c 128,-1,14
 35.0288065844 -116.838298907 35.0288065844 -116.838298907 17.5144032922 -80.3193882444 c 128,-1,15
 0 -43.8004775813 0 -43.8004775813 0 -0.2001953125 c 1,16,-1
 153.599609375 -0.2001953125 l 1,17,-1
 153.599609375 -77 l 1,18,-1
 204.799804688 -102.599609375 l 1,19,-1
 307.200195312 -102.599609375 l 1,20,-1
 358.400390625 -77 l 1,21,-1
 358.400390625 -0.064453125 l 1,22,-1
 358.400390625 511.799804688 l 1,4,-1
EndSplineSet
EndChar

StartChar: k
Encoding: 107 107 39
Width: 715
Flags: W
LayerCount: 2
Fore
SplineSet
0 716.599609375 m 1,0,-1
 153.599609375 716.599609375 l 1,1,-1
 153.599609375 307 l 1,2,-1
 204.799804688 307 l 1,3,-1
 460.799804688 511.799804688 l 1,4,-1
 614.400390625 511.799804688 l 1,5,-1
 614.400390625 460.599609375 l 1,6,-1
 358.400390625 255.799804688 l 1,7,-1
 614.400390625 51 l 1,8,-1
 614.400390625 -0.2001953125 l 1,9,-1
 460.799804688 -0.2001953125 l 1,10,-1
 204.799804688 204.599609375 l 1,11,-1
 153.599609375 204.599609375 l 1,12,-1
 153.599609375 -0.2001953125 l 1,13,-1
 0 -0.2001953125 l 1,14,-1
 0 716.599609375 l 1,0,-1
EndSplineSet
EndChar

StartChar: l
Encoding: 108 108 40
Width: 254
Flags: W
LayerCount: 2
Fore
SplineSet
0 716.599609375 m 1,0,-1
 153.599609375 716.599609375 l 1,1,-1
 153.599609375 -0.2001953125 l 1,2,-1
 0 -0.2001953125 l 1,3,-1
 0 716.599609375 l 1,0,-1
EndSplineSet
EndChar

StartChar: m
Encoding: 109 109 41
Width: 817
Flags: W
LayerCount: 2
Fore
SplineSet
0 510.799804688 m 1,0,-1
 512 511.799804688 l 2,1,2
 567.314168502 511.799804688 567.314168502 511.799804688 608.418857185 494.55543989 c 128,-1,3
 649.523545869 477.311075093 649.523545869 477.311075093 672.380703362 447.444499075 c 128,-1,4
 695.237860855 417.577923056 695.237860855 417.577923056 706.018832771 382.555684031 c 128,-1,5
 716.799804688 347.533445005 716.799804688 347.533445005 716.799804688 307 c 2,6,-1
 716.799804688 -0.2001953125 l 1,7,-1
 563.200195312 -0.2001953125 l 1,8,-1
 563.200195312 359 l 1,9,-1
 512 409.400390625 l 1,10,-1
 435.799804688 409.599609375 l 1,11,-1
 435.799804688 -0.2001953125 l 1,12,-1
 282.200195312 -0.2001953125 l 1,13,-1
 282.200195312 409.400390625 l 1,14,-1
 153.599609375 409.599609375 l 1,15,-1
 153.599609375 -0.2001953125 l 1,16,-1
 0 -0.2001953125 l 1,17,-1
 0 510.799804688 l 1,0,-1
EndSplineSet
EndChar

StartChar: n
Encoding: 110 110 42
Width: 715
Flags: W
LayerCount: 2
Fore
SplineSet
0 510.799804688 m 1,0,-1
 409.599609375 512.400390625 l 2,1,2
 464.918347085 512.184091607 464.918347085 512.184091607 506.019731635 494.809607512 c 128,-1,3
 547.121116185 477.435123418 547.121116185 477.435123418 569.980466729 447.518776887 c 128,-1,4
 592.839817274 417.602430357 592.839817274 417.602430357 603.620103949 382.565863616 c 128,-1,5
 614.400390625 347.529296875 614.400390625 347.529296875 614.400390625 307 c 2,6,-1
 614.400390625 -0.2001953125 l 1,7,-1
 460.799804688 -0.2001953125 l 1,8,-1
 460.799804688 359 l 1,9,-1
 409.599609375 409.400390625 l 1,10,-1
 153.599609375 409.099609375 l 1,11,-1
 153.599609375 -0.2001953125 l 1,12,-1
 0 -0.2001953125 l 1,13,-1
 0 510.799804688 l 1,0,-1
EndSplineSet
EndChar

StartChar: o
Encoding: 111 111 43
Width: 715
Flags: W
LayerCount: 2
Fore
SplineSet
307.200195312 409.400390625 m 128,-1,1
 153.599609375 409.400390625 153.599609375 409.400390625 153.599609375 255.799804688 c 128,-1,2
 153.599609375 102.200683594 153.599609375 102.200683594 307.200195312 102.200195312 c 128,-1,3
 460.799316406 102.200195312 460.799316406 102.200195312 460.799804688 255.799804688 c 128,-1,0
 460.799804688 409.400390625 460.799804688 409.400390625 307.200195312 409.400390625 c 128,-1,1
307.200195312 511.799804688 m 0,4,5
 373.563963175 511.799804688 373.563963175 511.799804688 428.460454027 496.671225114 c 128,-1,6
 483.356944879 481.542645541 483.356944879 481.542645541 525.460917433 451.205621199 c 128,-1,7
 567.564889987 420.868596858 567.564889987 420.868596858 590.982640306 371.004263444 c 128,-1,8
 614.400390625 321.139930031 614.400390625 321.139930031 614.400390625 255.799804688 c 0,9,10
 614.400390625 171.098221184 614.400390625 171.098221184 573.070407166 112.301817666 c 128,-1,11
 531.740423707 53.5054141475 531.740423707 53.5054141475 463.914944396 26.6526094175 c 128,-1,12
 396.089465086 -0.2001953125 396.089465086 -0.2001953125 307.200195312 -0.2001953125 c 0,13,14
 240.963882428 -0.2001953125 240.963882428 -0.2001953125 185.961179094 15.1608287908 c 128,-1,15
 130.958475761 30.5218528942 130.958475761 30.5218528942 88.9182306956 61.0906207941 c 128,-1,16
 46.8779856303 91.6593886941 46.8779856303 91.6593886941 23.4389928152 141.562409601 c 128,-1,17
 0 191.465430509 0 191.465430509 0 256.491210938 c 0,18,19
 0.364935552881 321.774403695 0.364935552881 321.774403695 23.9571063745 371.438475062 c 128,-1,20
 47.549277196 421.102546429 47.549277196 421.102546429 89.7126171363 451.230500768 c 128,-1,21
 131.875957077 481.358455108 131.875957077 481.358455108 186.479292654 496.425474573 c 128,-1,22
 241.082628231 511.492494039 241.082628231 511.492494039 307.200195312 511.799804688 c 0,4,5
EndSplineSet
EndChar

StartChar: r
Encoding: 114 114 44
Width: 612
Flags: W
LayerCount: 2
Fore
SplineSet
0 513 m 1,0,-1
 153.599609375 511.799804688 l 1,1,-1
 154 381.400390625 l 1,2,3
 188.951626359 413.718861337 188.951626359 413.718861337 204.09841892 426.301994639 c 128,-1,4
 219.245211481 438.885127941 219.245211481 438.885127941 249.546005519 457.613441152 c 128,-1,5
 279.846799557 476.341754363 279.846799557 476.341754363 316.500426976 487.927666026 c 128,-1,6
 353.154054396 499.513577689 353.154054396 499.513577689 409.599609375 511.799804688 c 1,7,-1
 512 511.799804688 l 1,8,-1
 512 380 l 1,9,-1
 408 379 l 1,10,11
 336.093610362 369.412481382 336.093610362 369.412481382 285.788534004 346.705405171 c 128,-1,12
 235.483457645 323.99832896 235.483457645 323.99832896 208.063028496 296.565102642 c 128,-1,13
 180.642599347 269.131876323 180.642599347 269.131876323 154 225.799804688 c 1,14,-1
 153.599609375 -0.2001953125 l 1,15,-1
 0 -0.2001953125 l 1,16,-1
 0 513 l 1,0,-1
EndSplineSet
EndChar

StartChar: t
Encoding: 116 116 45
Width: 664
Flags: W
LayerCount: 2
Fore
SplineSet
0 511.799804688 m 1,0,-1
 204.799804688 511.799804688 l 1,1,-1
 204.799804688 716.599609375 l 1,2,-1
 358.400390625 716.599609375 l 1,3,-1
 358.400390625 511.799804688 l 1,4,-1
 563.200195312 511.799804688 l 1,5,-1
 563.200195312 409.400390625 l 1,6,-1
 358.400390625 409.400390625 l 1,7,-1
 358.400390625 -0.2001953125 l 1,8,-1
 204.799804688 -0.2001953125 l 1,9,-1
 204.799804688 409.400390625 l 1,10,-1
 0 409.400390625 l 1,11,-1
 0 511.799804688 l 1,0,-1
EndSplineSet
EndChar

StartChar: u
Encoding: 117 117 46
Width: 715
Flags: W
LayerCount: 2
Fore
SplineSet
0 511.799804688 m 1,0,-1
 153.599609375 511.799804688 l 1,1,-1
 153.599609375 153.400390625 l 1,2,-1
 204.799804688 102.200195312 l 1,3,-1
 460.799804688 102.200195312 l 1,4,-1
 460.799804688 511.799804688 l 1,5,-1
 614.400390625 511.799804688 l 1,6,-1
 614.400390625 -0.2001953125 l 1,7,-1
 256 -0.2001953125 l 2,8,9
 138.280968118 -0.2001953125 138.280968118 -0.2001953125 69.1404840589 43.8230337912 c 128,-1,10
 0 87.8462628949 0 87.8462628949 0 176.092773438 c 2,11,-1
 0 511.799804688 l 1,0,-1
EndSplineSet
EndChar

StartChar: v
Encoding: 118 118 47
Width: 715
Flags: W
LayerCount: 2
Fore
SplineSet
0 511.799804688 m 1,0,-1
 153.599609375 511.799804688 l 1,1,2
 167.727384568 483.544523767 167.727384568 483.544523767 207.140716908 326.081937148 c 0,3,4
 252.934671654 143.127740243 252.934671654 143.127740243 287.655141436 110.969123878 c 0,5,6
 321.507484855 79.614579085 321.507484855 79.614579085 358.400390625 153.400390625 c 1,7,-1
 488 511.799804688 l 1,8,-1
 614.400390625 511.799804688 l 1,9,-1
 409.599609375 -0.2001953125 l 1,10,-1
 153.599609375 -0.2001953125 l 1,11,-1
 0 460.599609375 l 1,12,-1
 0 511.799804688 l 1,0,-1
EndSplineSet
EndChar

StartChar: w
Encoding: 119 119 48
Width: 817
Flags: W
LayerCount: 2
Fore
SplineSet
0 0.7998046875 m 1,0,-1
 0 511.799804688 l 1,1,-1
 153.599609375 511.799804688 l 1,2,-1
 153.599609375 102 l 1,3,-1
 282.200195312 102.200195312 l 1,4,-1
 282.200195312 511.799804688 l 1,5,-1
 435.799804688 511.799804688 l 1,6,-1
 435.799804688 102 l 1,7,-1
 512 102.200195312 l 1,8,-1
 563.200195312 152.599609375 l 1,9,-1
 563.200195312 511.799804688 l 1,10,-1
 716.799804688 511.799804688 l 1,11,-1
 716.799804688 204.599609375 l 2,12,13
 716.799804688 164.066510236 716.799804688 164.066510236 706.01882592 129.044333941 c 128,-1,14
 695.237847153 94.0221576456 695.237847153 94.0221576456 672.380710213 64.1554799021 c 128,-1,15
 649.523573272 34.2888021587 649.523573272 34.2888021587 608.418850334 17.0443034231 c 128,-1,16
 567.314127397 -0.2001953125 567.314127397 -0.2001953125 512 -0.2001953125 c 2,17,-1
 0 0.7998046875 l 1,0,-1
EndSplineSet
EndChar

StartChar: x
Encoding: 120 120 49
Width: 715
Flags: W
LayerCount: 2
Fore
SplineSet
0 511.799804688 m 1,0,-1
 153.599609375 511.799804688 l 1,1,-1
 307.200195312 359 l 1,2,-1
 460.799804688 511.799804688 l 1,3,-1
 614.400390625 511.799804688 l 1,4,-1
 614.400390625 460.599609375 l 1,5,-1
 409.599609375 255.799804688 l 1,6,-1
 614.400390625 51 l 1,7,-1
 614.400390625 -0.2001953125 l 1,8,-1
 460.799804688 -0.2001953125 l 1,9,-1
 307.200195312 153.400390625 l 1,10,-1
 153.599609375 -0.2001953125 l 1,11,-1
 0 -0.2001953125 l 1,12,-1
 0 51 l 1,13,-1
 204.799804688 255.799804688 l 1,14,-1
 0 460.599609375 l 1,15,-1
 0 511.799804688 l 1,0,-1
EndSplineSet
EndChar

StartChar: y
Encoding: 121 121 50
Width: 715
Flags: W
LayerCount: 2
Fore
SplineSet
0 511.799804688 m 1,0,-1
 153.599609375 511.799804688 l 1,1,-1
 153.599609375 153.400390625 l 1,2,-1
 204.799804688 102.200195312 l 1,3,-1
 460.799804688 102.200195312 l 1,4,-1
 460.799804688 511.799804688 l 1,5,-1
 614.400390625 511.799804688 l 1,6,-1
 614.400390625 -0.2001953125 l 2,7,8
 614.400390625 -76.6028751663 614.400390625 -76.6028751663 549.699991544 -140.801437583 c 128,-1,9
 484.999592463 -205 484.999592463 -205 409.599609375 -205 c 2,10,-1
 102.400390625 -205 l 1,11,-1
 102.400390625 -102.599609375 l 1,12,-1
 409.599609375 -102.599609375 l 1,13,-1
 460.799804688 -51.400390625 l 1,14,-1
 460.799804688 -0.2001953125 l 1,15,-1
 256 -0.2001953125 l 2,16,17
 137.640350877 -0.2001953125 137.640350877 -0.2001953125 68.8201754386 42.4784205316 c 128,-1,18
 0 85.1570363756 0 85.1570363756 0 173.092773438 c 2,19,-1
 0 511.799804688 l 1,0,-1
EndSplineSet
EndChar

StartChar: z
Encoding: 122 122 51
Width: 715
Flags: W
LayerCount: 2
Fore
SplineSet
0 511.799804688 m 1,0,-1
 614.400390625 511.799804688 l 1,1,-1
 614.400390625 409.400390625 l 1,2,-1
 200 103 l 1,3,-1
 614.400390625 102.200195312 l 1,4,-1
 614.400390625 -0.2001953125 l 1,5,-1
 0 -0.2001953125 l 1,6,-1
 0 103 l 1,7,-1
 409.599609375 409.400390625 l 1,8,-1
 0 410.200195312 l 1,9,-1
 0 511.799804688 l 1,0,-1
EndSplineSet
EndChar

StartChar: zero
Encoding: 48 48 52
Width: 715
Flags: W
LayerCount: 2
Fore
SplineSet
460.799804688 382.400390625 m 1,0,-1
 153.599609375 204.599609375 l 1,1,-1
 153.599609375 153.400390625 l 1,2,-1
 204.799804688 102.200195312 l 1,3,-1
 409.599609375 102.200195312 l 1,4,-1
 460.799804688 153.400390625 l 1,5,-1
 460.799804688 382.400390625 l 1,0,-1
409.599609375 614.200195312 m 1,6,-1
 204.799804688 614.200195312 l 1,7,-1
 153.599609375 563 l 1,8,-1
 153.599609375 333 l 1,9,-1
 460.799804688 511.799804688 l 1,10,-1
 460.799804688 563 l 1,11,-1
 409.599609375 614.200195312 l 1,6,-1
307.200195312 716.599609375 m 128,-1,13
 614.399902344 716.599609375 614.399902344 716.599609375 614.400390625 409.400390625 c 2,14,-1
 614.400390625 307 l 2,15,16
 614.400390625 -0.19970703125 614.400390625 -0.19970703125 307.200195312 -0.2001953125 c 128,-1,17
 0.00048828125 -0.2001953125 0.00048828125 -0.2001953125 0 307 c 2,18,-1
 0 409.400390625 l 2,19,12
 0 716.600097656 0 716.600097656 307.200195312 716.599609375 c 128,-1,13
EndSplineSet
EndChar

StartChar: one
Encoding: 49 49 53
Width: 510
Flags: W
LayerCount: 2
Fore
SplineSet
0 460.599609375 m 1,0,-1
 256 716.599609375 l 1,1,-1
 409.599609375 715.599609375 l 1,2,-1
 409.599609375 -1.2001953125 l 1,3,-1
 256 -0.2001953125 l 1,4,-1
 256 511.799804688 l 1,5,-1
 153.599609375 409.400390625 l 1,6,-1
 0 409.400390625 l 1,7,-1
 0 460.599609375 l 1,0,-1
EndSplineSet
EndChar

StartChar: two
Encoding: 50 50 54
Width: 715
Flags: W
LayerCount: 2
Fore
SplineSet
0 511.799804688 m 1,0,1
 0 541.057039222 0 541.057039222 0.773717116321 555.984174278 c 128,-1,2
 1.54743423264 570.911309334 1.54743423264 570.911309334 7.0980030003 596.585941771 c 128,-1,3
 12.648571768 622.260574207 12.648571768 622.260574207 23.5142418977 635.993478669 c 128,-1,4
 34.3799120274 649.726383131 34.3799120274 649.726383131 56.077594837 667.638875444 c 128,-1,5
 77.7752776467 685.551367757 77.7752776467 685.551367757 109.228527612 694.507589001 c 128,-1,6
 140.681777577 703.463810245 140.681777577 703.463810245 189.022201251 710.03170981 c 128,-1,7
 237.362624925 716.599609375 237.362624925 716.599609375 300 716.599609375 c 0,8,9
 464.087201851 716.599609375 464.087201851 716.599609375 539.243796238 670.618749847 c 128,-1,10
 614.400390625 624.63789032 614.400390625 624.63789032 614.400390625 511.799804688 c 2,11,-1
 614.400390625 489.599609375 l 2,12,13
 614.400390625 447.745226802 614.400390625 447.745226802 588.98693646 416.991521728 c 128,-1,14
 563.573482295 386.237816655 563.573482295 386.237816655 522.934346339 368.135066965 c 128,-1,15
 482.295210383 350.032317275 482.295210383 350.032317275 433.147605192 335.533977997 c 128,-1,16
 384 321.035638718 384 321.035638718 334.852394808 306.584245855 c 128,-1,17
 285.704789617 292.132852992 285.704789617 292.132852992 245.065653661 274.130119578 c 128,-1,18
 204.426517705 256.127386164 204.426517705 256.127386164 179.01306354 225.567590198 c 128,-1,19
 153.599609375 195.007794231 153.599609375 195.007794231 153.599609375 153.400390625 c 2,20,-1
 153.599609375 102.200195312 l 1,21,-1
 614.400390625 102.200195312 l 1,22,-1
 614.400390625 -0.2001953125 l 1,23,-1
 0 -0.2001953125 l 1,24,-1
 0 102.200195312 l 2,25,26
 0 206.344637087 0 206.344637087 77.9923628405 290.333053612 c 128,-1,27
 155.984725681 374.321470137 155.984725681 374.321470137 256 387.400390625 c 1,28,29
 344.059375903 412.553499283 344.059375903 412.553499283 460.799804688 460.599609375 c 1,30,-1
 460.799804688 563 l 1,31,-1
 409.599609375 614.200195312 l 1,32,-1
 204.799804688 614.200195312 l 1,33,-1
 153.599609375 563 l 1,34,-1
 153.599609375 511.799804688 l 1,35,-1
 0 511.799804688 l 1,0,1
EndSplineSet
EndChar

StartChar: three
Encoding: 51 51 55
Width: 715
Flags: W
LayerCount: 2
Fore
SplineSet
0 511.799804688 m 1,0,1
 0 556.276238595 0 556.276238595 17.3976149426 592.45185209 c 128,-1,2
 34.7952298851 628.627465585 34.7952298851 628.627465585 61.8601350574 651.152733847 c 128,-1,3
 88.9250402297 673.67800211 88.9250402297 673.67800211 123.868146193 688.96691459 c 128,-1,4
 158.811252155 704.25582707 158.811252155 704.25582707 191.754572557 710.427718222 c 128,-1,5
 224.697892959 716.599609375 224.697892959 716.599609375 256 716.599609375 c 2,6,-1
 358.400390625 716.599609375 l 2,7,8
 391.057075442 716.599609375 391.057075442 716.599609375 424.485472321 710.363256626 c 128,-1,9
 457.913869199 704.126903876 457.913869199 704.126903876 492.609230804 688.813876187 c 128,-1,10
 527.304592409 673.500848498 527.304592409 673.500848498 553.919128571 650.897959751 c 128,-1,11
 580.533664733 628.295071003 580.533664733 628.295071003 597.467027679 592.244438687 c 128,-1,12
 614.400390625 556.193806371 614.400390625 556.193806371 614.400390625 511.799804688 c 0,13,14
 614.400390625 487.36057437 614.400390625 487.36057437 608.394579799 466.117208152 c 128,-1,15
 602.388768972 444.873841935 602.388768972 444.873841935 595.02273791 431.439595233 c 128,-1,16
 587.656706848 418.005348532 587.656706848 418.005348532 573.946265273 404.431697446 c 128,-1,17
 560.235823699 390.858046361 560.235823699 390.858046361 552.385512794 385.163155708 c 128,-1,18
 544.535201889 379.468265054 544.535201889 379.468265054 529.497950748 370.071707574 c 128,-1,19
 514.460699606 360.675150093 514.460699606 360.675150093 512 359 c 1,20,21
 526.437880848 353.017954317 526.437880848 353.017954317 540.619082029 343.615489099 c 128,-1,22
 554.80028321 334.213023881 554.80028321 334.213023881 573.226743166 316.476719764 c 128,-1,23
 591.653203121 298.740415647 591.653203121 298.740415647 603.026796873 269.576884362 c 128,-1,24
 614.400390625 240.413353078 614.400390625 240.413353078 614.400390625 204.599609375 c 0,25,26
 614.400390625 160.48896103 614.400390625 160.48896103 597.476409575 124.538734387 c 128,-1,27
 580.552428525 88.5885077432 580.552428525 88.5885077432 553.909746675 65.9344921759 c 128,-1,28
 527.267064824 43.2804766087 527.267064824 43.2804766087 492.6186127 27.8732031366 c 128,-1,29
 457.970160576 12.4659296644 457.970160576 12.4659296644 424.476090425 6.13286717595 c 128,-1,30
 390.982020274 -0.2001953125 390.982020274 -0.2001953125 358.400390625 -0.2001953125 c 2,31,-1
 256 -0.2001953125 l 2,32,33
 224.814676927 -0.2001953125 224.814676927 -0.2001953125 191.769170553 6.1231715404 c 128,-1,34
 158.72366418 12.4465383933 158.72366418 12.4465383933 123.853548197 27.8828987721 c 128,-1,35
 88.9834322136 43.3192591509 88.9834322136 43.3192591509 61.8747330534 65.9247965404 c 128,-1,36
 34.7660338932 88.5303339299 34.7660338932 88.5303339299 17.3830169466 124.548430022 c 128,-1,37
 0 160.566526114 0 160.566526114 0 204.599609375 c 1,38,-1
 153.599609375 204.599609375 l 1,39,-1
 153.599609375 153.400390625 l 1,40,-1
 204.799804688 102.200195312 l 1,41,-1
 409.599609375 102.200195312 l 1,42,-1
 460.799804688 153.400390625 l 1,43,-1
 460.799804688 255.799804688 l 1,44,-1
 409.599609375 307 l 1,45,-1
 204.799804688 307 l 1,46,-1
 204.799804688 409.400390625 l 1,47,-1
 409.599609375 409.400390625 l 1,48,-1
 460.799804688 460.599609375 l 1,49,-1
 460.799804688 563 l 1,50,-1
 409.599609375 614.200195312 l 1,51,-1
 204.799804688 614.200195312 l 1,52,-1
 153.599609375 563 l 1,53,-1
 153.599609375 511.799804688 l 1,54,-1
 0 511.799804688 l 1,0,1
EndSplineSet
EndChar

StartChar: four
Encoding: 52 52 56
Width: 715
Flags: W
LayerCount: 2
Fore
SplineSet
460.799804688 563 m 1,0,-1
 153.599609375 359 l 1,1,-1
 153.599609375 307 l 1,2,-1
 460.799804688 307 l 1,3,-1
 460.799804688 563 l 1,0,-1
0 204.599609375 m 1,4,-1
 0 409.400390625 l 1,5,-1
 460.799804688 716.599609375 l 1,6,-1
 614.400390625 716.599609375 l 1,7,-1
 614.400390625 -0.2001953125 l 1,8,-1
 460.799804688 -0.2001953125 l 1,9,-1
 460.799804688 204.599609375 l 1,10,-1
 0 204.599609375 l 1,4,-1
EndSplineSet
EndChar

StartChar: five
Encoding: 53 53 57
Width: 715
Flags: W
LayerCount: 2
Fore
SplineSet
0 716.599609375 m 1,0,-1
 614.400390625 716.599609375 l 1,1,-1
 614.400390625 614.200195312 l 1,2,-1
 153.599609375 614.200195312 l 1,3,-1
 153.599609375 511.799804688 l 1,4,-1
 358.400390625 511.799804688 l 2,5,6
 433.280356445 511.799804688 433.280356445 511.799804688 484.480314738 493.986547953 c 128,-1,7
 535.680273031 476.173291219 535.680273031 476.173291219 563.520310872 440.813363546 c 128,-1,8
 591.360348714 405.453435872 591.360348714 405.453435872 602.88036967 361.186712748 c 128,-1,9
 614.400390625 316.919989624 614.400390625 316.919989624 614.400390625 255.799804688 c 128,-1,10
 614.400390625 194.679967651 614.400390625 194.679967651 602.880360175 150.413305562 c 128,-1,11
 591.360329725 106.146643473 591.360329725 106.146643473 563.520320367 70.786615092 c 128,-1,12
 535.680311008 35.4265867106 535.680311008 35.4265867106 484.480305244 17.613195699 c 128,-1,13
 433.280299479 -0.2001953125 433.280299479 -0.2001953125 358.400390625 -0.2001953125 c 2,14,-1
 256 -0.2001953125 l 2,15,16
 137.600219727 -0.2001953125 137.600219727 -0.2001953125 68.8001098633 39.1142603038 c 128,-1,17
 0 78.4287159201 0 78.4287159201 0 153.400390625 c 2,18,-1
 0 204.599609375 l 1,19,-1
 153.599609375 204.599609375 l 1,20,-1
 153.599609375 153.400390625 l 1,21,-1
 204.799804688 102.200195312 l 1,22,-1
 409.599609375 102.200195312 l 1,23,-1
 460.799804688 153.400390625 l 1,24,-1
 460.799804688 359 l 1,25,-1
 409.599609375 409.400390625 l 1,26,-1
 0 409.400390625 l 1,27,-1
 0 716.599609375 l 1,0,-1
EndSplineSet
EndChar

StartChar: six
Encoding: 54 54 58
Width: 715
Flags: W
LayerCount: 2
Fore
SplineSet
409.599609375 307 m 1,0,-1
 153.599609375 307 l 1,1,-1
 153.599609375 153.400390625 l 1,2,-1
 204.799804688 102.200195312 l 1,3,-1
 409.599609375 102.200195312 l 1,4,-1
 460.799804688 153.400390625 l 1,5,-1
 460.799804688 255.799804688 l 1,6,-1
 409.599609375 307 l 1,0,-1
358.400390625 716.599609375 m 2,7,-1
 512 716.599609375 l 1,8,-1
 512 614.200195312 l 1,9,-1
 358.400390625 614.200195312 l 1,10,11
 278.341956152 593.215743197 278.341956152 593.215743197 216.444617512 551.46262732 c 128,-1,12
 154.547278871 509.709511443 154.547278871 509.709511443 153.599609375 460.599609375 c 2,13,-1
 153.599609375 409.400390625 l 1,14,-1
 409.599609375 409.400390625 l 2,15,16
 464.914106097 409.400390625 464.914106097 409.400390625 506.019024804 392.155880398 c 128,-1,17
 547.123943511 374.911370171 547.123943511 374.911370171 569.981173561 345.044589572 c 128,-1,18
 592.838403611 315.177808974 592.838403611 315.177808974 603.619397118 280.155453152 c 128,-1,19
 614.400390625 245.133097331 614.400390625 245.133097331 614.400390625 204.599609375 c 128,-1,20
 614.400390625 164.06648763 614.400390625 164.06648763 603.619393693 129.044330173 c 128,-1,21
 592.83839676 94.0221727159 592.83839676 94.0221727159 569.981176986 64.1554836697 c 128,-1,22
 547.123957212 34.2887946235 547.123957212 34.2887946235 506.019021378 17.0442996555 c 128,-1,23
 464.914085544 -0.2001953125 464.914085544 -0.2001953125 409.599609375 -0.2001953125 c 2,24,-1
 204.799804688 -0.2001953125 l 2,25,26
 115.866449568 -0.2001953125 115.866449568 -0.2001953125 57.9332247839 61.9406370176 c 128,-1,27
 0 124.081469348 0 124.081469348 0 204.599609375 c 2,28,-1
 0 409.400390625 l 2,29,30
 0 466.563904313 0 466.563904313 27.5809064593 522.127380455 c 128,-1,31
 55.1618129185 577.690856597 55.1618129185 577.690856597 102.018947056 620.67257682 c 128,-1,32
 148.876081194 663.654297043 148.876081194 663.654297043 216.380955287 690.126953209 c 128,-1,33
 283.885829381 716.599609375 283.885829381 716.599609375 358.400390625 716.599609375 c 2,7,-1
EndSplineSet
EndChar

StartChar: seven
Encoding: 55 55 59
Width: 715
Flags: W
LayerCount: 2
Fore
SplineSet
0 716.599609375 m 1,0,-1
 614.400390625 716.599609375 l 1,1,-1
 614.400390625 614.200195312 l 2,2,3
 614.400390625 562.468181999 614.400390625 562.468181999 600.281828915 519.510911136 c 128,-1,4
 586.163267204 476.553640274 586.163267204 476.553640274 563.586007729 446.806494453 c 128,-1,5
 541.008748254 417.059348632 541.008748254 417.059348632 513.704569439 390.834469354 c 128,-1,6
 486.400390625 364.609590076 486.400390625 364.609590076 459.096211811 340.324869772 c 128,-1,7
 431.792032996 316.040149468 431.792032996 316.040149468 409.214773521 290.426385808 c 128,-1,8
 386.637514046 264.812622149 386.637514046 264.812622149 372.518952335 229.869051395 c 128,-1,9
 358.400390625 194.925480641 358.400390625 194.925480641 358.400390625 153.400390625 c 2,10,-1
 358.400390625 -0.2001953125 l 1,11,-1
 204.799804688 -0.2001953125 l 1,12,-1
 204.799804688 153.400390625 l 2,13,14
 204.799804688 205.384064759 204.799804688 205.384064759 218.918366398 248.278783088 c 128,-1,15
 233.036928108 291.173501418 233.036928108 291.173501418 255.614187584 320.045019982 c 128,-1,16
 278.191447059 348.916538546 278.191447059 348.916538546 305.495625873 373.367966306 c 128,-1,17
 332.799804688 397.819394066 332.799804688 397.819394066 360.103983502 418.26536437 c 128,-1,18
 387.408162316 438.711334673 387.408162316 438.711334673 409.985421791 459.049487352 c 128,-1,19
 432.562681267 479.387640031 432.562681267 479.387640031 446.681242977 505.738077562 c 128,-1,20
 460.799804688 532.088515094 460.799804688 532.088515094 460.799804688 563 c 2,21,-1
 460.799804688 614.200195312 l 1,22,-1
 153.599609375 614.200195312 l 1,23,-1
 153.599609375 511.799804688 l 1,24,-1
 0 511.799804688 l 1,25,-1
 0 716.599609375 l 1,0,-1
EndSplineSet
EndChar

StartChar: eight
Encoding: 56 56 60
Width: 715
Flags: W
LayerCount: 2
Fore
SplineSet
460.799804688 563 m 1,0,-1
 409.599609375 614.200195312 l 1,1,-1
 204.799804688 614.200195312 l 1,2,-1
 153.599609375 563 l 1,3,-1
 153.599609375 460.599609375 l 1,4,-1
 204.799804688 409.400390625 l 1,5,-1
 409.599609375 409.400390625 l 1,6,-1
 460.799804688 460.599609375 l 1,7,-1
 460.799804688 563 l 1,0,-1
614.400390625 511.799804688 m 0,8,9
 614.175490028 463.241972209 614.175490028 463.241972209 573.018477271 424.205946579 c 128,-1,10
 531.861464513 385.169920949 531.861464513 385.169920949 463.725585938 356.96484375 c 1,11,12
 536.79394693 328.182789917 536.79394693 328.182789917 575.597168777 293.528013336 c 128,-1,13
 614.400390625 258.873236754 614.400390625 258.873236754 614.400390625 204.599609375 c 0,14,15
 614.400390625 94.8856176259 614.400390625 94.8856176259 547.840249023 47.3427111567 c 128,-1,16
 481.280107422 -0.2001953125 481.280107422 -0.2001953125 358.400390625 -0.2001953125 c 2,17,-1
 256 -0.2001953125 l 2,18,19
 133.120283203 -0.2001953125 133.120283203 -0.2001953125 66.5601416016 47.3427111567 c 128,-1,20
 0 94.8856176259 0 94.8856176259 0 204.599609375 c 0,21,22
 0 258.407687335 0 258.407687335 34.9597772076 293.57014073 c 128,-1,23
 69.9195544151 328.732594125 69.9195544151 328.732594125 138.4453125 356.017578125 c 1,24,25
 0.418740258996 411.948520109 0.418740258996 411.948520109 0 511.799804688 c 0,26,27
 0 622.085783239 0 622.085783239 66.4194547691 669.342696307 c 128,-1,28
 132.838909538 716.599609375 132.838909538 716.599609375 256 716.599609375 c 2,29,-1
 358.400390625 716.599609375 l 2,30,31
 481.561481087 716.599609375 481.561481087 716.599609375 547.980935856 669.342696307 c 128,-1,32
 614.400390625 622.085783239 614.400390625 622.085783239 614.400390625 511.799804688 c 0,8,9
460.799804688 255.799804688 m 1,33,-1
 409.599609375 307 l 1,34,-1
 204.799804688 307 l 1,35,-1
 153.599609375 255.799804688 l 1,36,-1
 153.599609375 153.400390625 l 1,37,-1
 204.799804688 102.200195312 l 1,38,-1
 409.599609375 102.200195312 l 1,39,-1
 460.799804688 153.400390625 l 1,40,-1
 460.799804688 255.799804688 l 1,33,-1
EndSplineSet
EndChar

StartChar: nine
Encoding: 57 57 61
Width: 715
Flags: W
LayerCount: 2
Fore
SplineSet
204.799804688 409.400390625 m 1,0,-1
 460.799804688 409.400390625 l 1,1,-1
 460.799804688 563 l 1,2,-1
 409.599609375 614.200195312 l 1,3,-1
 204.799804688 614.200195312 l 1,4,-1
 153.599609375 563 l 1,5,-1
 153.599609375 460.599609375 l 1,6,-1
 204.799804688 409.400390625 l 1,0,-1
256 -0.2001953125 m 2,7,-1
 102.400390625 -0.2001953125 l 1,8,-1
 102.400390625 102.200195312 l 1,9,-1
 256 102.200195312 l 1,10,11
 336.05884721 123.184755612 336.05884721 123.184755612 397.955831307 164.93737716 c 128,-1,12
 459.852815404 206.689998708 459.852815404 206.689998708 460.799804688 255.799804688 c 2,13,-1
 460.799804688 307 l 1,14,-1
 204.799804688 307 l 2,15,16
 149.485677291 307 149.485677291 307 108.380954353 324.244498736 c 128,-1,17
 67.2762314155 341.488997471 67.2762314155 341.488997471 44.419094475 371.355675215 c 128,-1,18
 21.5619575345 401.222352958 21.5619575345 401.222352958 10.7809787672 436.244529253 c 128,-1,19
 0 471.266705548 0 471.266705548 0 511.799804688 c 128,-1,20
 0 552.333249693 0 552.333249693 10.7809719163 587.355488718 c 128,-1,21
 21.5619438327 622.377727744 21.5619438327 622.377727744 44.4191013258 652.244303762 c 128,-1,22
 67.276258819 682.11087978 67.276258819 682.11087978 108.380947502 699.355244578 c 128,-1,23
 149.485636186 716.599609375 149.485636186 716.599609375 204.799804688 716.599609375 c 2,24,-1
 409.599609375 716.599609375 l 2,25,26
 498.533197615 716.599609375 498.533197615 716.599609375 556.46679412 654.458999641 c 128,-1,27
 614.400390625 592.318389907 614.400390625 592.318389907 614.400390625 511.799804688 c 2,28,-1
 614.400390625 307 l 2,29,30
 614.400390625 249.836514938 614.400390625 249.836514938 586.819347459 194.272862353 c 128,-1,31
 559.238304294 138.709209768 559.238304294 138.709209768 512.381076735 95.7273207525 c 128,-1,32
 465.523849176 52.7454317371 465.523849176 52.7454317371 398.019023973 26.2726182123 c 128,-1,33
 330.51419877 -0.2001953125 330.51419877 -0.2001953125 256 -0.2001953125 c 2,7,-1
EndSplineSet
EndChar

StartChar: exclam
Encoding: 33 33 62
Width: 254
Flags: W
LayerCount: 2
Fore
SplineSet
153.599609375 716.599609375 m 1,0,-1
 153.599609375 204.599609375 l 1,1,-1
 0 204.599609375 l 1,2,-1
 0 716.599609375 l 1,3,-1
 153.599609375 716.599609375 l 1,0,-1
0 102.200195312 m 1,4,-1
 153.599609375 102.200195312 l 1,5,-1
 153.599609375 -0.2001953125 l 1,6,-1
 0 -0.2001953125 l 1,7,-1
 0 102.200195312 l 1,4,-1
EndSplineSet
EndChar

StartChar: quotedbl
Encoding: 34 34 63
Width: 510
Flags: W
LayerCount: 2
Fore
SplineSet
153.599609375 716.599609375 m 1,0,-1
 153.599609375 563 l 1,1,-1
 0 563 l 1,2,-1
 0 716.599609375 l 1,3,-1
 153.599609375 716.599609375 l 1,0,-1
409.599609375 716.599609375 m 1,4,-1
 409.599609375 563 l 1,5,-1
 256 563 l 1,6,-1
 256 716.599609375 l 1,7,-1
 409.599609375 716.599609375 l 1,4,-1
EndSplineSet
EndChar

StartChar: quotesingle
Encoding: 39 39 64
Width: 254
Flags: W
LayerCount: 2
Fore
SplineSet
153.599609375 716.599609375 m 1,0,-1
 153.599609375 563 l 1,1,-1
 0 563 l 1,2,-1
 0 716.599609375 l 1,3,-1
 153.599609375 716.599609375 l 1,0,-1
EndSplineSet
EndChar

StartChar: period
Encoding: 46 46 65
Width: 254
Flags: W
LayerCount: 2
Fore
SplineSet
153.599609375 153.400390625 m 1,0,-1
 153.599609375 -0.2001953125 l 1,1,-1
 0 -0.2001953125 l 1,2,-1
 0 153.400390625 l 1,3,-1
 153.599609375 153.400390625 l 1,0,-1
EndSplineSet
EndChar

StartChar: numbersign
Encoding: 35 35 66
Width: 817
Flags: W
LayerCount: 2
Fore
SplineSet
409.599609375 409.400390625 m 1,0,-1
 307.200195312 409.400390625 l 1,1,-1
 307.200195312 307 l 1,2,-1
 409.599609375 307 l 1,3,-1
 409.599609375 409.400390625 l 1,0,-1
153.599609375 716.599609375 m 1,4,-1
 307.200195312 716.599609375 l 1,5,-1
 307.200195312 511.799804688 l 1,6,-1
 409.599609375 511.799804688 l 1,7,-1
 409.599609375 716.599609375 l 1,8,-1
 563.200195312 716.599609375 l 1,9,-1
 563.200195312 511.799804688 l 1,10,-1
 716.799804688 511.799804688 l 1,11,-1
 716.799804688 409.400390625 l 1,12,-1
 563.200195312 409.400390625 l 1,13,-1
 563.200195312 307 l 1,14,-1
 716.799804688 307 l 1,15,-1
 716.799804688 204.599609375 l 1,16,-1
 563.200195312 204.599609375 l 1,17,-1
 563.200195312 -0.2001953125 l 1,18,-1
 409.599609375 -0.2001953125 l 1,19,-1
 409.599609375 204.599609375 l 1,20,-1
 307.200195312 204.599609375 l 1,21,-1
 307.200195312 -0.2001953125 l 1,22,-1
 153.599609375 -0.2001953125 l 1,23,-1
 153.599609375 204.599609375 l 1,24,-1
 0 204.599609375 l 1,25,-1
 0 307 l 1,26,-1
 153.599609375 307 l 1,27,-1
 153.599609375 409.400390625 l 1,28,-1
 0 409.400390625 l 1,29,-1
 0 511.799804688 l 1,30,-1
 153.599609375 511.799804688 l 1,31,-1
 153.599609375 716.599609375 l 1,4,-1
EndSplineSet
EndChar

StartChar: comma
Encoding: 44 44 67
Width: 356
Flags: W
LayerCount: 2
Fore
SplineSet
256 153.400390625 m 1,0,-1
 256 102.200195312 l 2,1,2
 256 25.4000651039 256 25.4000651039 191.99995931 -38.5997721355 c 128,-1,3
 127.99991862 -102.599609375 127.99991862 -102.599609375 51.2001953125 -102.599609375 c 2,4,-1
 0 -102.599609375 l 1,5,-1
 0 -0.2001953125 l 1,6,7
 37.7000325521 -0.2001953125 37.7000325521 -0.2001953125 70.0502115885 31.8991675916 c 128,-1,8
 102.400390625 63.9985304957 102.400390625 63.9985304957 102.400390625 102.200195312 c 2,9,-1
 102.400390625 153.400390625 l 1,10,-1
 256 153.400390625 l 1,0,-1
EndSplineSet
EndChar

StartChar: dollar
Encoding: 36 36 68
Width: 715
Flags: W
LayerCount: 2
Fore
SplineSet
153.599609375 614.200195312 m 2,0,-1
 231.799804688 614.200195312 l 1,1,-1
 231.799804688 716.599609375 l 1,2,-1
 385.400390625 716.599609375 l 1,3,-1
 385.400390625 614.200195312 l 1,4,-1
 614.400390625 614.200195312 l 1,5,-1
 614.400390625 511.799804688 l 1,6,-1
 204.799804688 511.799804688 l 1,7,-1
 153.599609375 483.495117188 l 1,8,-1
 153.599609375 437.599609375 l 1,9,-1
 204.799804688 409.400390625 l 1,10,-1
 460.799804688 409.400390625 l 2,11,12
 502.944189601 409.344523934 502.944189601 409.344523934 536.032744739 392.358480015 c 128,-1,13
 569.121299876 375.372436097 569.121299876 375.372436097 586.188038106 348.25721844 c 128,-1,14
 603.254776336 321.142000784 603.254776336 321.142000784 611.26568479 288.36648612 c 128,-1,15
 619.276593244 255.590971456 619.276593244 255.590971456 611.26568479 222.836618951 c 128,-1,16
 603.254776336 190.082266445 603.254776336 190.082266445 586.188038106 163.012133441 c 128,-1,17
 569.121299876 135.942000437 569.121299876 135.942000437 536.032744739 119.043365488 c 128,-1,18
 502.944189601 102.14473054 502.944189601 102.14473054 460.799804688 102.200195312 c 2,19,-1
 385.400390625 102 l 1,20,-1
 385.400390625 -0.2001953125 l 1,21,-1
 231.799804688 1 l 1,22,-1
 231.799804688 102.200195312 l 1,23,-1
 0 102.200195312 l 1,24,-1
 0 204.599609375 l 1,25,-1
 409.599609375 204.599609375 l 1,26,-1
 460.799804688 232.13671875 l 1,27,-1
 460.799804688 276.341796875 l 1,28,-1
 409.599609375 307 l 1,29,-1
 153.599609375 307 l 2,30,31
 111.361912747 307.165182535 111.361912747 307.165182535 78.2464059534 324.236392058 c 128,-1,32
 45.1308991598 341.307601581 45.1308991598 341.307601581 28.0901920787 368.466211919 c 128,-1,33
 11.0494849976 395.624822256 11.0494849976 395.624822256 3.08654580395 428.420207884 c 128,-1,34
 -4.87639338974 461.215593511 -4.87639338974 461.215593511 3.18234769095 493.948753373 c 128,-1,35
 11.2410887716 526.681913235 11.2410887716 526.681913235 28.3337556254 553.707955014 c 128,-1,36
 45.4264224791 580.733996792 45.4264224791 580.733996792 78.4876501691 597.548186226 c 128,-1,37
 111.548877859 614.36237566 111.548877859 614.36237566 153.599609375 614.200195312 c 2,0,-1
EndSplineSet
EndChar

StartChar: percent
Encoding: 37 37 69
Width: 715
Flags: W
LayerCount: 2
Fore
SplineSet
563.200195312 204.599609375 m 1,0,-1
 563.200195312 51 l 1,1,-1
 409.599609375 51 l 1,2,-1
 409.599609375 204.599609375 l 1,3,-1
 563.200195312 204.599609375 l 1,0,-1
51.2001953125 665.400390625 m 1,4,-1
 204.799804688 665.400390625 l 1,5,-1
 204.799804688 511.799804688 l 1,6,-1
 51.2001953125 511.799804688 l 1,7,-1
 51.2001953125 665.400390625 l 1,4,-1
0 51 m 1,8,-1
 0 123.400390625 l 1,9,-1
 487.799804688 666.400390625 l 1,10,-1
 614.400390625 666.400390625 l 1,11,-1
 614.400390625 591 l 1,12,-1
 127.599609375 51 l 1,13,-1
 0 51 l 1,8,-1
EndSplineSet
EndChar

StartChar: asciitilde
Encoding: 126 126 70
Width: 715
Flags: W
LayerCount: 2
Fore
SplineSet
0 614.200195312 m 1,0,1
 24.6649730461 639.346904276 24.6649730461 639.346904276 40.4049260673 653.150667111 c 128,-1,2
 56.1448790885 666.954429946 56.1448790885 666.954429946 81.9954035226 684.046369632 c 128,-1,3
 107.845927957 701.138309319 107.845927957 701.138309319 138.004901653 708.868959347 c 128,-1,4
 168.16387535 716.599609375 168.16387535 716.599609375 204.799804688 716.599609375 c 0,5,6
 221.283131071 716.213918918 221.283131071 716.213918918 230.322670526 715.328927985 c 128,-1,7
 239.362209982 714.443937051 239.362209982 714.443937051 259.885688238 710.340215692 c 128,-1,8
 280.409166495 706.236494333 280.409166495 706.236494333 299.846321649 695.10166358 c 128,-1,9
 319.283476803 683.966832828 319.283476803 683.966832828 337.200195312 666.400390625 c 0,10,11
 364.347545596 636.702975632 364.347545596 636.702975632 388.160890556 625.937118681 c 128,-1,12
 411.974235516 615.171261731 411.974235516 615.171261731 439.445081734 623.894546358 c 128,-1,13
 466.915927952 632.617830985 466.915927952 632.617830985 494.373445488 653.924301299 c 128,-1,14
 521.830963024 675.230771612 521.830963024 675.230771612 563.200195312 716.599609375 c 1,15,-1
 614.400390625 716.599609375 l 1,16,-1
 614.400390625 614.200195312 l 1,17,18
 588.800292969 588.600097656 588.800292969 588.600097656 573.828807286 575.533381144 c 128,-1,19
 558.857321603 562.466664632 558.857321603 562.466664632 532.571507045 544.866597493 c 128,-1,20
 506.285692487 527.266530355 506.285692487 527.266530355 476.228434971 519.533167521 c 128,-1,21
 446.171177455 511.799804688 446.171177455 511.799804688 409.599609375 511.799804688 c 0,22,23
 389.022243924 511.799804688 389.022243924 511.799804688 375.337809663 513.417669938 c 128,-1,24
 361.653375402 515.035535188 361.653375402 515.035535188 335.595784087 527.248671208 c 128,-1,25
 309.538192772 539.461807228 309.538192772 539.461807228 286 563 c 0,26,27
 255.529825038 592.34443229 255.529825038 592.34443229 229.968612318 602.909810121 c 128,-1,28
 204.407399598 613.475187952 204.407399598 613.475187952 176.037308093 604.606043761 c 128,-1,29
 147.667216587 595.736899571 147.667216587 595.736899571 120.181136732 574.515980775 c 128,-1,30
 92.6950568759 553.295061979 92.6950568759 553.295061979 51.2001953125 511.799804688 c 1,31,-1
 0 511.799804688 l 1,32,-1
 0 614.200195312 l 1,0,1
EndSplineSet
EndChar

StartChar: asciicircum
Encoding: 94 94 71
Width: 715
Flags: W
LayerCount: 2
Fore
SplineSet
0 563 m 1,0,-1
 256 819 l 1,1,-1
 358.400390625 819 l 1,2,-1
 614.400390625 563 l 1,3,-1
 614.400390625 511.799804688 l 1,4,-1
 488.799804688 511.799804688 l 1,5,-1
 307.200195312 688.400390625 l 1,6,-1
 129.599609375 511.799804688 l 1,7,-1
 0 511.799804688 l 1,8,-1
 0 563 l 1,0,-1
EndSplineSet
EndChar

StartChar: hyphen
Encoding: 45 45 72
Width: 715
Flags: W
LayerCount: 2
Fore
SplineSet
0 409.400390625 m 1,0,-1
 614.400390625 409.400390625 l 1,1,-1
 614.400390625 307.892578125 l 1,2,-1
 0 307 l 1,3,-1
 0 409.400390625 l 1,0,-1
EndSplineSet
EndChar

StartChar: braceleft
Encoding: 123 123 73
Width: 715
Flags: W
LayerCount: 2
Fore
SplineSet
0 307 m 1,0,-1
 0 409.400390625 l 1,1,-1
 121.271484375 409.400390625 l 2,2,3
 136.257261932 409.37332094 136.257261932 409.37332094 149.705890442 425.535293368 c 128,-1,4
 163.154518952 441.697265795 163.154518952 441.697265795 168.814453125 460.599609375 c 0,5,6
 178.40625 491.479838461 178.40625 491.479838461 178.40625 535.721679688 c 0,7,8
 178.40625 608.073242188 178.40625 608.073242188 190.91796875 636.603515625 c 0,9,10
 193.291152988 642.015075891 193.291152988 642.015075891 198.519593917 647.322490543 c 128,-1,11
 203.748034846 652.629905195 203.748034846 652.629905195 212.10005452 657.88251727 c 128,-1,12
 220.452074194 663.135129345 220.452074194 663.135129345 226.597015792 666.566349918 c 128,-1,13
 232.741957391 669.997570491 232.741957391 669.997570491 243.402476395 675.33645477 c 128,-1,14
 254.062995399 680.675339049 254.062995399 680.675339049 257.454101562 682.475585938 c 0,15,16
 290.123046875 699.817871094 290.123046875 699.817871094 352.678710938 709.88671875 c 0,17,18
 395.078613281 716.600097656 395.078613281 716.600097656 486.1328125 716.599609375 c 2,19,-1
 614.400390625 716.599609375 l 1,20,-1
 614.400390625 614.200195312 l 1,21,22
 416.558254116 614.200195312 416.558254116 614.200195312 394.666992188 609.538085938 c 128,-1,23
 372.771972656 604.876953125 372.771972656 604.876953125 362.345703125 595.366210938 c 128,-1,24
 351.920410156 585.856445312 351.920410156 585.856445312 351.919921875 562.733398438 c 0,25,26
 351.919921875 552.499271751 351.919921875 552.499271751 345.6640625 486.866210938 c 0,27,28
 342.189453125 449.944824219 342.189453125 449.944824219 327.592773438 427.008789062 c 1,29,30
 274.309264421 365.608125855 274.309264421 365.608125855 256 359 c 1,31,32
 260.275612795 355.453911848 260.275612795 355.453911848 274.727125173 344.012181794 c 128,-1,33
 289.178637551 332.570451741 289.178637551 332.570451741 295.412111277 327.027033293 c 128,-1,34
 301.645585004 321.483614846 301.645585004 321.483614846 311.478498464 310.36026529 c 128,-1,35
 321.311411923 299.236915735 321.311411923 299.236915735 328.287109375 287.340820312 c 0,36,37
 342.188476562 263.099121094 342.188476562 263.099121094 346.359375 222.448242188 c 0,38,39
 351.224609375 160.533336921 351.224609375 160.533336921 351.224609375 156.27734375 c 0,40,41
 351.224609375 131.662109375 351.224609375 131.662109375 362.345703125 121.965820312 c 128,-1,42
 373.466796875 112.270019531 373.466796875 112.270019531 396.056640625 107.234375 c 128,-1,43
 418.643805292 102.200195312 418.643805292 102.200195312 614.400390625 102.200195312 c 1,44,-1
 614.400390625 -0.2001953125 l 1,45,-1
 486.1328125 -0.2001953125 l 2,46,47
 392.297851562 -0.2001953125 392.297851562 -0.2001953125 342.252929688 7.818359375 c 0,48,49
 283.048653432 17.3044912163 283.048653432 17.3044912163 258.73046875 30.4833984375 c 0,50,51
 257.05591192 31.3909728776 257.05591192 31.3909728776 250.769388297 34.7603059997 c 128,-1,52
 244.482864675 38.1296391218 244.482864675 38.1296391218 241.720809909 39.6606888884 c 128,-1,53
 238.958755142 41.1917386551 238.958755142 41.1917386551 232.90422626 44.588669447 c 128,-1,54
 226.849697378 47.9856002389 226.849697378 47.9856002389 223.564993936 50.1194133826 c 128,-1,55
 220.280290495 52.2532265263 220.280290495 52.2532265263 215.160881353 55.5789734808 c 128,-1,56
 210.041472211 58.9047204353 210.041472211 58.9047204353 206.937245094 61.5425154488 c 128,-1,57
 203.833017977 64.1803104623 203.833017977 64.1803104623 200.351853575 67.3360920722 c 128,-1,58
 196.870689173 70.4918736821 196.870689173 70.4918736821 194.650063381 73.5348690582 c 128,-1,59
 192.429437588 76.5778644343 192.429437588 76.5778644343 191.151367188 79.54296875 c 0,60,61
 178.40625 109.106205742 178.40625 109.106205742 178.40625 166.87890625 c 0,62,63
 178.40625 233.187608021 178.40625 233.187608021 168.814453125 255.799804688 c 0,64,65
 163.635073623 276.210669548 163.635073623 276.210669548 150.330902115 291.605334774 c 128,-1,66
 137.026730607 307 137.026730607 307 121.271484375 307 c 2,67,-1
 0 307 l 1,0,-1
EndSplineSet
EndChar

StartChar: braceright
Encoding: 125 125 74
Width: 715
Flags: W
LayerCount: 2
Fore
SplineSet
614.400390625 307 m 1,0,-1
 493.12890625 307 l 2,1,2
 477.373660018 307 477.373660018 307 464.06948851 291.605334774 c 128,-1,3
 450.765317002 276.210669548 450.765317002 276.210669548 445.5859375 255.799804688 c 0,4,5
 437.999653821 237.918370671 437.999653821 237.918370671 435.994140625 166.87890625 c 0,6,7
 435.577751777 152.137447272 435.577751777 152.137447272 432.178602628 137.608886543 c 128,-1,8
 428.779453479 123.080325813 428.779453479 123.080325813 425.598588534 115.218780694 c 128,-1,9
 422.417723588 107.357235574 422.417723588 107.357235574 416.583937101 95.2844846872 c 128,-1,10
 410.750150614 83.2117338003 410.750150614 83.2117338003 409.599609375 80.54296875 c 0,11,12
 397.883779553 53.3624178618 397.883779553 53.3624178618 355.669921875 30.4833984375 c 0,13,14
 331.351737193 17.3044912163 331.351737193 17.3044912163 272.147460938 7.818359375 c 0,15,16
 222.101074219 -0.2001953125 222.101074219 -0.2001953125 128.267578125 -0.2001953125 c 2,17,-1
 0 -0.2001953125 l 1,18,-1
 0 102.200195312 l 1,19,20
 195.75560877 102.200195312 195.75560877 102.200195312 218.342773438 107.234375 c 128,-1,21
 240.93359375 112.269042969 240.93359375 112.269042969 252.053710938 121.965820312 c 128,-1,22
 263.174804688 131.663085938 263.174804688 131.663085938 263.174804688 156.27734375 c 0,23,24
 263.174804688 160.539550781 263.174804688 160.539550781 268.041015625 222.448242188 c 0,25,26
 272.211425781 263.099121094 272.211425781 263.099121094 286.112304688 287.340820312 c 0,27,28
 293.088341221 299.236907082 293.088341221 299.236907082 302.921406609 310.360206585 c 128,-1,29
 312.754471997 321.483506089 312.754471997 321.483506089 318.988230842 327.027091999 c 128,-1,30
 325.221989688 332.570677909 325.221989688 332.570677909 339.673176628 344.012123089 c 128,-1,31
 354.124363568 355.453568269 354.124363568 355.453568269 358.400390625 359 c 1,32,33
 340.091656428 365.607514856 340.091656428 365.607514856 286.807617188 427.008789062 c 1,34,35
 272.211914062 449.943847656 272.211914062 449.943847656 268.736328125 486.866210938 c 0,36,37
 262.48046875 552.499271751 262.48046875 552.499271751 262.48046875 562.733398438 c 0,38,39
 262.48046875 585.855957031 262.48046875 585.855957031 252.053710938 595.366210938 c 128,-1,40
 241.628417969 604.875976562 241.628417969 604.875976562 219.733398438 609.538085938 c 128,-1,41
 197.840671819 614.200195312 197.840671819 614.200195312 0 614.200195312 c 1,42,-1
 0 716.599609375 l 1,43,-1
 128.267578125 716.599609375 l 2,44,45
 219.320800781 716.599609375 219.320800781 716.599609375 261.720703125 709.88671875 c 0,46,47
 324.276855469 699.817382812 324.276855469 699.817382812 356.9453125 682.475585938 c 0,48,49
 401.070864857 659.051569511 401.070864857 659.051569511 409.599609375 639.603515625 c 0,50,51
 417.334215128 621.965426847 417.334215128 621.965426847 426.664177877 588.072950942 c 128,-1,52
 435.994140625 554.180475037 435.994140625 554.180475037 435.994140625 535.721679688 c 0,53,54
 435.994140625 491.479838461 435.994140625 491.479838461 445.5859375 460.599609375 c 0,55,56
 451.244876052 441.697802968 451.244876052 441.697802968 464.693924668 425.535561814 c 128,-1,57
 478.142973284 409.373320659 478.142973284 409.373320659 493.12890625 409.400390625 c 0,58,59
 496.257161458 409.400390625 496.257161458 409.400390625 522.426540799 409.621310764 c 128,-1,60
 548.595920139 409.842230903 548.595920139 409.842230903 573.981011285 409.842230903 c 128,-1,61
 599.366102431 409.842230903 599.366102431 409.842230903 614.400390625 409.400390625 c 1,62,-1
 614.400390625 307 l 1,0,-1
EndSplineSet
EndChar

StartChar: bar
Encoding: 124 124 75
Width: 254
Flags: W
LayerCount: 2
Fore
SplineSet
153.599609375 307 m 1,0,-1
 153.599609375 -0.2001953125 l 1,1,-1
 0 -0.2001953125 l 1,2,-1
 0 307 l 1,3,-1
 153.599609375 307 l 1,0,-1
0 716.599609375 m 1,4,-1
 153.599609375 716.599609375 l 1,5,-1
 153.599609375 409.400390625 l 1,6,-1
 0 409.400390625 l 1,7,-1
 0 716.599609375 l 1,4,-1
EndSplineSet
EndChar

StartChar: uni0018
Encoding: 24 24 76
Width: 600
Flags: W
LayerCount: 2
Fore
SplineSet
0 460.599609375 m 1,0,1
 51.3901735339 531.914014154 51.3901735339 531.914014154 92.9407309581 576.563479958 c 128,-1,2
 134.491288382 621.212945761 134.491288382 621.212945761 175.198510578 645.003536644 c 128,-1,3
 215.905732774 668.794127527 215.905732774 668.794127527 251.890835848 668.761152484 c 128,-1,4
 287.875938922 668.72817744 287.875938922 668.72817744 328.172324236 644.773718936 c 128,-1,5
 368.46870955 620.819260431 368.46870955 620.819260431 409.15799803 576.276207822 c 128,-1,6
 449.84728651 531.733155213 449.84728651 531.733155213 500 460.599609375 c 1,7,-1
 500 409.400390625 l 1,8,-1
 324 410.200195312 l 1,9,-1
 324 51 l 1,10,-1
 174 51 l 1,11,-1
 174 410.200195312 l 1,12,-1
 0 409.200195312 l 1,13,-1
 0 460.599609375 l 1,0,1
EndSplineSet
EndChar

StartChar: uni0019
Encoding: 25 25 77
Width: 600
Flags: W
LayerCount: 2
Fore
SplineSet
0 255.599609375 m 1,0,-1
 0 307 l 1,1,-1
 174 306 l 1,2,-1
 174 665.200195312 l 1,3,-1
 324 665.200195312 l 1,4,-1
 324 306 l 1,5,-1
 500 306.799804688 l 1,6,-1
 500 255.599609375 l 1,7,8
 449.847286404 184.466314615 449.847286404 184.466314615 409.157998009 139.923419216 c 128,-1,9
 368.468709613 95.3805238178 368.468709613 95.3805238178 328.172324257 71.4261494684 c 128,-1,10
 287.875938902 47.4717751191 287.875938902 47.4717751191 251.890835827 47.4388000758 c 128,-1,11
 215.905732752 47.4058250326 215.905732752 47.4058250326 175.1985106 71.1963317601 c 128,-1,12
 134.491288447 94.9868384876 134.491288447 94.9868384876 92.9407309367 139.636147081 c 128,-1,13
 51.3901734261 184.285455675 51.3901734261 184.285455675 0 255.599609375 c 1,0,-1
EndSplineSet
EndChar

StartChar: slash
Encoding: 47 47 78
Width: 817
Flags: W
LayerCount: 2
Fore
SplineSet
124.400390625 -0.2001953125 m 1,0,-1
 0 -0.2001953125 l 1,1,-1
 0 72.400390625 l 1,2,-1
 593.200195312 716.599609375 l 1,3,-1
 716.799804688 716.599609375 l 1,4,-1
 716.799804688 635.200195312 l 1,5,-1
 124.400390625 -0.2001953125 l 1,0,-1
EndSplineSet
EndChar

StartChar: ampersand
Encoding: 38 38 79
Width: 766
Flags: W
LayerCount: 2
Fore
SplineSet
665.599609375 102.200195312 m 1,0,-1
 665.599609375 0.134765625 l 1,1,-1
 570.514648438 -0.2001953125 l 1,2,3
 556.781820422 6.17060250034 556.781820422 6.17060250034 545.532506034 12.6710943519 c 128,-1,4
 534.283191645 19.1715862034 534.283191645 19.1715862034 522.741095529 28.1406400231 c 128,-1,5
 511.198999413 37.1096938428 511.198999413 37.1096938428 504.987146659 42.3298287269 c 128,-1,6
 498.775293904 47.549963611 498.775293904 47.549963611 484.574408029 60.5279681481 c 128,-1,7
 470.373522154 73.5059726853 470.373522154 73.5059726853 464.349609375 78.8564453125 c 1,8,9
 420.663574219 41.3696289062 420.663574219 41.3696289062 371.577148438 23.5634765625 c 0,10,11
 305.957582319 -0.2392578125 305.957582319 -0.2392578125 254.75390625 -0.2392578125 c 0,12,13
 125.88922378 -0.2392578125 125.88922378 -0.2392578125 52.521484375 77.919921875 c 0,14,15
 -0.00048828125 133.680664062 -0.00048828125 133.680664062 0 206.311523438 c 0,16,17
 0 272.381835938 0 272.381835938 41.2314453125 325.09765625 c 128,-1,18
 82.4638671875 377.812988281 82.4638671875 377.812988281 164.436523438 416.706054688 c 1,19,20
 127.622070312 458.41015625 127.622070312 458.41015625 108.969726562 496.130859375 c 128,-1,21
 90.3178710938 533.852050781 90.3178710938 533.852050781 90.3173828125 567.58984375 c 0,22,23
 90.3173828125 629.911621094 90.3173828125 629.911621094 142.59375 673.255859375 c 128,-1,24
 194.869628906 716.600585938 194.869628906 716.600585938 291.568359375 716.599609375 c 0,25,26
 384.830566406 716.599609375 384.830566406 716.599609375 437.352539062 671.147460938 c 128,-1,27
 489.873046875 625.694824219 489.873046875 625.694824219 489.874023438 560.092773438 c 0,28,29
 489.874023438 518.388671875 489.874023438 518.388671875 463.858398438 480.90234375 c 128,-1,30
 437.842773438 443.415527344 437.842773438 443.415527344 358.815429688 396.088867188 c 1,31,-1
 458.950195312 270.0390625 l 1,32,33
 471.405239721 291.177429753 471.405239721 291.177429753 489.3828125 359.166992188 c 1,34,-1
 618.057617188 359 l 1,35,-1
 617.717773438 307.024414062 l 1,36,37
 612.179100852 288.24103291 612.179100852 288.24103291 605.584043964 273.791919545 c 128,-1,38
 598.988987075 259.342806181 598.988987075 259.342806181 591.615500307 246.702872121 c 128,-1,39
 584.242013539 234.062938062 584.242013539 234.062938062 581.6640625 228.569335938 c 0,40,41
 567.919433594 199.282714844 567.919433594 199.282714844 552.211914062 179.602539062 c 1,42,43
 575.283203125 158.984863281 575.283203125 158.984863281 611.8515625 134.383789062 c 0,44,45
 646.588739234 111.015092296 646.588739234 111.015092296 665.599609375 102.200195312 c 1,0,-1
290.095703125 475.279296875 m 1,46,-1
 327.400390625 502.45703125 l 2,47,48
 368.6328125 532.915527344 368.6328125 532.915527344 368.6328125 562.904296875 c 0,49,50
 368.6328125 588.208007812 368.6328125 588.208007812 348.752929688 606.013671875 c 128,-1,51
 328.873535156 623.8203125 328.873535156 623.8203125 295.00390625 623.8203125 c 0,52,53
 262.116699219 623.8203125 262.116699219 623.8203125 243.463867188 608.123046875 c 128,-1,54
 224.812011719 592.424316406 224.812011719 592.424316406 224.811523438 571.807617188 c 0,55,56
 224.811523438 547.44140625 224.811523438 547.44140625 256.2265625 512.765625 c 2,57,-1
 290.095703125 475.279296875 l 1,46,-1
236.1015625 332.361328125 m 1,58,59
 188.48828125 309.399902344 188.48828125 309.399902344 164.927734375 277.068359375 c 128,-1,60
 141.365722656 244.734863281 141.365722656 244.734863281 141.366210938 210.998046875 c 0,61,62
 141.366210938 168.356445312 141.366210938 168.356445312 170.572265625 141.413085938 c 128,-1,63
 199.778320312 114.46875 199.778320312 114.46875 248.86328125 114.469726562 c 0,64,65
 281.259765625 114.469726562 281.259765625 114.469726562 311.202148438 126.65234375 c 128,-1,66
 341.145019531 138.835449219 341.145019531 138.835449219 376.486328125 166.950195312 c 1,67,-1
 236.1015625 332.361328125 l 1,58,59
EndSplineSet
EndChar

StartChar: parenleft
Encoding: 40 40 80
Width: 459
Flags: W
LayerCount: 2
Fore
SplineSet
256 716.599609375 m 2,0,-1
 358.400390625 716.599609375 l 1,1,-1
 358.400390625 666.400390625 l 1,2,3
 308.380485543 666.400390625 308.380485543 666.400390625 260.5617555 621.798025174 c 128,-1,4
 212.743025458 577.195659722 212.743025458 577.195659722 183.171317416 505.46890191 c 128,-1,5
 153.599609375 433.742144097 153.599609375 433.742144097 153.599609375 359 c 0,6,7
 153.599609375 283.533159722 153.599609375 283.533159722 183.186684902 211.666493056 c 128,-1,8
 212.773760429 139.799826389 212.773760429 139.799826389 260.546388014 95.3999131944 c 128,-1,9
 308.3190156 51 308.3190156 51 358.400390625 51 c 1,10,-1
 358.400390625 -0.2001953125 l 1,11,-1
 256 -0.2001953125 l 2,12,13
 217.297821661 -0.2001953125 217.297821661 -0.2001953125 172.749496563 27.6019686818 c 128,-1,14
 128.201171464 55.4041326761 128.201171464 55.4041326761 89.650192158 101.710470283 c 128,-1,15
 51.099212852 148.01680789 51.099212852 148.01680789 25.549606426 216.727212822 c 128,-1,16
 0 285.437617755 0 285.437617755 0 359 c 0,17,18
 0 431.997513995 0 431.997513995 25.5533215038 500.353691297 c 128,-1,19
 51.1066430076 568.7098686 51.1066430076 568.7098686 89.6464770802 614.883552355 c 128,-1,20
 128.186311153 661.05723611 128.186311153 661.05723611 172.753211641 688.828422743 c 128,-1,21
 217.320112128 716.599609375 217.320112128 716.599609375 256 716.599609375 c 2,0,-1
EndSplineSet
EndChar

StartChar: parenright
Encoding: 41 41 81
Width: 459
Flags: W
LayerCount: 2
Fore
SplineSet
102.400390625 716.599609375 m 2,0,1
 141.079937273 716.599609375 141.079937273 716.599609375 185.646771162 688.828415894 c 128,-1,2
 230.213605051 661.057222413 230.213605051 661.057222413 268.753543169 614.883559204 c 128,-1,3
 307.293481288 568.709895994 307.293481288 568.709895994 332.846935957 500.353684449 c 128,-1,4
 358.400390625 431.997472904 358.400390625 431.997472904 358.400390625 359 c 0,5,6
 358.400390625 285.437659061 358.400390625 285.437659061 332.850651028 216.727219707 c 128,-1,7
 307.300911432 148.016780353 307.300911432 148.016780353 268.749828098 101.710463399 c 128,-1,8
 230.198744763 55.4041464448 230.198744763 55.4041464448 185.650486234 27.6019755661 c 128,-1,9
 141.102227704 -0.2001953125 141.102227704 -0.2001953125 102.400390625 -0.2001953125 c 2,10,-1
 0 -0.2001953125 l 1,11,-1
 0 51 l 1,12,13
 50.0813532336 51 50.0813532336 51 97.8537530219 95.3999262492 c 128,-1,14
 145.62615281 139.799852498 145.62615281 139.799852498 175.212978749 211.666480001 c 128,-1,15
 204.799804688 283.533107503 204.799804688 283.533107503 204.799804688 359 c 0,16,17
 204.799804688 433.742196215 204.799804688 433.742196215 175.228346161 505.468914939 c 128,-1,18
 145.656887635 577.195633663 145.656887635 577.195633663 97.8383856095 621.798012144 c 128,-1,19
 50.0198835838 666.400390625 50.0198835838 666.400390625 0 666.400390625 c 1,20,-1
 0 716.599609375 l 1,21,-1
 102.400390625 716.599609375 l 2,0,1
EndSplineSet
EndChar

StartChar: asterisk
Encoding: 42 42 82
Width: 715
Flags: W
LayerCount: 2
Fore
SplineSet
0 307 m 1,0,-1
 0 408 l 1,1,-1
 204.799804688 409.400390625 l 1,2,-1
 102.400390625 563 l 1,3,-1
 204.799804688 614.200195312 l 1,4,-1
 307.200195312 460.599609375 l 1,5,-1
 409.599609375 614.200195312 l 1,6,-1
 512 563 l 1,7,-1
 409.599609375 409.400390625 l 1,8,-1
 614.400390625 409 l 1,9,-1
 614.400390625 305.799804688 l 1,10,-1
 409.599609375 307 l 1,11,-1
 512 153.400390625 l 1,12,-1
 409.599609375 102.200195312 l 1,13,-1
 307.200195312 255.799804688 l 1,14,-1
 204.799804688 102.200195312 l 1,15,-1
 102.400390625 153.400390625 l 1,16,-1
 204.799804688 307 l 1,17,-1
 0 307 l 1,0,-1
EndSplineSet
EndChar

StartChar: plus
Encoding: 43 43 83
Width: 715
Flags: W
LayerCount: 2
Fore
SplineSet
231.799804688 614.200195312 m 1,0,-1
 385.400390625 614.200195312 l 1,1,-1
 385.400390625 409.400390625 l 1,2,-1
 614.400390625 409.400390625 l 1,3,-1
 614.400390625 307 l 1,4,-1
 385.400390625 307 l 1,5,-1
 385.400390625 102.200195312 l 1,6,-1
 231.799804688 102.200195312 l 1,7,-1
 231.799804688 307 l 1,8,-1
 0 307 l 1,9,-1
 0 409.400390625 l 1,10,-1
 231.799804688 409.400390625 l 1,11,-1
 231.799804688 614.200195312 l 1,0,-1
EndSplineSet
EndChar

StartChar: colon
Encoding: 58 58 84
Width: 254
Flags: W
LayerCount: 2
Fore
SplineSet
0 512.599609375 m 1,0,-1
 153.599609375 512.599609375 l 1,1,-1
 153.599609375 359 l 1,2,-1
 0 359 l 1,3,-1
 0 512.599609375 l 1,0,-1
153.599609375 153.400390625 m 1,4,-1
 153.599609375 -0.2001953125 l 1,5,-1
 0 -0.2001953125 l 1,6,-1
 0 153.400390625 l 1,7,-1
 153.599609375 153.400390625 l 1,4,-1
EndSplineSet
EndChar

StartChar: semicolon
Encoding: 59 59 85
Width: 356
Flags: W
LayerCount: 2
Fore
SplineSet
102.400390625 511.799804688 m 1,0,-1
 256 511.799804688 l 1,1,-1
 256 359 l 1,2,-1
 102.400390625 359 l 1,3,-1
 102.400390625 511.799804688 l 1,0,-1
256 153.400390625 m 1,4,-1
 256 102.200195312 l 2,5,6
 256 66.1579506998 256 66.1579506998 231.2762501 27.3930446804 c 128,-1,7
 206.552500199 -11.3718613389 206.552500199 -11.3718613389 172.723978782 -38.9928371609 c 128,-1,8
 138.895457365 -66.6138129829 138.895457365 -66.6138129829 104.876439309 -84.6067111789 c 128,-1,9
 70.8574212523 -102.599609375 70.8574212523 -102.599609375 51.2001953125 -102.599609375 c 2,10,-1
 0 -102.599609375 l 1,11,-1
 0 -0.2001953125 l 1,12,13
 38.4001464844 -0.2001953125 38.4001464844 -0.2001953125 70.4002685547 31.7999267578 c 128,-1,14
 102.400390625 63.8000488281 102.400390625 63.8000488281 102.400390625 102.200195312 c 2,15,-1
 102.400390625 153.400390625 l 1,16,-1
 256 153.400390625 l 1,4,-1
EndSplineSet
EndChar

StartChar: less
Encoding: 60 60 86
Width: 612
Flags: W
LayerCount: 2
Fore
SplineSet
358.400390625 716.599609375 m 1,0,-1
 512 716.599609375 l 1,1,-1
 512 666.400390625 l 1,2,-1
 160.799804688 359 l 1,3,-1
 512 51 l 1,4,-1
 512 -0.2001953125 l 1,5,-1
 358.400390625 -0.2001953125 l 1,6,-1
 0 307 l 1,7,-1
 0 409.400390625 l 1,8,-1
 358.400390625 716.599609375 l 1,0,-1
EndSplineSet
EndChar

StartChar: equal
Encoding: 61 61 87
Width: 715
Flags: W
LayerCount: 2
Fore
SplineSet
614.400390625 307 m 1,0,-1
 614.400390625 204.599609375 l 1,1,-1
 0 204.599609375 l 1,2,-1
 0 307 l 1,3,-1
 614.400390625 307 l 1,0,-1
0 511.799804688 m 1,4,-1
 614.400390625 511.799804688 l 1,5,-1
 614.400390625 409.400390625 l 1,6,-1
 0 409.400390625 l 1,7,-1
 0 511.799804688 l 1,4,-1
EndSplineSet
EndChar

StartChar: greater
Encoding: 62 62 88
Width: 612
Flags: W
LayerCount: 2
Fore
SplineSet
153.599609375 716.599609375 m 1,0,-1
 512 409.400390625 l 1,1,-1
 512 307 l 1,2,-1
 153.599609375 -0.2001953125 l 1,3,-1
 0 -0.2001953125 l 1,4,-1
 0 51 l 1,5,-1
 351.200195312 359 l 1,6,-1
 0 666.400390625 l 1,7,-1
 0 716.599609375 l 1,8,-1
 153.599609375 716.599609375 l 1,0,-1
EndSplineSet
EndChar

StartChar: question
Encoding: 63 63 89
Width: 715
Flags: W
LayerCount: 2
Fore
SplineSet
358.400390625 204.599609375 m 1,0,-1
 204.799804688 204.599609375 l 1,1,2
 204.662956587 210.505531337 204.662956587 210.505531337 204.532962857 214.945270568 c 128,-1,3
 204.402969128 219.3850098 204.402969128 219.3850098 204.33463663 221.110713929 c 128,-1,4
 204.266304132 222.836418058 204.266304132 222.836418058 204.224948941 224.280628234 c 128,-1,5
 204.18359375 225.724838411 204.18359375 225.724838411 204.18359375 227.020507812 c 0,6,7
 204.18359375 278.805725882 204.18359375 278.805725882 223.435546875 323 c 0,8,9
 234.418917313 348.214220364 234.418917313 348.214220364 249.961519363 363.575153527 c 128,-1,10
 265.504121414 378.93608669 265.504121414 378.93608669 303.568359375 399.1015625 c 0,11,12
 331.23719431 413.760222982 331.23719431 413.760222982 365.008959382 425.938954414 c 128,-1,13
 398.780724454 438.117685847 398.780724454 438.117685847 411.599609375 444.4921875 c 0,14,15
 437.565791192 459.669069057 437.565791192 459.669069057 449.18279794 473.58221763 c 128,-1,16
 460.799804688 487.495366202 460.799804688 487.495366202 460.799804688 511.799804688 c 0,17,18
 460.799804688 553.399917602 460.799804688 553.399917602 420.266479492 583.800056457 c 128,-1,19
 379.733154297 614.200195312 379.733154297 614.200195312 307.200195312 614.200195312 c 128,-1,20
 234.666585286 614.200195312 234.666585286 614.200195312 194.133097331 583.800079346 c 128,-1,21
 153.599609375 553.399963379 153.599609375 553.399963379 153.599609375 511.799804688 c 1,22,-1
 0 511.799804688 l 1,23,24
 0 546.01161735 0 546.01161735 0.655345229325 559.162194788 c 128,-1,25
 1.31069045865 572.312772226 1.31069045865 572.312772226 5.72693321306 593.989202917 c 128,-1,26
 10.1431759675 615.665633608 10.1431759675 615.665633608 21.0093796532 631.55947262 c 128,-1,27
 31.8755833388 647.453311633 31.8755833388 647.453311633 51.2001953125 666.400390625 c 0,28,29
 84.5527415139 699.100886246 84.5527415139 699.100886246 164.511547599 712.461921708 c 128,-1,30
 244.470353685 725.822957169 244.470353685 725.822957169 307.200195312 725.599609375 c 0,31,32
 365.381909668 725.39359065 365.381909668 725.39359065 443.533131813 710.327289794 c 128,-1,33
 521.684353959 695.260988938 521.684353959 695.260988938 555.200195312 662.400390625 c 0,34,35
 591.256575533 627.048102224 591.256575533 627.048102224 602.828483079 592.814350329 c 128,-1,36
 614.400390625 558.580598435 614.400390625 558.580598435 614.400390625 511.799804688 c 0,37,38
 614.400390625 467.879512001 614.400390625 467.879512001 582.025390625 427.715820312 c 0,39,40
 575.839164459 420.041328253 575.839164459 420.041328253 565.732123227 411.972269246 c 128,-1,41
 555.625081995 403.903210239 555.625081995 403.903210239 539.90905646 394.478488566 c 128,-1,42
 524.193030925 385.053766893 524.193030925 385.053766893 512.208248227 378.373269246 c 128,-1,43
 500.223465529 371.692771599 500.223465529 371.692771599 477.954478335 359.834176066 c 128,-1,44
 455.685491141 347.975580534 455.685491141 347.975580534 444.799804688 342 c 0,45,46
 397.612900351 319.629499596 397.612900351 319.629499596 368.424804688 285.506835938 c 0,47,48
 356.91821355 272.054509023 356.91821355 272.054509023 358.400390625 204.599609375 c 1,0,-1
204.799804688 -0.2001953125 m 1,49,-1
 204.799804688 102.200195312 l 1,50,-1
 358.400390625 102.200195312 l 1,51,-1
 358.400390625 -0.2001953125 l 1,52,-1
 204.799804688 -0.2001953125 l 1,49,-1
EndSplineSet
EndChar

StartChar: at
Encoding: 64 64 90
Width: 766
Flags: W
LayerCount: 2
Fore
SplineSet
0 460.599609375 m 2,0,1
 0 575.799874442 0 575.799874442 70.4000592912 646.199741909 c 128,-1,2
 140.800118582 716.599609375 140.800118582 716.599609375 256 716.599609375 c 2,3,-1
 409.599609375 716.599609375 l 2,4,5
 524.800048828 716.599609375 524.800048828 716.599609375 595.199829102 646.199829102 c 128,-1,6
 665.599609375 575.800048828 665.599609375 575.800048828 665.599609375 460.599609375 c 2,7,-1
 665.599609375 204.599609375 l 1,8,-1
 307.200195312 204.599609375 l 1,9,-1
 307.200195312 511.799804688 l 1,10,-1
 512 511.799804688 l 1,11,-1
 513.200195312 563 l 1,12,-1
 462 614.200195312 l 1,13,-1
 204.799804688 614.200195312 l 1,14,-1
 154.799804688 563 l 1,15,-1
 154.799804688 153.400390625 l 1,16,-1
 204.799804688 102.200195312 l 1,17,-1
 554.799804688 102.200195312 l 1,18,-1
 554.799804688 -0.2001953125 l 1,19,-1
 254.799804688 -0.2001953125 l 2,20,21
 140.996578342 -0.2001953125 140.996578342 -0.2001953125 70.498289171 68.938977668 c 128,-1,22
 0 138.078150649 0 138.078150649 0 254.799804688 c 2,23,-1
 0 460.599609375 l 2,0,1
EndSplineSet
EndChar

StartChar: bracketleft
Encoding: 91 91 91
Width: 510
Flags: W
LayerCount: 2
Fore
SplineSet
409.599609375 716.599609375 m 1,0,-1
 409.599609375 614.200195312 l 1,1,-1
 153.599609375 614.200195312 l 1,2,-1
 153.599609375 102.200195312 l 1,3,-1
 409.599609375 102.200195312 l 1,4,-1
 409.599609375 -0.2001953125 l 1,5,-1
 0 -0.2001953125 l 1,6,-1
 0 716.599609375 l 1,7,-1
 409.599609375 716.599609375 l 1,0,-1
EndSplineSet
EndChar

StartChar: backslash
Encoding: 92 92 92
Width: 817
Flags: W
LayerCount: 2
Fore
SplineSet
590.200195312 -0.2001953125 m 1,0,-1
 0 638 l 1,1,-1
 0 716.599609375 l 1,2,-1
 125.400390625 716.599609375 l 1,3,-1
 716.799804688 76.2001953125 l 1,4,-1
 716.799804688 -0.2001953125 l 1,5,-1
 590.200195312 -0.2001953125 l 1,0,-1
EndSplineSet
EndChar

StartChar: bracketright
Encoding: 93 93 93
Width: 510
Flags: W
LayerCount: 2
Fore
SplineSet
0 716.599609375 m 1,0,-1
 409.599609375 716.599609375 l 1,1,-1
 409.599609375 -0.2001953125 l 1,2,-1
 0 -0.2001953125 l 1,3,-1
 0 102.200195312 l 1,4,-1
 256 102.200195312 l 1,5,-1
 256 614.200195312 l 1,6,-1
 0 614.200195312 l 1,7,-1
 0 716.599609375 l 1,0,-1
EndSplineSet
EndChar

StartChar: underscore
Encoding: 95 95 95
Width: 715
Flags: W
LayerCount: 2
Fore
SplineSet
0 -0.2001953125 m 1,0,-1
 614.400390625 -0.2001953125 l 1,1,-1
 614.400390625 -102.599609375 l 1,2,-1
 0 -102.599609375 l 1,3,-1
 0 -0.2001953125 l 1,0,-1
EndSplineSet
EndChar

StartChar: grave
Encoding: 96 96 96
Width: 408
Flags: W
LayerCount: 2
Fore
SplineSet
153.599609375 819 m 1,0,-1
 307.200195312 563 l 1,1,-1
 307.200195312 511.799804688 l 1,2,-1
 204.799804688 511.799804688 l 1,3,-1
 0 716.599609375 l 1,4,-1
 0 819 l 1,5,-1
 153.599609375 819 l 1,0,-1
EndSplineSet
EndChar

StartChar: uni0013
Encoding: 19 19 97
Width: 800
Flags: W
LayerCount: 2
Fore
SplineSet
0 716.599609375 m 1,0,-1
 700 716.599609375 l 1,1,-1
 700 -0.2001953125 l 1,2,-1
 0 -0.2001953125 l 1,3,-1
 0 716.599609375 l 1,0,-1
100 523.799804688 m 1,4,-1
 262 358.200195312 l 1,5,-1
 100 192.599609375 l 1,6,-1
 100 102.200195312 l 1,7,-1
 188 102.200195312 l 1,8,-1
 350 267.799804688 l 1,9,-1
 512 102.200195312 l 1,10,-1
 600 102.200195312 l 1,11,-1
 600 192.599609375 l 1,12,-1
 438 358.200195312 l 1,13,-1
 600 523.799804688 l 1,14,-1
 600 614.200195312 l 1,15,-1
 512 614.200195312 l 1,16,-1
 350 449.400390625 l 1,17,-1
 188 614.200195312 l 1,18,-1
 100 614.200195312 l 1,19,-1
 100 523.799804688 l 1,4,-1
EndSplineSet
EndChar

StartChar: uni0014
Encoding: 20 20 98
Width: 800
Flags: W
LayerCount: 2
Fore
SplineSet
0 716.599609375 m 1,0,-1
 700 716.599609375 l 1,1,-1
 700 -0.2001953125 l 1,2,-1
 0 -0.2001953125 l 1,3,-1
 0 716.599609375 l 1,0,-1
100 523.799804688 m 1,4,-1
 262 358.200195312 l 1,5,-1
 100 192.599609375 l 1,6,-1
 100 102.200195312 l 1,7,-1
 188 102.200195312 l 1,8,-1
 350 267.799804688 l 1,9,-1
 512 102.200195312 l 1,10,-1
 600 102.200195312 l 1,11,-1
 600 192.599609375 l 1,12,-1
 438 358.200195312 l 1,13,-1
 600 523.799804688 l 1,14,-1
 600 614.200195312 l 1,15,-1
 512 614.200195312 l 1,16,-1
 350 449.400390625 l 1,17,-1
 188 614.200195312 l 1,18,-1
 100 614.200195312 l 1,19,-1
 100 523.799804688 l 1,4,-1
EndSplineSet
EndChar

StartChar: uni0015
Encoding: 21 21 99
Width: 800
Flags: W
LayerCount: 2
Fore
SplineSet
0 716.599609375 m 1,0,-1
 700 716.599609375 l 1,1,-1
 700 -0.2001953125 l 1,2,-1
 0 -0.2001953125 l 1,3,-1
 0 716.599609375 l 1,0,-1
100 523.799804688 m 1,4,-1
 262 358.200195312 l 1,5,-1
 100 192.599609375 l 1,6,-1
 100 102.200195312 l 1,7,-1
 188 102.200195312 l 1,8,-1
 350 267.799804688 l 1,9,-1
 512 102.200195312 l 1,10,-1
 600 102.200195312 l 1,11,-1
 600 192.599609375 l 1,12,-1
 438 358.200195312 l 1,13,-1
 600 523.799804688 l 1,14,-1
 600 614.200195312 l 1,15,-1
 512 614.200195312 l 1,16,-1
 350 449.400390625 l 1,17,-1
 188 614.200195312 l 1,18,-1
 100 614.200195312 l 1,19,-1
 100 523.799804688 l 1,4,-1
EndSplineSet
EndChar

StartChar: exclamdown
Encoding: 161 161 100
Width: 254
Flags: W
LayerCount: 2
Fore
SplineSet
153.599609375 -102.599609375 m 1,0,-1
 0 -102.599609375 l 1,1,-1
 0 409.400390625 l 1,2,-1
 153.599609375 409.400390625 l 1,3,-1
 153.599609375 -102.599609375 l 1,0,-1
0 511.799804688 m 1,4,-1
 0 614.200195312 l 1,5,-1
 153.599609375 614.200195312 l 1,6,-1
 153.599609375 511.799804688 l 1,7,-1
 0 511.799804688 l 1,4,-1
EndSplineSet
EndChar

StartChar: cent
Encoding: 162 162 101
Width: 612
Flags: W
LayerCount: 2
Fore
SplineSet
256 614.200195312 m 2,0,-1
 282.200195312 614.200195312 l 1,1,-1
 282.200195312 716.599609375 l 1,2,-1
 435.799804688 716.599609375 l 1,3,-1
 435.799804688 614.200195312 l 1,4,-1
 512 614.200195312 l 1,5,-1
 512 511.799804688 l 1,6,-1
 204.799804688 511.799804688 l 1,7,-1
 153.599609375 461.400390625 l 1,8,-1
 153.599609375 255.799804688 l 1,9,-1
 204.799804688 204.599609375 l 1,10,-1
 512 204.599609375 l 1,11,-1
 512 102.200195312 l 1,12,-1
 436.799804688 102.200195312 l 1,13,-1
 436.799804688 -0.2001953125 l 1,14,-1
 283.200195312 -0.2001953125 l 1,15,-1
 283.200195312 102.200195312 l 1,16,-1
 256 102.200195312 l 2,17,18
 201.298102421 102.157829077 201.298102421 102.157829077 155.358384123 119.636762638 c 128,-1,19
 109.418665825 137.115696198 109.418665825 137.115696198 79.6332246732 166.722419461 c 128,-1,20
 49.8477835215 196.329142724 49.8477835215 196.329142724 28.9214306766 234.721909778 c 128,-1,21
 7.99507783176 273.114676833 7.99507783176 273.114676833 3.33959684396 315.558418582 c 128,-1,22
 -1.31588414384 358.002160332 -1.31588414384 358.002160332 2.98331982271 400.452793802 c 128,-1,23
 7.28252378926 442.903427271 7.28252378926 442.903427271 27.9691943234 481.32822043 c 128,-1,24
 48.6558648575 519.753013589 48.6558648575 519.753013589 78.3928169935 549.405546395 c 128,-1,25
 108.129769129 579.058079202 108.129769129 579.058079202 154.370782544 596.607956691 c 128,-1,26
 200.611795958 614.15783418 200.611795958 614.15783418 256 614.200195312 c 2,0,-1
EndSplineSet
EndChar

StartChar: sterling
Encoding: 163 163 102
Width: 715
Flags: W
LayerCount: 2
Fore
SplineSet
563.200195312 716.599609375 m 1,0,-1
 563.200195312 614.200195312 l 1,1,-1
 337.07421875 613.54296875 l 2,2,3
 318.711759036 613.488498213 318.711759036 613.488498213 303.958984375 604.670898438 c 128,-1,4
 289.114257812 595.799804688 289.114257812 595.799804688 278.266601562 581.162109375 c 128,-1,5
 267.419433594 566.525390625 267.419433594 566.525390625 261.708984375 547.451171875 c 128,-1,6
 256.000488281 528.37890625 256.000488281 528.37890625 256 507.974609375 c 2,7,-1
 256 409.400390625 l 1,8,-1
 512 409.400390625 l 1,9,-1
 512 307 l 1,10,-1
 256 307 l 1,11,-1
 256 102.200195312 l 1,12,-1
 614.400390625 102.200195312 l 1,13,-1
 614.400390625 -0.2001953125 l 1,14,-1
 102.400390625 -0.2001953125 l 1,15,-1
 102.400390625 307 l 1,16,-1
 0 307 l 1,17,-1
 0 409.400390625 l 1,18,-1
 102.400390625 409.400390625 l 1,19,-1
 102.359375 523.206054688 l 2,20,21
 102.346812196 557.442207665 102.346812196 557.442207665 116.919921875 598.612304688 c 0,22,23
 128.171754604 630.398240084 128.171754604 630.398240084 154.889648438 660.267578125 c 0,24,25
 176.88386008 684.856225871 176.88386008 684.856225871 212.841796875 701.518554688 c 0,26,27
 245.386230469 716.600585938 245.386230469 716.600585938 285.3515625 716.599609375 c 2,28,-1
 563.200195312 716.599609375 l 1,0,-1
EndSplineSet
EndChar

StartChar: currency
Encoding: 164 164 103
Width: 612
Flags: W
LayerCount: 2
Fore
SplineSet
92.4013671875 614.200195312 m 1,0,-1
 156.6796875 550.813476562 l 1,1,2
 182.124023438 563.758300781 182.124023438 563.758300781 206.8984375 570.0078125 c 128,-1,3
 231.671875 576.258300781 231.671875 576.258300781 255.776367188 576.2578125 c 128,-1,4
 279.881835938 576.2578125 279.881835938 576.2578125 304.87890625 570.0078125 c 128,-1,5
 329.876464844 563.758789062 329.876464844 563.758789062 355.3203125 550.813476562 c 1,6,-1
 417.813476562 614.200195312 l 1,7,-1
 512 520.90625 l 1,8,-1
 449.060546875 457.073242188 l 1,9,10
 460.666042341 432.97019689 460.666042341 432.97019689 466.46875 408.641601562 c 128,-1,11
 472.272460938 384.313476562 472.272460938 384.313476562 472.272460938 359.762695312 c 0,12,13
 472.272460938 335.657226562 472.272460938 335.657226562 466.46875 310.66015625 c 128,-1,14
 460.666973993 285.664622911 460.666973993 285.664622911 449.060546875 259.772460938 c 1,15,-1
 512 197.279296875 l 1,16,-1
 417.813476562 102.200195312 l 1,17,-1
 355.3203125 166.032226562 l 1,18,19
 328.090332031 153.980957031 328.090332031 153.980957031 302.870117188 147.954101562 c 128,-1,20
 277.649902344 141.927734375 277.649902344 141.927734375 254.4375 141.927734375 c 128,-1,21
 231.225585938 141.927734375 231.225585938 141.927734375 206.674804688 147.954101562 c 128,-1,22
 182.124023438 153.98046875 182.124023438 153.98046875 156.6796875 166.032226562 c 1,23,-1
 95.525390625 102.200195312 l 1,24,-1
 0 197.279296875 l 1,25,-1
 62.939453125 259.772460938 l 1,26,27
 50.8881835938 282.984375 50.8881835938 282.984375 44.861328125 307.088867188 c 128,-1,28
 38.8349609375 331.194335938 38.8349609375 331.194335938 38.8349609375 356.19140625 c 0,29,30
 38.8349609375 381.635253906 38.8349609375 381.635253906 44.861328125 406.85546875 c 128,-1,31
 50.8876953125 432.075683594 50.8876953125 432.075683594 62.939453125 457.073242188 c 1,32,-1
 0 520.90625 l 1,33,-1
 92.4013671875 614.200195312 l 1,0,-1
341.482421875 358.422851562 m 0,34,35
 341.482421875 394.134277344 341.482421875 394.134277344 316.484375 419.130859375 c 128,-1,36
 291.486816406 444.128417969 291.486816406 444.128417969 255.776367188 444.12890625 c 0,37,38
 220.513183594 444.12890625 220.513183594 444.12890625 195.515625 419.130859375 c 128,-1,39
 170.518066406 394.133300781 170.518066406 394.133300781 170.517578125 358.422851562 c 0,40,41
 170.517578125 323.159667969 170.517578125 323.159667969 195.515625 298.162109375 c 128,-1,42
 220.513183594 273.164550781 220.513183594 273.164550781 255.776367188 273.1640625 c 0,43,44
 291.487792969 273.1640625 291.487792969 273.1640625 316.484375 298.162109375 c 128,-1,45
 341.481933594 323.158203125 341.481933594 323.158203125 341.482421875 358.422851562 c 0,34,35
EndSplineSet
EndChar

StartChar: yen
Encoding: 165 165 104
Width: 715
Flags: W
LayerCount: 2
Fore
SplineSet
153.599609375 716.599609375 m 1,0,-1
 307.200195312 511.799804688 l 1,1,-1
 460.799804688 716.599609375 l 1,2,-1
 614.400390625 716.599609375 l 1,3,-1
 384.123046875 409.400390625 l 1,4,-1
 512 409.400390625 l 1,5,-1
 512 306.200195312 l 1,6,-1
 381.247070312 307 l 1,7,-1
 381.247070312 205.400390625 l 1,8,-1
 512 204.599609375 l 1,9,-1
 512 102.200195312 l 1,10,-1
 382.247070312 102.200195312 l 1,11,-1
 383.72265625 -0.2001953125 l 1,12,-1
 228.646484375 -0.2001953125 l 1,13,-1
 228.646484375 102.200195312 l 1,14,-1
 102.400390625 102.200195312 l 1,15,-1
 102.400390625 204.599609375 l 1,16,-1
 227.646484375 205.400390625 l 1,17,-1
 227.646484375 307 l 1,18,-1
 102.400390625 306.200195312 l 1,19,-1
 102.400390625 409.400390625 l 1,20,-1
 230.5234375 409.400390625 l 1,21,-1
 0 716.599609375 l 1,22,-1
 153.599609375 716.599609375 l 1,0,-1
EndSplineSet
EndChar

StartChar: brokenbar
Encoding: 166 166 105
Width: 254
Flags: W
LayerCount: 2
Fore
SplineSet
0 716.599609375 m 1,0,-1
 153.599609375 716.599609375 l 1,1,-1
 153.599609375 409.400390625 l 1,2,-1
 0 409.400390625 l 1,3,-1
 0 716.599609375 l 1,0,-1
0 203.599609375 m 1,4,-1
 153.599609375 204.599609375 l 1,5,-1
 153.599609375 -205 l 1,6,-1
 0 -204.599609375 l 1,7,-1
 0 203.599609375 l 1,4,-1
EndSplineSet
EndChar

StartChar: section
Encoding: 167 167 106
Width: 715
Flags: W
LayerCount: 2
Fore
SplineSet
563.200195312 716.599609375 m 1,0,-1
 563.200195312 614.420898438 l 1,1,-1
 226.559570312 614.420898438 l 2,2,3
 206.079589844 614.420898438 206.079589844 614.420898438 189.440429688 598.795898438 c 128,-1,4
 172.799804688 583.171875 172.799804688 583.171875 172.799804688 553.45703125 c 0,5,6
 172.799804688 525.527832031 172.799804688 525.527832031 189.440429688 508.563476562 c 128,-1,7
 206.079589844 491.599121094 206.079589844 491.599121094 226.559570312 491.599609375 c 2,8,-1
 450.559570312 491.599609375 l 2,9,10
 488.960449219 491.599609375 488.960449219 491.599609375 519.040039062 476.420898438 c 128,-1,11
 549.120605469 461.2421875 549.120605469 461.2421875 570.240234375 436.2421875 c 128,-1,12
 591.360351562 411.241699219 591.360351562 411.241699219 602.879882812 379.099609375 c 128,-1,13
 614.399414062 346.956542969 614.399414062 346.956542969 614.400390625 312.134765625 c 0,14,15
 614.400390625 292.49598134 614.400390625 292.49598134 609.919921875 272.849609375 c 128,-1,16
 605.440429688 253.206054688 605.440429688 253.206054688 595.83984375 236.2421875 c 128,-1,17
 586.240722656 219.277832031 586.240722656 219.277832031 571.51953125 206.331054688 c 128,-1,18
 556.80078125 193.384765625 556.80078125 193.384765625 535.040039062 187.134765625 c 1,19,20
 579.839355469 166.599121094 579.839355469 166.599121094 597.120117188 133.563476562 c 128,-1,21
 614.399414062 100.526855469 614.399414062 100.526855469 614.400390625 63.02734375 c 0,22,23
 614.400390625 26.4208984375 614.400390625 26.4208984375 602.879882812 -3.9365234375 c 128,-1,24
 591.360351562 -34.2939453125 591.360351562 -34.2939453125 570.240234375 -56.615234375 c 128,-1,25
 549.120117188 -78.9365234375 549.120117188 -78.9365234375 519.040039062 -91.4375 c 128,-1,26
 488.959472656 -103.937011719 488.959472656 -103.937011719 450.559570312 -103.9375 c 2,27,-1
 28.16015625 -103.9375 l 1,28,-1
 28.16015625 0.4560546875 l 1,29,-1
 386.559570312 0.4560546875 l 2,30,31
 410.880371094 0.4560546875 410.880371094 0.4560546875 426.879882812 17.8662109375 c 128,-1,32
 442.879882812 35.2768124206 442.879882812 35.2768124206 442.879882812 62.77734375 c 0,33,34
 442.879882812 94.2783497265 442.879882812 94.2783497265 426.879882812 111.2421875 c 128,-1,35
 410.879394531 128.206542969 410.879394531 128.206542969 386.559570312 128.206054688 c 2,36,-1
 179.200195312 128.206054688 l 2,37,38
 138.240234375 128.206054688 138.240234375 128.206054688 104.959960938 143.384765625 c 128,-1,39
 71.6801757812 158.563476562 71.6801757812 158.563476562 48.6396484375 183.563476562 c 128,-1,40
 25.6005859375 208.563964844 25.6005859375 208.563964844 12.7998046875 241.15234375 c 128,-1,41
 0 273.7421875 0 273.7421875 0 307.670898438 c 0,42,43
 0 345.170898438 0 345.170898438 18.5595703125 376.420898438 c 128,-1,44
 37.1206054688 407.670410156 37.1206054688 407.670410156 84.48046875 428.20703125 c 1,45,46
 61.4399414062 437.135253906 61.4399414062 437.135253906 45.4404296875 451.420898438 c 128,-1,47
 29.4399414062 465.706054688 29.4399414062 465.706054688 19.2001953125 483.1171875 c 128,-1,48
 8.95947265625 500.528320312 8.95947265625 500.528320312 4.48046875 519.278320312 c 128,-1,49
 -0.00048828125 538.028320312 -0.00048828125 538.028320312 0 555.885742188 c 0,50,51
 0 629.100097656 0 629.100097656 49.2802734375 672.849609375 c 128,-1,52
 98.560546875 716.600097656 98.560546875 716.600097656 198.400390625 716.599609375 c 2,53,-1
 563.200195312 716.599609375 l 1,0,-1
221.440429688 377.313476562 m 1,54,55
 203.51953125 375.527832031 203.51953125 375.527832031 188.16015625 360.349609375 c 128,-1,56
 172.799804688 345.170898438 172.799804688 345.170898438 172.799804688 311.2421875 c 0,57,58
 172.799804688 278.20703125 172.799804688 278.20703125 188.16015625 256.77734375 c 128,-1,59
 203.520507812 235.349609375 203.520507812 235.349609375 221.440429688 233.563476562 c 2,60,-1
 386.559570312 233.563476562 l 2,61,62
 410.880371094 233.563476562 410.880371094 233.563476562 426.879882812 251.420898438 c 128,-1,63
 442.880371094 269.27734375 442.880371094 269.27734375 442.879882812 306.778320312 c 128,-1,64
 442.879882812 344.278320312 442.879882812 344.278320312 426.879882812 360.795898438 c 128,-1,65
 410.879394531 377.313476562 410.879394531 377.313476562 386.559570312 377.313476562 c 2,66,-1
 221.440429688 377.313476562 l 1,54,55
EndSplineSet
EndChar

StartChar: dieresis
Encoding: 168 168 107
Width: 561
Flags: W
LayerCount: 2
Fore
SplineSet
0 819 m 1,0,-1
 153.599609375 819 l 1,1,-1
 153.599609375 666.400390625 l 1,2,-1
 0 666.400390625 l 1,3,-1
 0 819 l 1,0,-1
307.200195312 819 m 1,4,-1
 460.799804688 819 l 1,5,-1
 460.799804688 666.400390625 l 1,6,-1
 307.200195312 666.400390625 l 1,7,-1
 307.200195312 819 l 1,4,-1
EndSplineSet
EndChar

StartChar: copyright
Encoding: 169 169 108
Width: 1022
Flags: W
LayerCount: 2
Fore
SplineSet
424.298828125 589.200195312 m 2,0,-1
 614.400390625 589.200195312 l 1,1,-1
 614.400390625 486.799804688 l 1,2,-1
 409.599609375 486.799804688 l 1,3,-1
 358.400390625 436.400390625 l 1,4,-1
 358.400390625 282 l 1,5,-1
 409.599609375 230.799804688 l 1,6,-1
 614.400390625 230.799804688 l 1,7,-1
 614.400390625 128.400390625 l 1,8,-1
 424.298828125 128.400390625 l 2,9,10
 377.338231433 128.358182392 377.338231433 128.358182392 337.923183065 144.085768001 c 128,-1,11
 298.508134698 159.81335361 298.508134698 159.81335361 272.973735337 186.457140467 c 128,-1,12
 247.439335977 213.100927325 247.439335977 213.100927325 229.517109892 247.652803859 c 128,-1,13
 211.594883806 282.204680393 211.594883806 282.204680393 207.633465597 320.403653242 c 128,-1,14
 203.672047388 358.60262609 203.672047388 358.60262609 207.388525144 396.808477835 c 128,-1,15
 211.105002899 435.014329579 211.105002899 435.014329579 228.8624474 469.598172703 c 128,-1,16
 246.619891901 504.182015828 246.619891901 504.182015828 272.120955056 530.871527067 c 128,-1,17
 297.622018211 557.561038306 297.622018211 557.561038306 337.244206981 573.359435992 c 128,-1,18
 376.866395751 589.157833678 376.866395751 589.157833678 424.298828125 589.200195312 c 2,0,-1
460.799804688 716.599609375 m 0,19,20
 361.145179388 716.599609375 361.145179388 716.599609375 278.642089118 668.85186309 c 128,-1,21
 196.138998847 621.104116806 196.138998847 621.104116806 149.269694736 539.036157743 c 128,-1,22
 102.400390625 456.96819868 102.400390625 456.96819868 102.400390625 359 c 0,23,24
 102.400390625 259.297246334 102.400390625 259.297246334 148.820701882 177.005057026 c 128,-1,25
 195.241013139 94.7128677183 195.241013139 94.7128677183 277.591081972 47.2563362029 c 128,-1,26
 359.941150806 -0.2001953125 359.941150806 -0.2001953125 460.799804688 -0.2001953125 c 0,27,28
 534.701564173 -0.2001953125 534.701564173 -0.2001953125 602.854679641 33.5518822129 c 128,-1,29
 671.007795109 67.3039597383 671.007795109 67.3039597383 717.450862351 119.758771474 c 128,-1,30
 763.893929594 172.213583209 763.893929594 172.213583209 791.547062453 235.767061656 c 128,-1,31
 819.200195312 299.320540104 819.200195312 299.320540104 819.200195312 359 c 0,32,33
 819.200195312 512.755153563 819.200195312 512.755153563 717.269387766 614.677381469 c 128,-1,34
 615.33858022 716.599609375 615.33858022 716.599609375 460.799804688 716.599609375 c 0,19,20
921.599609375 358.200195312 m 128,-1,36
 921.599609375 142.200195312 921.599609375 142.200195312 799.199707031 19.8002929688 c 128,-1,37
 676.799804688 -102.599609375 676.799804688 -102.599609375 460.799804688 -102.599609375 c 128,-1,38
 244.799804688 -102.599609375 244.799804688 -102.599609375 122.399902344 19.8002929688 c 128,-1,39
 0 142.200195312 0 142.200195312 0 358.200195312 c 128,-1,40
 0 574.200195312 0 574.200195312 122.399902344 696.600097656 c 128,-1,41
 244.799804688 819 244.799804688 819 460.799804688 819 c 128,-1,42
 676.799804688 819 676.799804688 819 799.199707031 696.600097656 c 128,-1,35
 921.599609375 574.200195312 921.599609375 574.200195312 921.599609375 358.200195312 c 128,-1,36
EndSplineSet
EndChar

StartChar: ordfeminine
Encoding: 170 170 109
Width: 510
Flags: W
LayerCount: 2
Fore
SplineSet
283.069335938 819 m 2,0,1
 317.176757812 819 317.176757812 819 341.3828125 812.265625 c 128,-1,2
 365.589355469 805.531738281 365.589355469 805.531738281 380.993164062 788.955078125 c 128,-1,3
 396.395996094 772.37890625 396.395996094 772.37890625 402.998046875 745.44140625 c 128,-1,4
 409.600097656 718.504394531 409.600097656 718.504394531 409.599609375 677.063476562 c 2,5,-1
 409.599609375 359 l 1,6,-1
 112.52734375 359 l 2,7,8
 88.3208007812 359 88.3208007812 359 67.9658203125 370.9140625 c 128,-1,9
 47.6118164062 382.829101562 47.6118164062 382.829101562 32.7578125 403.03125 c 128,-1,10
 17.904296875 423.234375 17.904296875 423.234375 9.65234375 450.689453125 c 128,-1,11
 1.3994140625 478.143554688 1.3994140625 478.143554688 1.400390625 509.225585938 c 0,12,13
 1.400390625 527.273268326 1.400390625 527.273268326 9.65234375 554.725585938 c 128,-1,14
 17.9038085938 582.1796875 17.9038085938 582.1796875 32.7578125 602.901367188 c 128,-1,15
 47.611328125 623.621582031 47.611328125 623.621582031 67.9658203125 635.536132812 c 128,-1,16
 88.3212890625 647.449707031 88.3212890625 647.449707031 112.52734375 647.450195312 c 2,17,-1
 277.567382812 647.450195312 l 1,18,-1
 277.567382812 672.918945312 l 2,19,20
 277.567382812 710.216796875 277.567382812 710.216796875 267.665039062 722.130859375 c 128,-1,21
 257.762695312 734.044433594 257.762695312 734.044433594 231.356445312 734.044921875 c 2,22,-1
 63.0146484375 734.044921875 l 1,23,-1
 63.0146484375 819 l 1,24,-1
 283.069335938 819 l 2,0,1
209.350585938 564.567382812 m 2,25,26
 162.0390625 564.567382812 162.0390625 564.567382812 146.084960938 549.02734375 c 0,27,28
 139.610800497 542.720818352 139.610800497 542.720818352 136.932892182 539.194125053 c 128,-1,29
 134.254983866 535.667431755 134.254983866 535.667431755 132.193409902 528.267789009 c 128,-1,30
 130.131835938 520.868146264 130.131835938 520.868146264 130.131835938 509.225585938 c 0,31,32
 130.131835938 469.854980469 130.131835938 469.854980469 137.833007812 455.869140625 c 128,-1,33
 145.53515625 441.8828125 145.53515625 441.8828125 162.0390625 441.8828125 c 2,34,-1
 277.567382812 441.8828125 l 1,35,-1
 277.567382812 564.567382812 l 1,36,-1
 209.350585938 564.567382812 l 2,25,26
EndSplineSet
EndChar

StartChar: guillemotleft
Encoding: 171 171 110
Width: 715
Flags: W
LayerCount: 2
Fore
SplineSet
0 359 m 1,0,-1
 153.599609375 614.200195312 l 1,1,-1
 307.200195312 614.200195312 l 1,2,-1
 153.599609375 359 l 1,3,-1
 307.200195312 102.200195312 l 1,4,-1
 153.599609375 102.200195312 l 1,5,-1
 0 359 l 1,0,-1
614.400390625 614.200195312 m 1,6,-1
 460.799804688 359 l 1,7,-1
 614.400390625 102.200195312 l 1,8,-1
 460.799804688 102.200195312 l 1,9,-1
 307.200195312 359 l 1,10,-1
 460.799804688 614.200195312 l 1,11,-1
 614.400390625 614.200195312 l 1,6,-1
EndSplineSet
EndChar

StartChar: logicalnot
Encoding: 172 172 111
Width: 715
Flags: W
LayerCount: 2
Fore
SplineSet
0 460.599609375 m 1,0,-1
 614.400390625 460.599609375 l 1,1,-1
 614.400390625 153.400390625 l 1,2,-1
 460.799804688 153.400390625 l 1,3,-1
 460.799804688 358.200195312 l 1,4,-1
 0 358.200195312 l 1,5,-1
 0 460.599609375 l 1,0,-1
EndSplineSet
EndChar

StartChar: uni00AD
Encoding: 173 173 112
Width: 408
Flags: W
LayerCount: 2
Fore
SplineSet
0 460.599609375 m 1,0,-1
 307.200195312 460.599609375 l 1,1,-1
 307.200195312 359 l 1,2,-1
 0 358.200195312 l 1,3,-1
 0 460.599609375 l 1,0,-1
EndSplineSet
EndChar

StartChar: registered
Encoding: 174 174 113
Width: 715
Flags: W
LayerCount: 2
Fore
SplineSet
256 614.200195312 m 1,0,-1
 256 542.599609375 l 1,1,-1
 338.400390625 541 l 1,2,-1
 358.400390625 563 l 1,3,-1
 358.400390625 591.099609375 l 1,4,-1
 339.400390625 613.400390625 l 1,5,-1
 256 614.200195312 l 1,0,-1
179.799804688 666.200195312 m 1,6,-1
 385.599609375 666.400390625 l 1,7,8
 399.723865949 661.049789899 399.723865949 661.049789899 405.221578504 658.432225841 c 128,-1,9
 410.719291059 655.814661782 410.719291059 655.814661782 420.625101184 644.848698639 c 128,-1,10
 430.530911308 633.882735496 430.530911308 633.882735496 436.799804688 616.200195312 c 1,11,-1
 436.799804688 564 l 1,12,13
 431.964013136 545.586708096 431.964013136 545.586708096 416.714606088 530.632556344 c 128,-1,14
 401.465199041 515.678404591 401.465199041 515.678404591 401.200195312 511.799804688 c 0,15,16
 427.455609379 488.288418622 427.455609379 488.288418622 436.799804688 461.599609375 c 1,17,-1
 436.799804688 410.400390625 l 1,18,-1
 436.799804688 359.200195312 l 1,19,-1
 358.400390625 358.200195312 l 1,20,-1
 358.400390625 460.599609375 l 1,21,-1
 336.400390625 483.599609375 l 1,22,-1
 256 484.400390625 l 1,23,-1
 256 359 l 1,24,-1
 179.799804688 359 l 1,25,-1
 179.799804688 666.200195312 l 1,6,-1
307.200195312 741.799804688 m 128,-1,27
 211.019969523 741.799804688 211.019969523 741.799804688 143.009984761 674.434301404 c 128,-1,28
 75 607.068798121 75 607.068798121 75 511.799804688 c 128,-1,29
 75 416.530811254 75 416.530811254 143.009984761 349.165307971 c 128,-1,30
 211.019969523 281.799804688 211.019969523 281.799804688 307.200195312 281.799804688 c 128,-1,31
 403.380421102 281.799804688 403.380421102 281.799804688 471.390405864 349.165307971 c 128,-1,32
 539.400390625 416.530811254 539.400390625 416.530811254 539.400390625 511.799804688 c 128,-1,33
 539.400390625 607.068798121 539.400390625 607.068798121 471.390405864 674.434301404 c 128,-1,26
 403.380421102 741.799804688 403.380421102 741.799804688 307.200195312 741.799804688 c 128,-1,27
614.400390625 511.799804688 m 128,-1,35
 614.400390625 384.553222656 614.400390625 384.553222656 524.423583984 294.576416016 c 128,-1,36
 434.446777344 204.599609375 434.446777344 204.599609375 307.200195312 204.599609375 c 128,-1,37
 179.953613281 204.599609375 179.953613281 204.599609375 89.9768066406 294.576416016 c 128,-1,38
 0 384.553222656 0 384.553222656 0 511.799804688 c 128,-1,39
 0 639.046386719 0 639.046386719 89.9768066406 729.023193359 c 128,-1,40
 179.953613281 819 179.953613281 819 307.200195312 819 c 128,-1,41
 434.446777344 819 434.446777344 819 524.423583984 729.023193359 c 128,-1,34
 614.400390625 639.046386719 614.400390625 639.046386719 614.400390625 511.799804688 c 128,-1,35
EndSplineSet
EndChar

StartChar: macron
Encoding: 175 175 114
Width: 715
Flags: W
LayerCount: 2
Fore
SplineSet
0 819 m 1,0,-1
 614.400390625 819 l 1,1,-1
 614.400390625 717.4921875 l 1,2,-1
 0 716.599609375 l 1,3,-1
 0 819 l 1,0,-1
EndSplineSet
EndChar

StartChar: degree
Encoding: 176 176 115
Width: 459
Flags: W
LayerCount: 2
Fore
SplineSet
179.200195312 738.599609375 m 128,-1,1
 136.784790651 738.599609375 136.784790651 738.599609375 106.792297669 709.779116448 c 128,-1,2
 76.7998046875 680.958623522 76.7998046875 680.958623522 76.7998046875 640.200195312 c 128,-1,3
 76.7998046875 599.441673968 76.7998046875 599.441673968 106.792346131 570.620739328 c 128,-1,4
 136.784887574 541.799804688 136.784887574 541.799804688 179.200195312 541.799804688 c 128,-1,5
 221.615409915 541.799804688 221.615409915 541.799804688 251.607509645 570.620694578 c 128,-1,6
 281.599609375 599.441584469 281.599609375 599.441584469 281.599609375 640.200195312 c 128,-1,7
 281.599609375 680.958713019 281.599609375 680.958713019 251.607558106 709.779161197 c 128,-1,0
 221.615506837 738.599609375 221.615506837 738.599609375 179.200195312 738.599609375 c 128,-1,1
358.400390625 640.200195312 m 128,-1,9
 358.400390625 566.138669722 358.400390625 566.138669722 305.913695484 513.769530173 c 128,-1,10
 253.427000343 461.400390625 253.427000343 461.400390625 179.200195312 461.400390625 c 128,-1,11
 104.972826499 461.400390625 104.972826499 461.400390625 52.4864132495 513.769446043 c 128,-1,12
 0 566.138501461 0 566.138501461 0 640.200195312 c 128,-1,13
 0 714.261325381 0 714.261325381 52.4864977576 766.630662691 c 128,-1,14
 104.972995515 819 104.972995515 819 179.200195312 819 c 128,-1,15
 253.426831326 819 253.426831326 819 305.913610976 766.63057856 c 128,-1,8
 358.400390625 714.261157119 358.400390625 714.261157119 358.400390625 640.200195312 c 128,-1,9
EndSplineSet
EndChar

StartChar: plusminus
Encoding: 177 177 116
Width: 664
Flags: W
LayerCount: 2
Fore
SplineSet
204.799804688 511.799804688 m 1,0,-1
 204.799804688 666.400390625 l 1,1,-1
 358.400390625 666.400390625 l 1,2,-1
 358.400390625 511.799804688 l 1,3,-1
 563.200195312 511.799804688 l 1,4,-1
 563.200195312 409 l 1,5,-1
 358.400390625 409.400390625 l 1,6,-1
 358.400390625 255.799804688 l 1,7,-1
 204.799804688 255.799804688 l 1,8,-1
 204.799804688 409.400390625 l 1,9,-1
 0 409.400390625 l 1,10,-1
 0 511.799804688 l 1,11,-1
 204.799804688 511.799804688 l 1,0,-1
0 153.400390625 m 1,12,-1
 563.200195312 153.400390625 l 1,13,-1
 563.200195312 51 l 1,14,-1
 0 51 l 1,15,-1
 0 153.400390625 l 1,12,-1
EndSplineSet
EndChar

StartChar: uni00B2
Encoding: 178 178 117
Width: 408
Flags: W
LayerCount: 2
Fore
SplineSet
0 723.9140625 m 1,0,1
 0 741.7609375 0 741.7609375 1.04516087353 751.211011719 c 128,-1,2
 2.09032174705 760.661085938 2.09032174705 760.661085938 9.75483912647 775.787066406 c 128,-1,3
 17.4193565059 790.913046875 17.4193565059 790.913046875 32.2451608735 798.724730469 c 128,-1,4
 47.0709652412 806.536414062 47.0709652412 806.536414062 76.9548391265 812.768207031 c 128,-1,5
 106.838713012 819 106.838713012 819 150 819 c 0,6,7
 232.043346941 819 232.043346941 819 269.621771127 799.293699814 c 128,-1,8
 307.200195312 779.587399629 307.200195312 779.587399629 307.200195312 731.228515625 c 2,9,-1
 307.200195312 721.713867188 l 2,10,11
 307.200195312 698.737329102 307.200195312 698.737329102 283.468955078 682.203202026 c 128,-1,12
 259.737714844 665.669074951 259.737714844 665.669074951 225.868857422 655.605454224 c 128,-1,13
 192 645.541833496 192 645.541833496 158.131142578 635.570717651 c 128,-1,14
 124.262285156 625.599601807 124.262285156 625.599601807 100.531044922 609.466329224 c 128,-1,15
 76.7998046875 593.333056641 76.7998046875 593.333056641 76.7998046875 570.942382812 c 2,16,-1
 76.7998046875 563 l 1,17,-1
 307.200195312 563 l 1,18,-1
 307.200195312 511.799804688 l 1,19,-1
 0 511.799804688 l 1,20,-1
 0 555.685546875 l 2,21,22
 0 611.65412048 0 611.65412048 37.6864680729 646.834888543 c 128,-1,23
 75.3729361457 682.015656605 75.3729361457 682.015656605 128 687.9140625 c 1,24,25
 190.561474287 703.231585518 190.561474287 703.231585518 230.400390625 717.286132812 c 1,26,-1
 230.400390625 745.857421875 l 1,27,-1
 204.799804688 767.799804688 l 1,28,-1
 102.400390625 767.799804688 l 1,29,-1
 76.7998046875 745.857421875 l 1,30,-1
 76.7998046875 723.9140625 l 1,31,-1
 0 723.9140625 l 1,0,1
EndSplineSet
EndChar

StartChar: uni00B3
Encoding: 179 179 118
Width: 408
Flags: W
LayerCount: 2
Fore
SplineSet
0 724.599609375 m 1,0,1
 0 772.714471175 0 772.714471175 33.9100124763 795.857235587 c 128,-1,2
 67.8200249527 819 67.8200249527 819 128 819 c 2,3,-1
 179.200195312 819 l 2,4,5
 307.200195312 819 307.200195312 819 307.200195312 731.228515625 c 0,6,7
 307.200195312 720.75449111 307.200195312 720.75449111 304.197178325 711.65008204 c 128,-1,8
 301.194161337 702.545672969 301.194161337 702.545672969 297.51148053 696.788272453 c 128,-1,9
 293.828799722 691.030871936 293.828799722 691.030871936 286.973021062 685.213332546 c 128,-1,10
 280.117242401 679.395793156 280.117242401 679.395793156 276.192867972 676.955553992 c 128,-1,11
 272.268493542 674.515314828 272.268493542 674.515314828 264.748863799 670.487846073 c 128,-1,12
 257.229234056 666.460377318 257.229234056 666.460377318 256 665.743164062 c 1,13,14
 266.45630991 662.029197766 266.45630991 662.029197766 276.150454431 656.225011961 c 128,-1,15
 285.844598951 650.420826156 285.844598951 650.420826156 296.522397132 634.982019289 c 128,-1,16
 307.200195312 619.543212421 307.200195312 619.543212421 307.200195312 599.571289062 c 0,17,18
 307.200195312 511.799804688 307.200195312 511.799804688 179.200195312 511.799804688 c 2,19,-1
 128 511.799804688 l 2,20,21
 68.0089588537 511.799804688 68.0089588537 511.799804688 34.0044794268 535.134533451 c 128,-1,22
 0 558.469262215 0 558.469262215 0 606.200195312 c 1,23,-1
 76.7998046875 606.200195312 l 1,24,-1
 76.7998046875 584.942382812 l 1,25,-1
 110.400390625 563 l 1,26,-1
 198.799804688 563 l 1,27,-1
 224.400390625 584.942382812 l 1,28,-1
 224.400390625 613.514648438 l 1,29,-1
 198.799804688 637.45703125 l 1,30,-1
 102.400390625 637.45703125 l 1,31,-1
 102.400390625 693.342773438 l 1,32,-1
 198.799804688 693.342773438 l 1,33,-1
 224.400390625 717.286132812 l 1,34,-1
 224.400390625 745.857421875 l 1,35,-1
 198.799804688 767.799804688 l 1,36,-1
 110.400390625 767.799804688 l 1,37,-1
 76.7998046875 745.857421875 l 1,38,-1
 76.7998046875 724.599609375 l 1,39,-1
 0 724.599609375 l 1,0,1
EndSplineSet
EndChar

StartChar: acute
Encoding: 180 180 119
Width: 408
Flags: W
LayerCount: 2
Fore
SplineSet
153.599609375 819 m 1,0,-1
 307.200195312 819 l 1,1,-1
 307.200195312 716.599609375 l 1,2,-1
 102.400390625 511.799804688 l 1,3,-1
 0 511.799804688 l 1,4,-1
 0 563 l 1,5,-1
 153.599609375 819 l 1,0,-1
EndSplineSet
EndChar

StartChar: mu
Encoding: 181 181 120
Width: 715
Flags: W
LayerCount: 2
Fore
SplineSet
614.400390625 511.799804688 m 1,0,-1
 614.400390625 -0.2001953125 l 1,1,-1
 512 -0.2001953125 l 1,2,-1
 512 51 l 1,3,4
 512 33.8612467448 512 33.8612467448 479.436835739 16.8305257161 c 128,-1,5
 446.873671478 -0.2001953125 446.873671478 -0.2001953125 409.599609375 -0.2001953125 c 2,6,-1
 256 -0.2001953125 l 2,7,8
 218.417444463 -0.2001953125 218.417444463 -0.2001953125 186.008526919 16.5388590495 c 128,-1,9
 153.599609375 33.2779134115 153.599609375 33.2779134115 153.599609375 51 c 1,10,-1
 153.599609375 -0.2001953125 l 1,11,-1
 153.599609375 -205 l 1,12,-1
 0 -205 l 1,13,-1
 0 -0.2001953125 l 1,14,-1
 0 511.799804688 l 1,15,-1
 153.599609375 511.799804688 l 1,16,-1
 153.599609375 204.599609375 l 2,17,18
 153.599609375 161.69172296 153.599609375 161.69172296 178.891432709 131.945959136 c 128,-1,19
 204.183256044 102.200195312 204.183256044 102.200195312 256 102.200195312 c 2,20,-1
 358.400390625 102.200195312 l 2,21,22
 411.383151266 102.200195312 411.383151266 102.200195312 436.091477977 131.711866067 c 128,-1,23
 460.799804688 161.223536822 460.799804688 161.223536822 460.799804688 204.599609375 c 2,24,-1
 460.799804688 511.799804688 l 1,25,-1
 614.400390625 511.799804688 l 1,0,-1
EndSplineSet
EndChar

StartChar: paragraph
Encoding: 182 182 121
Width: 715
Flags: W
LayerCount: 2
Fore
SplineSet
614.400390625 819 m 1,0,-1
 614.400390625 -205 l 1,1,-1
 460.799804688 -205 l 1,2,-1
 460.799804688 716.599609375 l 1,3,-1
 358.400390625 716.599609375 l 1,4,-1
 358.400390625 -205 l 1,5,-1
 204.799804688 -204.459960938 l 1,6,-1
 204.799804688 359 l 1,7,-1
 172.923828125 358.459960938 l 2,8,9
 134.026961734 357.800258254 134.026961734 357.800258254 101.349609375 375.997070312 c 0,10,11
 69.8569335938 393.534179688 69.8569335938 393.534179688 46.953125 424.712890625 c 128,-1,12
 24.048828125 455.890625 24.048828125 455.890625 12.0244140625 498.2734375 c 128,-1,13
 0 540.654040749 0 540.654040749 0 578.345703125 c 0,14,15
 0 629.008789062 0 629.008789062 12.5966796875 672.853515625 c 128,-1,16
 25.1943359375 716.697753906 25.1943359375 716.697753906 48.09765625 749.336914062 c 128,-1,17
 71.001953125 781.9765625 71.001953125 781.9765625 102.495117188 800.48828125 c 128,-1,18
 133.987792969 818.999511719 133.987792969 818.999511719 172.923828125 819 c 2,19,-1
 614.400390625 819 l 1,0,-1
EndSplineSet
EndChar

StartChar: periodcentered
Encoding: 183 183 122
Width: 254
Flags: W
LayerCount: 2
Fore
SplineSet
0 511.799804688 m 1,0,-1
 153.599609375 511.799804688 l 1,1,-1
 153.599609375 359 l 1,2,-1
 0 359 l 1,3,-1
 0 511.799804688 l 1,0,-1
EndSplineSet
EndChar

StartChar: cedilla
Encoding: 184 184 123
Width: 305
Flags: W
LayerCount: 2
Fore
SplineSet
51.2001953125 -77 m 1,0,-1
 51.2001953125 -0.2001953125 l 1,1,-1
 130.279296875 -0.2001953125 l 1,2,-1
 130.420898438 -51.400390625 l 1,3,4
 165.41784515 -55.4146150101 165.41784515 -55.4146150101 184.461914062 -73.771484375 c 0,5,6
 204.799804688 -93.3740234375 204.799804688 -93.3740234375 204.799804688 -117.360351562 c 0,7,8
 204.799804688 -151.955566406 204.799804688 -151.955566406 170.745117188 -178.477539062 c 128,-1,9
 136.691894531 -205 136.691894531 -205 68.109375 -205 c 2,10,-1
 0 -205 l 1,11,-1
 0 -129.049804688 l 1,12,-1
 51.2001953125 -129.049804688 l 2,13,14
 84.9664465453 -129.049804688 84.9664465453 -129.049804688 93.650390625 -121.349609375 c 128,-1,15
 102.400390625 -113.457915976 102.400390625 -113.457915976 102.400390625 -102.599609375 c 0,16,17
 102.400390625 -87.4794810131 102.400390625 -87.4794810131 94.521484375 -82.9169921875 c 0,18,19
 85.1792735276 -77.4604013093 85.1792735276 -77.4604013093 51.2001953125 -77 c 1,0,-1
EndSplineSet
EndChar

StartChar: guillemotright
Encoding: 187 187 124
Width: 715
Flags: W
LayerCount: 2
Fore
SplineSet
614.400390625 359 m 1,0,-1
 460.799804688 102.200195312 l 1,1,-1
 307.200195312 102.200195312 l 1,2,-1
 460.799804688 359 l 1,3,-1
 307.200195312 614.200195312 l 1,4,-1
 460.799804688 614.200195312 l 1,5,-1
 614.400390625 359 l 1,0,-1
0 614.200195312 m 1,6,-1
 153.599609375 614.200195312 l 1,7,-1
 307.200195312 359 l 1,8,-1
 153.599609375 102.200195312 l 1,9,-1
 0 102.200195312 l 1,10,-1
 153.599609375 359 l 1,11,-1
 0 614.200195312 l 1,6,-1
EndSplineSet
EndChar

StartChar: uni00B9
Encoding: 185 185 125
Width: 333
Flags: W
LayerCount: 2
Fore
SplineSet
0 714.599609375 m 1,0,-1
 153.599609375 819 l 1,1,-1
 233 819 l 1,2,-1
 233 511.799804688 l 1,3,-1
 153.599609375 511.799804688 l 1,4,-1
 153.599609375 742.599609375 l 1,5,-1
 32.2001953125 666.400390625 l 1,6,-1
 0 666.400390625 l 1,7,-1
 0 714.599609375 l 1,0,-1
EndSplineSet
EndChar

StartChar: ordmasculine
Encoding: 186 186 126
Width: 408
Flags: W
LayerCount: 2
Fore
SplineSet
153.599609375 757.559570312 m 128,-1,1
 76.7998046875 757.559570312 76.7998046875 757.559570312 76.7998046875 665.400390625 c 128,-1,2
 76.7998046875 573.239746094 76.7998046875 573.239746094 153.599609375 573.240234375 c 128,-1,3
 230.399902344 573.240234375 230.399902344 573.240234375 230.400390625 665.400390625 c 128,-1,0
 230.400390625 757.559570312 230.400390625 757.559570312 153.599609375 757.559570312 c 128,-1,1
153.599609375 819 m 0,4,5
 222.508460886 819 222.508460886 819 264.854328099 780.653375152 c 128,-1,6
 307.200195312 742.306750303 307.200195312 742.306750303 307.200195312 665.400390625 c 0,7,8
 307.200195312 589.873694077 307.200195312 589.873694077 264.60309212 550.836749382 c 128,-1,9
 222.005988928 511.799804688 222.005988928 511.799804688 153.599609375 511.799804688 c 0,10,11
 84.8690721904 511.799804688 84.8690721904 511.799804688 42.4345360952 550.492818003 c 128,-1,12
 0 589.185831319 0 589.185831319 0 665.814453125 c 0,13,14
 0.35748965754 742.556031758 0.35748965754 742.556031758 42.6213468946 780.58615245 c 128,-1,15
 84.8852041317 818.616273142 84.8852041317 818.616273142 153.599609375 819 c 0,4,5
EndSplineSet
EndChar

StartChar: onequarter
Encoding: 188 188 127
Width: 664
Flags: W
LayerCount: 2
Fore
SplineSet
499.200195312 445.657226562 m 1,0,-1
 371.200195312 358.342773438 l 1,1,-1
 371.200195312 336.0859375 l 1,2,-1
 499.200195312 336.0859375 l 1,3,-1
 499.200195312 445.657226562 l 1,0,-1
307.200195312 284.885742188 m 1,4,-1
 307.200195312 379.9140625 l 1,5,-1
 499.200195312 511.400390625 l 1,6,-1
 563.200195312 511.400390625 l 1,7,-1
 563.200195312 204.599609375 l 1,8,-1
 499.200195312 204.599609375 l 1,9,-1
 499.200195312 284.885742188 l 1,10,-1
 307.200195312 284.885742188 l 1,4,-1
0 714.599609375 m 1,11,-1
 153.599609375 819 l 1,12,-1
 233 819 l 1,13,-1
 233 511.799804688 l 1,14,-1
 153.599609375 511.799804688 l 1,15,-1
 153.599609375 742.599609375 l 1,16,-1
 32.2001953125 666.400390625 l 1,17,-1
 0 666.400390625 l 1,18,-1
 0 714.599609375 l 1,11,-1
486.400390625 666.400390625 m 1,19,-1
 537.599609375 666.400390625 l 1,20,-1
 537.599609375 615 l 1,21,-1
 128 307 l 1,22,-1
 76.7998046875 308 l 1,23,-1
 76.7998046875 358.400390625 l 1,24,-1
 486.400390625 666.400390625 l 1,19,-1
EndSplineSet
EndChar

StartChar: onehalf
Encoding: 189 189 128
Width: 766
Flags: W
LayerCount: 2
Fore
SplineSet
486.400390625 666.400390625 m 1,0,-1
 537.599609375 666.400390625 l 1,1,-1
 537.599609375 615 l 1,2,-1
 128 307 l 1,3,-1
 76.7998046875 308 l 1,4,-1
 76.7998046875 358.400390625 l 1,5,-1
 486.400390625 666.400390625 l 1,0,-1
0 714.599609375 m 1,6,-1
 153.599609375 819 l 1,7,-1
 233 819 l 1,8,-1
 233 511.799804688 l 1,9,-1
 153.599609375 511.799804688 l 1,10,-1
 153.599609375 742.599609375 l 1,11,-1
 32.2001953125 666.400390625 l 1,12,-1
 0 666.400390625 l 1,13,-1
 0 714.599609375 l 1,6,-1
392.533203125 416.713867188 m 1,14,15
 392.533203125 431.54562717 392.533203125 431.54562717 393.262571279 439.381407335 c 128,-1,16
 393.991939433 447.2171875 393.991939433 447.2171875 397.359376963 460.484518772 c 128,-1,17
 400.726814494 473.751850043 400.726814494 473.751850043 409.311914812 481.100021701 c 128,-1,18
 417.89701513 488.448193359 417.89701513 488.448193359 431.927193804 496.514249674 c 128,-1,19
 445.957372477 504.58030599 445.957372477 504.58030599 469.805594282 508.190055339 c 128,-1,20
 493.653816088 511.799804688 493.653816088 511.799804688 525.866210938 511.799804688 c 0,21,22
 598.794184732 511.799804688 598.794184732 511.799804688 632.196897054 492.093806846 c 128,-1,23
 665.599609375 472.387809005 665.599609375 472.387809005 665.599609375 424.028320312 c 2,24,-1
 665.599609375 414.514648438 l 2,25,26
 665.599609375 391.537832031 665.599609375 391.537832031 644.505229492 375.003514526 c 128,-1,27
 623.410849609 358.469197021 623.410849609 358.469197021 593.30527832 348.405532349 c 128,-1,28
 563.199707031 338.341867676 563.199707031 338.341867676 533.094135742 328.370795776 c 128,-1,29
 502.988564453 318.399723877 502.988564453 318.399723877 481.89418457 302.266641724 c 128,-1,30
 460.799804688 286.13355957 460.799804688 286.13355957 460.799804688 263.743164062 c 2,31,-1
 460.799804688 255.799804688 l 1,32,-1
 665.599609375 255.799804688 l 1,33,-1
 665.599609375 204.599609375 l 1,34,-1
 392.533203125 204.599609375 l 1,35,-1
 392.533203125 248.485351562 l 2,36,37
 392.533203125 304.453972151 392.533203125 304.453972151 426.032375044 339.634721457 c 128,-1,38
 459.531546963 374.815470762 459.531546963 374.815470762 506.311523438 380.713867188 c 1,39,40
 561.923132923 396.031871503 561.923132923 396.031871503 597.333007812 410.0859375 c 1,41,-1
 597.333007812 438.657226562 l 1,42,-1
 574.578125 460.599609375 l 1,43,-1
 483.555664062 460.599609375 l 1,44,-1
 460.799804688 438.657226562 l 1,45,-1
 460.799804688 416.713867188 l 1,46,-1
 392.533203125 416.713867188 l 1,14,15
EndSplineSet
EndChar

StartChar: threequarters
Encoding: 190 190 129
Width: 664
Flags: W
LayerCount: 2
Fore
SplineSet
499.200195312 445.657226562 m 1,0,-1
 371.200195312 358.342773438 l 1,1,-1
 371.200195312 336.0859375 l 1,2,-1
 499.200195312 336.0859375 l 1,3,-1
 499.200195312 445.657226562 l 1,0,-1
307.200195312 284.885742188 m 1,4,-1
 307.200195312 379.9140625 l 1,5,-1
 499.200195312 511.400390625 l 1,6,-1
 563.200195312 511.400390625 l 1,7,-1
 563.200195312 204.599609375 l 1,8,-1
 499.200195312 204.599609375 l 1,9,-1
 499.200195312 284.885742188 l 1,10,-1
 307.200195312 284.885742188 l 1,4,-1
486.400390625 666.400390625 m 1,11,-1
 537.599609375 666.400390625 l 1,12,-1
 537.599609375 615 l 1,13,-1
 128 307 l 1,14,-1
 76.7998046875 308 l 1,15,-1
 76.7998046875 358.400390625 l 1,16,-1
 486.400390625 666.400390625 l 1,11,-1
0 724.599609375 m 1,17,18
 0 772.71457322 0 772.71457322 30.9480547732 795.85728661 c 128,-1,19
 61.8961095465 819 61.8961095465 819 116.8203125 819 c 2,20,-1
 163.547851562 819 l 2,21,22
 280.368164062 819 280.368164062 819 280.368164062 731.228515625 c 0,23,24
 280.368164062 720.754484517 280.368164062 720.754484517 277.627395157 711.650047796 c 128,-1,25
 274.886626252 702.545611074 274.886626252 702.545611074 271.525803085 696.788306696 c 128,-1,26
 268.164979918 691.031002319 268.164979918 691.031002319 261.907695721 685.213298302 c 128,-1,27
 255.650411524 679.395594286 255.650411524 679.395594286 252.069205863 676.955588236 c 128,-1,28
 248.488000201 674.515582186 248.488000201 674.515582186 241.624519723 670.487811829 c 128,-1,29
 234.761039245 666.460041473 234.761039245 666.460041473 233.639648438 665.743164062 c 1,30,31
 280.368164062 647.557083126 280.368164062 647.557083126 280.368164062 599.571289062 c 0,32,33
 280.368164062 511.799804688 280.368164062 511.799804688 163.547851562 511.799804688 c 2,34,-1
 116.8203125 511.799804688 l 2,35,36
 62.0685409076 511.799804688 62.0685409076 511.799804688 31.0342704538 535.134482148 c 128,-1,37
 0 558.469159609 0 558.469159609 0 606.200195312 c 1,38,-1
 70.091796875 606.200195312 l 1,39,-1
 70.091796875 584.942382812 l 1,40,-1
 100.756835938 563 l 1,41,-1
 181.435546875 563 l 1,42,-1
 204.799804688 584.942382812 l 1,43,-1
 204.799804688 613.514648438 l 1,44,-1
 181.435546875 637.45703125 l 1,45,-1
 93.4560546875 637.45703125 l 1,46,-1
 93.4560546875 693.342773438 l 1,47,-1
 181.435546875 693.342773438 l 1,48,-1
 204.799804688 717.286132812 l 1,49,-1
 204.799804688 745.857421875 l 1,50,-1
 181.435546875 767.799804688 l 1,51,-1
 100.756835938 767.799804688 l 1,52,-1
 70.091796875 745.857421875 l 1,53,-1
 70.091796875 724.599609375 l 1,54,-1
 0 724.599609375 l 1,17,18
EndSplineSet
EndChar

StartChar: questiondown
Encoding: 191 191 130
Width: 714
Flags: W
LayerCount: 2
Fore
SplineSet
255.383789062 313.326171875 m 1,0,-1
 408.983398438 313.326171875 l 1,1,2
 409.120246693 307.602924294 409.120246693 307.602924294 409.250240294 303.30044351 c 128,-1,3
 409.380233894 298.997962727 409.380233894 298.997962727 409.448566469 297.32556357 c 128,-1,4
 409.516899044 295.653164413 409.516899044 295.653164413 409.55825421 294.253629546 c 128,-1,5
 409.599609375 292.854094678 409.599609375 292.854094678 409.599609375 291.598632812 c 0,6,7
 409.599609375 241.412936734 409.599609375 241.412936734 390.34765625 198.583984375 c 0,8,9
 379.364311546 174.148597036 379.364311546 174.148597036 363.821723972 159.262161773 c 128,-1,10
 348.279136398 144.375726511 348.279136398 144.375726511 310.21484375 124.833007812 c 0,11,12
 282.545953365 110.627325439 282.545953365 110.627325439 248.774151777 98.825212529 c 128,-1,13
 215.002350188 87.0230996187 215.002350188 87.0230996187 202.18359375 80.845703125 c 0,14,15
 176.217511943 66.1369881041 176.217511943 66.1369881041 164.60045519 52.6532601194 c 128,-1,16
 152.983398438 39.1695321348 152.983398438 39.1695321348 152.983398438 15.6162109375 c 0,17,18
 152.983398438 -24.6985030011 152.983398438 -24.6985030011 193.516723633 -54.1593100943 c 128,-1,19
 234.050048828 -83.6201171875 234.050048828 -83.6201171875 306.583007812 -83.6201171875 c 128,-1,20
 379.116617839 -83.6201171875 379.116617839 -83.6201171875 419.650105794 -54.1593322754 c 128,-1,21
 460.18359375 -24.6985473633 460.18359375 -24.6985473633 460.18359375 15.6162109375 c 1,22,-1
 613.783203125 15.6162109375 l 1,23,24
 613.783203125 -17.5385497931 613.783203125 -17.5385497931 613.127858279 -30.2828096399 c 128,-1,25
 612.472513434 -43.0270694866 612.472513434 -43.0270694866 608.056269528 -64.0337797156 c 128,-1,26
 603.640025623 -85.0404899446 603.640025623 -85.0404899446 592.773823855 -100.443332101 c 128,-1,27
 581.907622088 -115.846174257 581.907622088 -115.846174257 562.583007812 -134.208007812 c 0,28,29
 529.231164198 -165.898875161 529.231164198 -165.898875161 449.272756101 -178.847100781 c 128,-1,30
 369.314348005 -191.795326401 369.314348005 -191.795326401 306.583007812 -191.579101562 c 0,31,32
 248.399381107 -191.378705178 248.399381107 -191.378705178 170.249060734 -176.778042045 c 128,-1,33
 92.0987403604 -162.177378913 92.0987403604 -162.177378913 58.5830078125 -130.33203125 c 0,34,35
 22.5273155189 -96.0716375402 22.5273155189 -96.0716375402 10.9555522907 -62.8953114387 c 128,-1,36
 -0.6162109375 -29.7189853372 -0.6162109375 -29.7189853372 -0.6162109375 15.6162109375 c 0,37,38
 -0.6162109375 58.180762819 -0.6162109375 58.180762819 31.7578125 97.1025390625 c 0,39,40
 37.9443129369 104.539943058 37.9443129369 104.539943058 48.0516437781 112.359806145 c 128,-1,41
 58.1589746194 120.179669232 58.1589746194 120.179669232 73.8743796594 129.31295948 c 128,-1,42
 89.5897846994 138.446249729 89.5897846994 138.446249729 101.575425028 144.920868645 c 128,-1,43
 113.561065357 151.395487561 113.561065357 151.395487561 135.828629659 162.887225105 c 128,-1,44
 158.096193962 174.37896265 158.096193962 174.37896265 168.983398438 180.170898438 c 0,45,46
 216.16897701 201.849359103 216.16897701 201.849359103 245.358398438 234.918945312 c 0,47,48
 256.864268732 247.954456632 256.864268732 247.954456632 255.383789062 313.326171875 c 1,0,-1
408.983398438 511.799804688 m 1,49,-1
 408.983398438 412.563476562 l 1,50,-1
 255.383789062 412.563476562 l 1,51,-1
 255.383789062 511.799804688 l 1,52,-1
 408.983398438 511.799804688 l 1,49,-1
EndSplineSet
EndChar

StartChar: Agrave
Encoding: 192 192 131
Width: 920
Flags: W
LayerCount: 2
Fore
SplineSet
643.599609375 307 m 1,0,-1
 643.599609375 563 l 1,1,-1
 409.599609375 307 l 1,2,-1
 643.599609375 307 l 1,0,-1
819.200195312 716.599609375 m 1,3,-1
 819.200195312 -0.2001953125 l 1,4,-1
 643.599609375 -0.2001953125 l 1,5,-1
 643.599609375 204.599609375 l 1,6,-1
 307.200195312 204.599609375 l 1,7,-1
 102.400390625 -0.2001953125 l 1,8,-1
 0 -0.2001953125 l 1,9,-1
 0 74.2001953125 l 1,10,-1
 642.400390625 716.599609375 l 1,11,-1
 819.200195312 716.599609375 l 1,3,-1
748.353515625 921.400390625 m 1,12,-1
 819.200195312 819 l 1,13,-1
 819.200195312 767.799804688 l 1,14,-1
 716.799804688 767.799804688 l 1,15,-1
 563.200195312 846.48046875 l 1,16,-1
 563.200195312 921.400390625 l 1,17,-1
 748.353515625 921.400390625 l 1,12,-1
EndSplineSet
EndChar

StartChar: Aacute
Encoding: 193 193 132
Width: 920
Flags: W
LayerCount: 2
Fore
SplineSet
643.599609375 307 m 1,0,-1
 643.599609375 563 l 1,1,-1
 409.599609375 307 l 1,2,-1
 643.599609375 307 l 1,0,-1
819.200195312 716.599609375 m 1,3,-1
 819.200195312 -0.2001953125 l 1,4,-1
 643.599609375 -0.2001953125 l 1,5,-1
 643.599609375 204.599609375 l 1,6,-1
 307.200195312 204.599609375 l 1,7,-1
 102.400390625 -0.2001953125 l 1,8,-1
 0 -0.2001953125 l 1,9,-1
 0 74.2001953125 l 1,10,-1
 642.400390625 716.599609375 l 1,11,-1
 819.200195312 716.599609375 l 1,3,-1
714.614257812 922.400390625 m 1,12,-1
 899.4140625 922.400390625 l 1,13,-1
 899.4140625 846.48046875 l 1,14,-1
 745.814453125 767.799804688 l 1,15,-1
 643.4140625 767.799804688 l 1,16,-1
 643.4140625 819 l 1,17,-1
 714.614257812 922.400390625 l 1,12,-1
EndSplineSet
EndChar

StartChar: Acircumflex
Encoding: 194 194 133
Width: 920
Flags: W
LayerCount: 2
Fore
SplineSet
643.599609375 307 m 1,0,-1
 643.599609375 563 l 1,1,-1
 409.599609375 307 l 1,2,-1
 643.599609375 307 l 1,0,-1
819.200195312 716.599609375 m 1,3,-1
 819.200195312 -0.2001953125 l 1,4,-1
 643.599609375 -0.2001953125 l 1,5,-1
 643.599609375 204.599609375 l 1,6,-1
 307.200195312 204.599609375 l 1,7,-1
 102.400390625 -0.2001953125 l 1,8,-1
 0 -0.2001953125 l 1,9,-1
 0 74.2001953125 l 1,10,-1
 642.400390625 716.599609375 l 1,11,-1
 819.200195312 716.599609375 l 1,3,-1
504 820 m 1,12,-1
 657.599609375 921.400390625 l 1,13,-1
 760 921.400390625 l 1,14,-1
 913.599609375 820 l 1,15,-1
 913.599609375 767.799804688 l 1,16,-1
 811.200195312 767.799804688 l 1,17,-1
 708.799804688 841.200195312 l 1,18,-1
 606.400390625 767.799804688 l 1,19,-1
 504 767.799804688 l 1,20,-1
 504 820 l 1,12,-1
EndSplineSet
EndChar

StartChar: Atilde
Encoding: 195 195 134
Width: 920
Flags: W
LayerCount: 2
Fore
SplineSet
643.599609375 307 m 1,0,-1
 643.599609375 563 l 1,1,-1
 409.599609375 307 l 1,2,-1
 643.599609375 307 l 1,0,-1
819.200195312 716.599609375 m 1,3,-1
 819.200195312 -0.2001953125 l 1,4,-1
 643.599609375 -0.2001953125 l 1,5,-1
 643.599609375 204.599609375 l 1,6,-1
 307.200195312 204.599609375 l 1,7,-1
 102.400390625 -0.2001953125 l 1,8,-1
 0 -0.2001953125 l 1,9,-1
 0 74.2001953125 l 1,10,-1
 642.400390625 716.599609375 l 1,11,-1
 819.200195312 716.599609375 l 1,3,-1
506 856.764648438 m 1,12,13
 534.78843274 889.999050334 534.78843274 889.999050334 564.885503208 906.199720479 c 128,-1,14
 594.982573676 922.400390625 594.982573676 922.400390625 642.533203125 922.400390625 c 0,15,16
 697.991346495 920.930043609 697.991346495 920.930043609 730.799804688 884.504882812 c 0,17,18
 748.352951902 868.162432186 748.352951902 868.162432186 765.787664682 863.723436856 c 128,-1,19
 783.222377462 859.284441527 783.222377462 859.284441527 802.810815543 867.42995975 c 128,-1,20
 822.399253623 875.575477973 822.399253623 875.575477973 839.247808725 887.733965421 c 128,-1,21
 856.096363827 899.892452869 856.096363827 899.892452869 881.466796875 922.400390625 c 1,22,-1
 915.599609375 922.400390625 l 1,23,-1
 915.599609375 831.374023438 l 1,24,25
 887.057235346 799.054798874 887.057235346 799.054798874 856.920203086 783.427301781 c 128,-1,26
 826.783170826 767.799804688 826.783170826 767.799804688 779.06640625 767.799804688 c 0,27,28
 765.347981771 767.799804688 765.347981771 767.799804688 756.224989968 769.021113248 c 128,-1,29
 747.101998165 770.242421808 747.101998165 770.242421808 729.730413678 779.461959669 c 128,-1,30
 712.35882919 788.68149753 712.35882919 788.68149753 696.666992188 806.450195312 c 0,31,32
 678.29456944 826.531429644 678.29456944 826.531429644 651.490125868 825.558412905 c 128,-1,33
 624.685682296 824.585396166 624.685682296 824.585396166 596.303493924 809.45135272 c 128,-1,34
 567.921305551 794.317309274 567.921305551 794.317309274 540.133789062 767.799804688 c 1,35,-1
 506 767.799804688 l 1,36,-1
 506 856.764648438 l 1,12,13
EndSplineSet
EndChar

StartChar: Adieresis
Encoding: 196 196 135
Width: 920
Flags: W
LayerCount: 2
Fore
SplineSet
643.599609375 307 m 1,0,-1
 643.599609375 563 l 1,1,-1
 409.599609375 307 l 1,2,-1
 643.599609375 307 l 1,0,-1
819.200195312 716.599609375 m 1,3,-1
 819.200195312 -0.2001953125 l 1,4,-1
 643.599609375 -0.2001953125 l 1,5,-1
 643.599609375 204.599609375 l 1,6,-1
 307.200195312 204.599609375 l 1,7,-1
 102.400390625 -0.2001953125 l 1,8,-1
 0 -0.2001953125 l 1,9,-1
 0 74.2001953125 l 1,10,-1
 642.400390625 716.599609375 l 1,11,-1
 819.200195312 716.599609375 l 1,3,-1
508 921.400390625 m 1,12,-1
 661.599609375 921.400390625 l 1,13,-1
 661.599609375 767.799804688 l 1,14,-1
 508 767.799804688 l 1,15,-1
 508 921.400390625 l 1,12,-1
764 921.400390625 m 1,16,-1
 917.599609375 921.200195312 l 1,17,-1
 917.599609375 767.799804688 l 1,18,-1
 764 767.799804688 l 1,19,-1
 764 921.400390625 l 1,16,-1
EndSplineSet
EndChar

StartChar: Aring
Encoding: 197 197 136
Width: 920
Flags: W
LayerCount: 2
Fore
SplineSet
730.5 870.200195312 m 128,-1,1
 693.759486077 870.200195312 693.759486077 870.200195312 667.779645382 849.580308214 c 128,-1,2
 641.799804688 828.960421116 641.799804688 828.960421116 641.799804688 799.799804688 c 128,-1,3
 641.799804688 770.639281394 641.799804688 770.639281394 667.779586708 750.019836009 c 128,-1,4
 693.759368729 729.400390625 693.759368729 729.400390625 730.5 729.400390625 c 128,-1,5
 767.240631271 729.400390625 767.240631271 729.400390625 793.220413292 750.019836009 c 128,-1,6
 819.200195312 770.639281394 819.200195312 770.639281394 819.200195312 799.799804688 c 128,-1,7
 819.200195312 828.960421116 819.200195312 828.960421116 793.220354618 849.580308214 c 128,-1,0
 767.240513923 870.200195312 767.240513923 870.200195312 730.5 870.200195312 c 128,-1,1
643.599609375 307 m 1,8,-1
 643.599609375 563 l 1,9,-1
 409.599609375 307 l 1,10,-1
 643.599609375 307 l 1,8,-1
819.200195312 716.599609375 m 1,11,-1
 819.200195312 -0.2001953125 l 1,12,-1
 643.599609375 -0.2001953125 l 1,13,-1
 643.599609375 204.599609375 l 1,14,-1
 307.200195312 204.599609375 l 1,15,-1
 102.400390625 -0.2001953125 l 1,16,-1
 0 -0.2001953125 l 1,17,-1
 0 74.2001953125 l 1,18,-1
 642.400390625 716.599609375 l 1,19,20
 620.746275918 727.426666729 620.746275918 727.426666729 605.793147691 749.663167172 c 128,-1,21
 590.840019465 771.899667616 590.840019465 771.899667616 588.700195312 802 c 0,22,23
 589.180717881 834.483406014 589.180717881 834.483406014 604.923594569 859.96671137 c 128,-1,24
 620.666471257 885.450016727 620.666471257 885.450016727 645.466441077 898.619163493 c 128,-1,25
 670.266410897 911.78831026 670.266410897 911.78831026 700.140083955 917.998980639 c 128,-1,26
 730.013757013 924.209651019 730.013757013 924.209651019 759.790061932 918.177597804 c 128,-1,27
 789.566366851 912.14554459 789.566366851 912.14554459 814.158778151 899.194651877 c 128,-1,28
 838.751189452 886.243759164 838.751189452 886.243759164 854.091771343 861.121577852 c 128,-1,29
 869.432353234 835.99939654 869.432353234 835.99939654 869.400390625 804 c 0,30,31
 869.47744086 750.063572675 869.47744086 750.063572675 819.200195312 716.599609375 c 1,11,-1
EndSplineSet
EndChar

StartChar: AE
Encoding: 198 198 137
Width: 868
Flags: W
LayerCount: 2
Fore
SplineSet
409.599609375 307 m 1,0,-1
 409.599609375 563 l 1,1,-1
 256 307 l 1,2,-1
 409.599609375 307 l 1,0,-1
768 716.599609375 m 1,3,-1
 768 614.200195312 l 1,4,-1
 590.200195312 614.200195312 l 1,5,-1
 590.200195312 409.400390625 l 1,6,-1
 768 409.400390625 l 1,7,-1
 768 307.799804688 l 1,8,-1
 590.200195312 307.799804688 l 1,9,-1
 590.200195312 102.200195312 l 1,10,-1
 768 102.200195312 l 1,11,-1
 768 -0.2001953125 l 1,12,-1
 409.599609375 -0.2001953125 l 1,13,-1
 409.599609375 204.599609375 l 1,14,-1
 204.799804688 204.599609375 l 1,15,-1
 81.400390625 -0.2001953125 l 1,16,-1
 0 -0.2001953125 l 1,17,-1
 0 102.200195312 l 1,18,-1
 358.400390625 716.599609375 l 1,19,-1
 768 716.599609375 l 1,3,-1
EndSplineSet
EndChar

StartChar: Ccedilla
Encoding: 199 199 138
Width: 715
Flags: W
LayerCount: 2
Fore
SplineSet
614.400390625 -0.2001953125 m 1,0,-1
 204.799804688 -0.2001953125 l 1,1,2
 137.935335968 12.7531164361 137.935335968 12.7531164361 89.9806504748 68.1821957925 c 128,-1,3
 42.0259649815 123.611275149 42.0259649815 123.611275149 20.9419976372 198.571669767 c 128,-1,4
 -0.141969707096 273.532064386 -0.141969707096 273.532064386 0.552400691792 359.758684146 c 128,-1,5
 1.24677109068 445.985303906 1.24677109068 445.985303906 23.4877875678 520.621329779 c 128,-1,6
 45.7288040448 595.257355652 45.7288040448 595.257355652 93.162887888 649.944221979 c 128,-1,7
 140.596971731 704.631088306 140.596971731 704.631088306 204.799804688 716.599609375 c 1,8,-1
 614.400390625 716.599609375 l 1,9,-1
 614.400390625 614.200195312 l 1,10,-1
 230.799804688 614.200195312 l 1,11,-1
 179.599609375 563 l 1,12,-1
 179.599609375 153.400390625 l 1,13,-1
 230.799804688 102.200195312 l 1,14,-1
 614.400390625 102.200195312 l 1,15,-1
 614.400390625 -0.2001953125 l 1,0,-1
307.200195312 -77 m 1,16,-1
 307.200195312 -0.2001953125 l 1,17,-1
 386.279296875 -0.2001953125 l 1,18,-1
 386.420898438 -51.400390625 l 1,19,20
 421.41784515 -55.4146150101 421.41784515 -55.4146150101 440.461914062 -73.771484375 c 0,21,22
 460.799804688 -93.3740234375 460.799804688 -93.3740234375 460.799804688 -117.360351562 c 0,23,24
 460.799804688 -151.955566406 460.799804688 -151.955566406 426.745117188 -178.477539062 c 128,-1,25
 392.691894531 -205 392.691894531 -205 324.109375 -205 c 2,26,-1
 256 -205 l 1,27,-1
 256 -129.049804688 l 1,28,-1
 307.200195312 -129.049804688 l 2,29,30
 340.966446545 -129.049804688 340.966446545 -129.049804688 349.650390625 -121.349609375 c 128,-1,31
 358.400390625 -113.457915976 358.400390625 -113.457915976 358.400390625 -102.599609375 c 0,32,33
 358.400390625 -87.4794810131 358.400390625 -87.4794810131 350.521484375 -82.9169921875 c 0,34,35
 341.179273528 -77.4604013093 341.179273528 -77.4604013093 307.200195312 -77 c 1,16,-1
EndSplineSet
EndChar

StartChar: Egrave
Encoding: 200 200 139
Width: 715
Flags: W
LayerCount: 2
Fore
SplineSet
338.75390625 921.400390625 m 1,0,-1
 409.599609375 819 l 1,1,-1
 409.599609375 767.799804688 l 1,2,-1
 307.200195312 767.799804688 l 1,3,-1
 153.599609375 846.48046875 l 1,4,-1
 153.599609375 921.400390625 l 1,5,-1
 338.75390625 921.400390625 l 1,0,-1
0 716.599609375 m 1,6,-1
 614.400390625 716.599609375 l 1,7,-1
 614.400390625 614.200195312 l 1,8,-1
 180.799804688 614.200195312 l 1,9,-1
 180.799804688 409.400390625 l 1,10,-1
 614.400390625 409.400390625 l 1,11,-1
 614.400390625 307 l 1,12,-1
 180.799804688 307 l 1,13,-1
 180.799804688 102.200195312 l 1,14,-1
 614.400390625 102.200195312 l 1,15,-1
 614.400390625 -0.2001953125 l 1,16,-1
 0 -0.2001953125 l 1,17,-1
 0 716.599609375 l 1,6,-1
EndSplineSet
EndChar

StartChar: Eacute
Encoding: 201 201 140
Width: 715
Flags: W
LayerCount: 2
Fore
SplineSet
0 716.599609375 m 1,0,-1
 614.400390625 716.599609375 l 1,1,-1
 614.400390625 614.200195312 l 1,2,-1
 180.799804688 614.200195312 l 1,3,-1
 180.799804688 409.400390625 l 1,4,-1
 614.400390625 409.400390625 l 1,5,-1
 614.400390625 307 l 1,6,-1
 180.799804688 307 l 1,7,-1
 180.799804688 102.200195312 l 1,8,-1
 614.400390625 102.200195312 l 1,9,-1
 614.400390625 -0.2001953125 l 1,10,-1
 0 -0.2001953125 l 1,11,-1
 0 716.599609375 l 1,0,-1
276 922.400390625 m 1,12,-1
 460.799804688 922.400390625 l 1,13,-1
 460.799804688 846.48046875 l 1,14,-1
 307.200195312 767.799804688 l 1,15,-1
 204.799804688 767.799804688 l 1,16,-1
 204.799804688 819 l 1,17,-1
 276 922.400390625 l 1,12,-1
EndSplineSet
EndChar

StartChar: Ecircumflex
Encoding: 202 202 141
Width: 715
Flags: W
LayerCount: 2
Fore
SplineSet
0 716.599609375 m 1,0,-1
 614.400390625 716.599609375 l 1,1,-1
 614.400390625 614.200195312 l 1,2,-1
 180.799804688 614.200195312 l 1,3,-1
 180.799804688 409.400390625 l 1,4,-1
 614.400390625 409.400390625 l 1,5,-1
 614.400390625 307 l 1,6,-1
 180.799804688 307 l 1,7,-1
 180.799804688 102.200195312 l 1,8,-1
 614.400390625 102.200195312 l 1,9,-1
 614.400390625 -0.2001953125 l 1,10,-1
 0 -0.2001953125 l 1,11,-1
 0 716.599609375 l 1,0,-1
102.400390625 820 m 1,12,-1
 256 921.400390625 l 1,13,-1
 358.400390625 921.400390625 l 1,14,-1
 512 820 l 1,15,-1
 512 767.799804688 l 1,16,-1
 409.599609375 767.799804688 l 1,17,-1
 307.200195312 841.200195312 l 1,18,-1
 204.799804688 767.799804688 l 1,19,-1
 102.400390625 767.799804688 l 1,20,-1
 102.400390625 820 l 1,12,-1
EndSplineSet
EndChar

StartChar: Edieresis
Encoding: 203 203 142
Width: 715
Flags: W
LayerCount: 2
Fore
SplineSet
0 716.599609375 m 1,0,-1
 614.400390625 716.599609375 l 1,1,-1
 614.400390625 614.200195312 l 1,2,-1
 180.799804688 614.200195312 l 1,3,-1
 180.799804688 409.400390625 l 1,4,-1
 614.400390625 409.400390625 l 1,5,-1
 614.400390625 307 l 1,6,-1
 180.799804688 307 l 1,7,-1
 180.799804688 102.200195312 l 1,8,-1
 614.400390625 102.200195312 l 1,9,-1
 614.400390625 -0.2001953125 l 1,10,-1
 0 -0.2001953125 l 1,11,-1
 0 716.599609375 l 1,0,-1
102.400390625 921.400390625 m 1,12,-1
 256 921.400390625 l 1,13,-1
 256 767.799804688 l 1,14,-1
 102.400390625 767.799804688 l 1,15,-1
 102.400390625 921.400390625 l 1,12,-1
358.400390625 921.400390625 m 1,16,-1
 512 921.200195312 l 1,17,-1
 512 767.799804688 l 1,18,-1
 358.400390625 767.799804688 l 1,19,-1
 358.400390625 921.400390625 l 1,16,-1
EndSplineSet
EndChar

StartChar: Igrave
Encoding: 204 204 143
Width: 510
Flags: W
LayerCount: 2
Fore
SplineSet
0 -0.2001953125 m 1,0,-1
 0 102.200195312 l 1,1,-1
 115.599609375 102.200195312 l 1,2,-1
 115.599609375 614.200195312 l 1,3,-1
 0 614.200195312 l 1,4,-1
 0 716.599609375 l 1,5,-1
 409.599609375 716.599609375 l 1,6,-1
 409.599609375 614.200195312 l 1,7,-1
 295.200195312 614.200195312 l 1,8,-1
 295.200195312 102.200195312 l 1,9,-1
 409.599609375 102.200195312 l 1,10,-1
 409.599609375 -0.2001953125 l 1,11,-1
 0 -0.2001953125 l 1,0,-1
236.353515625 921.400390625 m 1,12,-1
 307.200195312 819 l 1,13,-1
 307.200195312 767.799804688 l 1,14,-1
 204.799804688 767.799804688 l 1,15,-1
 51.2001953125 846.48046875 l 1,16,-1
 51.2001953125 921.400390625 l 1,17,-1
 236.353515625 921.400390625 l 1,12,-1
EndSplineSet
EndChar

StartChar: Iacute
Encoding: 205 205 144
Width: 510
Flags: W
LayerCount: 2
Fore
SplineSet
0 -0.2001953125 m 1,0,-1
 0 102.200195312 l 1,1,-1
 115.599609375 102.200195312 l 1,2,-1
 115.599609375 614.200195312 l 1,3,-1
 0 614.200195312 l 1,4,-1
 0 716.599609375 l 1,5,-1
 409.599609375 716.599609375 l 1,6,-1
 409.599609375 614.200195312 l 1,7,-1
 295.200195312 614.200195312 l 1,8,-1
 295.200195312 102.200195312 l 1,9,-1
 409.599609375 102.200195312 l 1,10,-1
 409.599609375 -0.2001953125 l 1,11,-1
 0 -0.2001953125 l 1,0,-1
173.599609375 922.400390625 m 1,12,-1
 358.400390625 922.400390625 l 1,13,-1
 358.400390625 846.48046875 l 1,14,-1
 204.799804688 767.799804688 l 1,15,-1
 102.400390625 767.799804688 l 1,16,-1
 102.400390625 819 l 1,17,-1
 173.599609375 922.400390625 l 1,12,-1
EndSplineSet
EndChar

StartChar: Icircumflex
Encoding: 206 206 145
Width: 510
Flags: W
LayerCount: 2
Fore
SplineSet
0 -0.2001953125 m 1,0,-1
 0 102.200195312 l 1,1,-1
 115.599609375 102.200195312 l 1,2,-1
 115.599609375 614.200195312 l 1,3,-1
 0 614.200195312 l 1,4,-1
 0 716.599609375 l 1,5,-1
 409.599609375 716.599609375 l 1,6,-1
 409.599609375 614.200195312 l 1,7,-1
 295.200195312 614.200195312 l 1,8,-1
 295.200195312 102.200195312 l 1,9,-1
 409.599609375 102.200195312 l 1,10,-1
 409.599609375 -0.2001953125 l 1,11,-1
 0 -0.2001953125 l 1,0,-1
0 820 m 1,12,-1
 153.599609375 921.400390625 l 1,13,-1
 256 921.400390625 l 1,14,-1
 409.599609375 820 l 1,15,-1
 409.599609375 767.799804688 l 1,16,-1
 307.200195312 767.799804688 l 1,17,-1
 204.799804688 841.200195312 l 1,18,-1
 102.400390625 767.799804688 l 1,19,-1
 0 767.799804688 l 1,20,-1
 0 820 l 1,12,-1
EndSplineSet
EndChar

StartChar: Idieresis
Encoding: 207 207 146
Width: 510
Flags: W
LayerCount: 2
Fore
SplineSet
0 -0.2001953125 m 1,0,-1
 0 102.200195312 l 1,1,-1
 115.599609375 102.200195312 l 1,2,-1
 115.599609375 614.200195312 l 1,3,-1
 0 614.200195312 l 1,4,-1
 0 716.599609375 l 1,5,-1
 409.599609375 716.599609375 l 1,6,-1
 409.599609375 614.200195312 l 1,7,-1
 295.200195312 614.200195312 l 1,8,-1
 295.200195312 102.200195312 l 1,9,-1
 409.599609375 102.200195312 l 1,10,-1
 409.599609375 -0.2001953125 l 1,11,-1
 0 -0.2001953125 l 1,0,-1
0 921.400390625 m 1,12,-1
 153.599609375 921.400390625 l 1,13,-1
 153.599609375 767.799804688 l 1,14,-1
 0 767.799804688 l 1,15,-1
 0 921.400390625 l 1,12,-1
256 921.400390625 m 1,16,-1
 409.599609375 921.200195312 l 1,17,-1
 409.599609375 767.799804688 l 1,18,-1
 256 767.799804688 l 1,19,-1
 256 921.400390625 l 1,16,-1
EndSplineSet
EndChar

StartChar: Eth
Encoding: 208 208 147
Width: 917
Flags: W
LayerCount: 2
Fore
SplineSet
285.200195312 103.200195312 m 1,0,-1
 586.200195312 103.200195312 l 1,1,-1
 637.400390625 154.400390625 l 1,2,-1
 637.400390625 564 l 1,3,-1
 586.200195312 615.200195312 l 1,4,-1
 285.200195312 615.200195312 l 1,5,-1
 285.200195312 410.400390625 l 1,6,-1
 387.599609375 410.400390625 l 1,7,-1
 387.599609375 308 l 1,8,-1
 285.200195312 308 l 1,9,-1
 285.200195312 103.200195312 l 1,0,-1
102.400390625 717.599609375 m 1,10,-1
 563.200195312 717.599609375 l 2,11,12
 618.209831337 717.599609375 618.209831337 717.599609375 664.283284266 693.104008252 c 128,-1,13
 710.356737195 668.608407129 710.356737195 668.608407129 740.121880665 627.163075564 c 128,-1,14
 769.887024134 585.717743999 769.887024134 585.717743999 790.705545068 531.988945345 c 128,-1,15
 811.524066003 478.260146691 811.524066003 478.260146691 816.021716698 418.869619202 c 128,-1,16
 820.519367394 359.479091714 820.519367394 359.479091714 816.060097538 300.078839999 c 128,-1,17
 811.600827681 240.678588284 811.600827681 240.678588284 790.808126807 186.904609343 c 128,-1,18
 770.015425932 133.130630401 770.015425932 133.130630401 740.255506488 91.620670096 c 128,-1,19
 710.495587044 50.1107097908 710.495587044 50.1107097908 664.389675803 25.5150238662 c 128,-1,20
 618.283764563 0.919337941525 618.283764563 0.919337941525 563.200195312 0.7998046875 c 2,21,-1
 102.400390625 -0.2001953125 l 1,22,-1
 102.400390625 307 l 1,23,-1
 0 307 l 1,24,-1
 0 409.400390625 l 1,25,-1
 102.400390625 409.400390625 l 1,26,-1
 102.400390625 717.599609375 l 1,10,-1
EndSplineSet
EndChar

StartChar: Ntilde
Encoding: 209 209 148
Width: 817
Flags: W
LayerCount: 2
Fore
SplineSet
0 716.599609375 m 1,0,-1
 175.799804688 716.599609375 l 1,1,-1
 537 409.400390625 l 1,2,-1
 537 716.599609375 l 1,3,-1
 716.799804688 716.599609375 l 1,4,-1
 716.799804688 -0.2001953125 l 1,5,-1
 537 -0.2001953125 l 1,6,-1
 537 204.599609375 l 1,7,-1
 175.799804688 511.799804688 l 1,8,-1
 175.799804688 -0.2001953125 l 1,9,-1
 0 -0.2001953125 l 1,10,-1
 0 716.599609375 l 1,0,-1
153.599609375 856.764648438 m 1,11,12
 182.388068834 889.999081179 182.388068834 889.999081179 212.485282867 906.199735902 c 128,-1,13
 242.5824969 922.400390625 242.5824969 922.400390625 290.133789062 922.400390625 c 0,14,15
 345.590970796 920.930069104 345.590970796 920.930069104 378.400390625 884.504882812 c 0,16,17
 395.953535274 868.162434574 395.953535274 868.162434574 413.388263672 863.723454638 c 128,-1,18
 430.82299207 859.284474702 430.82299207 859.284474702 450.411251098 867.429941968 c 128,-1,19
 469.999510127 875.575409234 469.999510127 875.575409234 486.848010987 887.733983203 c 128,-1,20
 503.696511846 899.892557172 503.696511846 899.892557172 529.06640625 922.400390625 c 1,21,-1
 563.200195312 922.400390625 l 1,22,-1
 563.200195312 831.374023438 l 1,23,24
 534.656754284 799.054515367 534.656754284 799.054515367 504.520167834 783.427160027 c 128,-1,25
 474.383581383 767.799804688 474.383581383 767.799804688 426.666992188 767.799804688 c 0,26,27
 412.948133681 767.799804688 412.948133681 767.799804688 403.825101448 769.021124085 c 128,-1,28
 394.702069216 770.242443483 394.702069216 770.242443483 377.33049751 779.461948831 c 128,-1,29
 359.958925804 788.681454179 359.958925804 788.681454179 344.266601562 806.450195312 c 0,30,31
 325.894341433 826.531516356 325.894341433 826.531516356 299.089952257 825.558412905 c 128,-1,32
 272.285563081 824.585309454 272.285563081 824.585309454 243.903537326 809.45135272 c 128,-1,33
 215.521511571 794.317395985 215.521511571 794.317395985 187.733398438 767.799804688 c 1,34,-1
 153.599609375 767.799804688 l 1,35,-1
 153.599609375 856.764648438 l 1,11,12
EndSplineSet
EndChar

StartChar: Ograve
Encoding: 210 210 149
Width: 817
Flags: W
LayerCount: 2
Fore
SplineSet
183.599609375 359 m 0,0,1
 184.346713901 243.646769279 184.346713901 243.646769279 232.821641533 172.923482296 c 128,-1,2
 281.296569164 102.200195312 281.296569164 102.200195312 358.400390625 102.200195312 c 0,3,4
 399.282294628 102.200195312 399.282294628 102.200195312 429.725735082 113.774981233 c 128,-1,5
 460.169175535 125.349767154 460.169175535 125.349767154 485.402576076 153.137982634 c 128,-1,6
 510.635976616 180.926198114 510.635976616 180.926198114 524.507015599 232.499956819 c 128,-1,7
 538.378054582 284.073715525 538.378054582 284.073715525 540.200195312 359 c 0,8,9
 539.459023935 472.250841782 539.459023935 472.250841782 487.81586259 543.225518547 c 128,-1,10
 436.172701245 614.200195312 436.172701245 614.200195312 358.400390625 614.200195312 c 0,11,12
 281.018355222 614.200195312 281.018355222 614.200195312 231.936699341 543.484860776 c 128,-1,13
 182.855043461 472.769526239 182.855043461 472.769526239 183.599609375 359 c 0,0,1
358.400390625 716.599609375 m 0,14,15
 528.73021036 716.599609375 528.73021036 716.599609375 622.765007524 624.400313373 c 128,-1,16
 716.799804688 532.201017371 716.799804688 532.201017371 716.799804688 359 c 0,17,18
 716.799804688 188.568647166 716.799804688 188.568647166 622.18485907 94.1842259265 c 128,-1,19
 527.569913452 -0.2001953125 527.569913452 -0.2001953125 358.400390625 -0.2001953125 c 0,20,21
 188.490765736 -0.2001953125 188.490765736 -0.2001953125 94.2453828681 93.0486572187 c 128,-1,22
 0 186.29750975 0 186.29750975 0 359 c 0,23,24
 0 529.929659018 0 529.929659018 94.4102991955 623.264634196 c 128,-1,25
 188.820598391 716.599609375 188.820598391 716.599609375 358.400390625 716.599609375 c 0,14,15
389.953125 921.400390625 m 1,26,-1
 460.799804688 819 l 1,27,-1
 460.799804688 767.799804688 l 1,28,-1
 358.400390625 767.799804688 l 1,29,-1
 204.799804688 846.48046875 l 1,30,-1
 204.799804688 921.400390625 l 1,31,-1
 389.953125 921.400390625 l 1,26,-1
EndSplineSet
EndChar

StartChar: Oacute
Encoding: 211 211 150
Width: 817
Flags: W
LayerCount: 2
Fore
SplineSet
183.599609375 359 m 0,0,1
 184.346713901 243.646769279 184.346713901 243.646769279 232.821641533 172.923482296 c 128,-1,2
 281.296569164 102.200195312 281.296569164 102.200195312 358.400390625 102.200195312 c 0,3,4
 399.282294628 102.200195312 399.282294628 102.200195312 429.725735082 113.774981233 c 128,-1,5
 460.169175535 125.349767154 460.169175535 125.349767154 485.402576076 153.137982634 c 128,-1,6
 510.635976616 180.926198114 510.635976616 180.926198114 524.507015599 232.499956819 c 128,-1,7
 538.378054582 284.073715525 538.378054582 284.073715525 540.200195312 359 c 0,8,9
 539.459023935 472.250841782 539.459023935 472.250841782 487.81586259 543.225518547 c 128,-1,10
 436.172701245 614.200195312 436.172701245 614.200195312 358.400390625 614.200195312 c 0,11,12
 281.018355222 614.200195312 281.018355222 614.200195312 231.936699341 543.484860776 c 128,-1,13
 182.855043461 472.769526239 182.855043461 472.769526239 183.599609375 359 c 0,0,1
358.400390625 716.599609375 m 0,14,15
 528.73021036 716.599609375 528.73021036 716.599609375 622.765007524 624.400313373 c 128,-1,16
 716.799804688 532.201017371 716.799804688 532.201017371 716.799804688 359 c 0,17,18
 716.799804688 188.568647166 716.799804688 188.568647166 622.18485907 94.1842259265 c 128,-1,19
 527.569913452 -0.2001953125 527.569913452 -0.2001953125 358.400390625 -0.2001953125 c 0,20,21
 188.490765736 -0.2001953125 188.490765736 -0.2001953125 94.2453828681 93.0486572187 c 128,-1,22
 0 186.29750975 0 186.29750975 0 359 c 0,23,24
 0 529.929659018 0 529.929659018 94.4102991955 623.264634196 c 128,-1,25
 188.820598391 716.599609375 188.820598391 716.599609375 358.400390625 716.599609375 c 0,14,15
327.200195312 922.400390625 m 1,26,-1
 512 922.400390625 l 1,27,-1
 512 846.48046875 l 1,28,-1
 358.400390625 767.799804688 l 1,29,-1
 256 767.799804688 l 1,30,-1
 256 819 l 1,31,-1
 327.200195312 922.400390625 l 1,26,-1
EndSplineSet
EndChar

StartChar: Ocircumflex
Encoding: 212 212 151
Width: 817
Flags: W
LayerCount: 2
Fore
SplineSet
183.599609375 359 m 0,0,1
 184.346713901 243.646769279 184.346713901 243.646769279 232.821641533 172.923482296 c 128,-1,2
 281.296569164 102.200195312 281.296569164 102.200195312 358.400390625 102.200195312 c 0,3,4
 399.282294628 102.200195312 399.282294628 102.200195312 429.725735082 113.774981233 c 128,-1,5
 460.169175535 125.349767154 460.169175535 125.349767154 485.402576076 153.137982634 c 128,-1,6
 510.635976616 180.926198114 510.635976616 180.926198114 524.507015599 232.499956819 c 128,-1,7
 538.378054582 284.073715525 538.378054582 284.073715525 540.200195312 359 c 0,8,9
 539.459023935 472.250841782 539.459023935 472.250841782 487.81586259 543.225518547 c 128,-1,10
 436.172701245 614.200195312 436.172701245 614.200195312 358.400390625 614.200195312 c 0,11,12
 281.018355222 614.200195312 281.018355222 614.200195312 231.936699341 543.484860776 c 128,-1,13
 182.855043461 472.769526239 182.855043461 472.769526239 183.599609375 359 c 0,0,1
358.400390625 716.599609375 m 0,14,15
 528.73021036 716.599609375 528.73021036 716.599609375 622.765007524 624.400313373 c 128,-1,16
 716.799804688 532.201017371 716.799804688 532.201017371 716.799804688 359 c 0,17,18
 716.799804688 188.568647166 716.799804688 188.568647166 622.18485907 94.1842259265 c 128,-1,19
 527.569913452 -0.2001953125 527.569913452 -0.2001953125 358.400390625 -0.2001953125 c 0,20,21
 188.490765736 -0.2001953125 188.490765736 -0.2001953125 94.2453828681 93.0486572187 c 128,-1,22
 0 186.29750975 0 186.29750975 0 359 c 0,23,24
 0 529.929659018 0 529.929659018 94.4102991955 623.264634196 c 128,-1,25
 188.820598391 716.599609375 188.820598391 716.599609375 358.400390625 716.599609375 c 0,14,15
153.599609375 820 m 1,26,-1
 307.200195312 921.400390625 l 1,27,-1
 409.599609375 921.400390625 l 1,28,-1
 563.200195312 820 l 1,29,-1
 563.200195312 767.799804688 l 1,30,-1
 460.799804688 767.799804688 l 1,31,-1
 358.400390625 841.200195312 l 1,32,-1
 256 767.799804688 l 1,33,-1
 153.599609375 767.799804688 l 1,34,-1
 153.599609375 820 l 1,26,-1
EndSplineSet
EndChar

StartChar: Otilde
Encoding: 213 213 152
Width: 817
Flags: W
LayerCount: 2
Fore
SplineSet
183.599609375 359 m 0,0,1
 184.346713901 243.646769279 184.346713901 243.646769279 232.821641533 172.923482296 c 128,-1,2
 281.296569164 102.200195312 281.296569164 102.200195312 358.400390625 102.200195312 c 0,3,4
 399.282294628 102.200195312 399.282294628 102.200195312 429.725735082 113.774981233 c 128,-1,5
 460.169175535 125.349767154 460.169175535 125.349767154 485.402576076 153.137982634 c 128,-1,6
 510.635976616 180.926198114 510.635976616 180.926198114 524.507015599 232.499956819 c 128,-1,7
 538.378054582 284.073715525 538.378054582 284.073715525 540.200195312 359 c 0,8,9
 539.459023935 472.250841782 539.459023935 472.250841782 487.81586259 543.225518547 c 128,-1,10
 436.172701245 614.200195312 436.172701245 614.200195312 358.400390625 614.200195312 c 0,11,12
 281.018355222 614.200195312 281.018355222 614.200195312 231.936699341 543.484860776 c 128,-1,13
 182.855043461 472.769526239 182.855043461 472.769526239 183.599609375 359 c 0,0,1
358.400390625 716.599609375 m 0,14,15
 528.73021036 716.599609375 528.73021036 716.599609375 622.765007524 624.400313373 c 128,-1,16
 716.799804688 532.201017371 716.799804688 532.201017371 716.799804688 359 c 0,17,18
 716.799804688 188.568647166 716.799804688 188.568647166 622.18485907 94.1842259265 c 128,-1,19
 527.569913452 -0.2001953125 527.569913452 -0.2001953125 358.400390625 -0.2001953125 c 0,20,21
 188.490765736 -0.2001953125 188.490765736 -0.2001953125 94.2453828681 93.0486572187 c 128,-1,22
 0 186.29750975 0 186.29750975 0 359 c 0,23,24
 0 529.929659018 0 529.929659018 94.4102991955 623.264634196 c 128,-1,25
 188.820598391 716.599609375 188.820598391 716.599609375 358.400390625 716.599609375 c 0,14,15
153.599609375 856.764648438 m 1,26,27
 182.388068834 889.999081179 182.388068834 889.999081179 212.485282867 906.199735902 c 128,-1,28
 242.5824969 922.400390625 242.5824969 922.400390625 290.133789062 922.400390625 c 0,29,30
 345.590970796 920.930069104 345.590970796 920.930069104 378.400390625 884.504882812 c 0,31,32
 395.953535274 868.162434574 395.953535274 868.162434574 413.388263672 863.723454638 c 128,-1,33
 430.82299207 859.284474702 430.82299207 859.284474702 450.411251098 867.429941968 c 128,-1,34
 469.999510127 875.575409234 469.999510127 875.575409234 486.848010987 887.733983203 c 128,-1,35
 503.696511846 899.892557172 503.696511846 899.892557172 529.06640625 922.400390625 c 1,36,-1
 563.200195312 922.400390625 l 1,37,-1
 563.200195312 831.374023438 l 1,38,39
 534.656754284 799.054515367 534.656754284 799.054515367 504.520167834 783.427160027 c 128,-1,40
 474.383581383 767.799804688 474.383581383 767.799804688 426.666992188 767.799804688 c 0,41,42
 412.948133681 767.799804688 412.948133681 767.799804688 403.825101448 769.021124085 c 128,-1,43
 394.702069216 770.242443483 394.702069216 770.242443483 377.33049751 779.461948831 c 128,-1,44
 359.958925804 788.681454179 359.958925804 788.681454179 344.266601562 806.450195312 c 0,45,46
 325.894341433 826.531516356 325.894341433 826.531516356 299.089952257 825.558412905 c 128,-1,47
 272.285563081 824.585309454 272.285563081 824.585309454 243.903537326 809.45135272 c 128,-1,48
 215.521511571 794.317395985 215.521511571 794.317395985 187.733398438 767.799804688 c 1,49,-1
 153.599609375 767.799804688 l 1,50,-1
 153.599609375 856.764648438 l 1,26,27
EndSplineSet
EndChar

StartChar: Odieresis
Encoding: 214 214 153
Width: 817
Flags: W
LayerCount: 2
Fore
SplineSet
183.599609375 359 m 0,0,1
 184.346713901 243.646769279 184.346713901 243.646769279 232.821641533 172.923482296 c 128,-1,2
 281.296569164 102.200195312 281.296569164 102.200195312 358.400390625 102.200195312 c 0,3,4
 399.282294628 102.200195312 399.282294628 102.200195312 429.725735082 113.774981233 c 128,-1,5
 460.169175535 125.349767154 460.169175535 125.349767154 485.402576076 153.137982634 c 128,-1,6
 510.635976616 180.926198114 510.635976616 180.926198114 524.507015599 232.499956819 c 128,-1,7
 538.378054582 284.073715525 538.378054582 284.073715525 540.200195312 359 c 0,8,9
 539.459023935 472.250841782 539.459023935 472.250841782 487.81586259 543.225518547 c 128,-1,10
 436.172701245 614.200195312 436.172701245 614.200195312 358.400390625 614.200195312 c 0,11,12
 281.018355222 614.200195312 281.018355222 614.200195312 231.936699341 543.484860776 c 128,-1,13
 182.855043461 472.769526239 182.855043461 472.769526239 183.599609375 359 c 0,0,1
358.400390625 716.599609375 m 0,14,15
 528.73021036 716.599609375 528.73021036 716.599609375 622.765007524 624.400313373 c 128,-1,16
 716.799804688 532.201017371 716.799804688 532.201017371 716.799804688 359 c 0,17,18
 716.799804688 188.568647166 716.799804688 188.568647166 622.18485907 94.1842259265 c 128,-1,19
 527.569913452 -0.2001953125 527.569913452 -0.2001953125 358.400390625 -0.2001953125 c 0,20,21
 188.490765736 -0.2001953125 188.490765736 -0.2001953125 94.2453828681 93.0486572187 c 128,-1,22
 0 186.29750975 0 186.29750975 0 359 c 0,23,24
 0 529.929659018 0 529.929659018 94.4102991955 623.264634196 c 128,-1,25
 188.820598391 716.599609375 188.820598391 716.599609375 358.400390625 716.599609375 c 0,14,15
153.599609375 921.400390625 m 1,26,-1
 307.200195312 921.400390625 l 1,27,-1
 307.200195312 767.799804688 l 1,28,-1
 153.599609375 767.799804688 l 1,29,-1
 153.599609375 921.400390625 l 1,26,-1
409.599609375 921.400390625 m 1,30,-1
 563.200195312 921.200195312 l 1,31,-1
 563.200195312 767.799804688 l 1,32,-1
 409.599609375 767.799804688 l 1,33,-1
 409.599609375 921.400390625 l 1,30,-1
EndSplineSet
EndChar

StartChar: multiply
Encoding: 215 215 154
Width: 612
Flags: W
LayerCount: 2
Fore
SplineSet
0 614.200195312 m 1,0,-1
 102.400390625 614.200195312 l 1,1,-1
 256 460.599609375 l 1,2,-1
 409.599609375 614.200195312 l 1,3,-1
 512 614.200195312 l 1,4,-1
 512 511.799804688 l 1,5,-1
 358.400390625 359 l 1,6,-1
 512 204.599609375 l 1,7,-1
 512 102.200195312 l 1,8,-1
 409.599609375 102.200195312 l 1,9,-1
 256 255.799804688 l 1,10,-1
 102.400390625 102.200195312 l 1,11,-1
 0 102.200195312 l 1,12,-1
 0 204.599609375 l 1,13,-1
 153.599609375 359 l 1,14,-1
 0 511.799804688 l 1,15,-1
 0 614.200195312 l 1,0,-1
EndSplineSet
EndChar

StartChar: Oslash
Encoding: 216 216 155
Width: 920
Flags: W
LayerCount: 2
Fore
SplineSet
409.599609375 716.599609375 m 0,0,1
 553.935523573 716.599609375 553.935523573 716.599609375 643.94140625 649.9609375 c 1,2,-1
 716.80078125 716.599609375 l 1,3,-1
 819.19921875 716.599609375 l 1,4,-1
 819.19921875 666.400390625 l 1,5,-1
 716.23046875 570.642578125 l 1,6,7
 768 485.625130991 768 485.625130991 768 359 c 0,8,9
 768 188.568870283 768 188.568870283 673.384679601 94.1848257666 c 128,-1,10
 578.769359202 -0.19921875 578.769359202 -0.19921875 409.599609375 -0.19921875 c 0,11,12
 265.544627414 -0.19921875 265.544627414 -0.19921875 175.1875 67.490234375 c 1,13,-1
 102.400390625 -0.19921875 l 1,14,-1
 0 -0.19921875 l 1,15,-1
 0 61 l 1,16,-1
 99.994140625 152.45703125 l 1,17,18
 51.19921875 236.702444613 51.19921875 236.702444613 51.19921875 359 c 0,19,20
 51.19921875 529.929659018 51.19921875 529.929659018 145.609517945 623.264634196 c 128,-1,21
 240.019817141 716.599609375 240.019817141 716.599609375 409.599609375 716.599609375 c 0,0,1
409.599609375 614.19921875 m 0,22,23
 332.218268397 614.19921875 332.218268397 614.19921875 283.137242061 543.48434277 c 128,-1,24
 234.056215725 472.769466789 234.056215725 472.769466789 234.80078125 359 c 0,25,26
 235.058439073 319.118554844 235.058439073 319.118554844 241.84765625 282.197265625 c 1,27,-1
 534.181640625 549.572265625 l 1,28,29
 483.693031498 614.19921875 483.693031498 614.19921875 409.599609375 614.19921875 c 0,22,23
581.5 445.34765625 m 1,30,-1
 285.83984375 170.39453125 l 1,31,32
 333.986188152 102.19921875 333.986188152 102.19921875 409.599609375 102.19921875 c 0,33,34
 450.48147233 102.19921875 450.48147233 102.19921875 480.925099713 113.774162817 c 128,-1,35
 511.368727097 125.349106885 511.368727097 125.349106885 536.602289813 153.137488794 c 128,-1,36
 561.835852529 180.925870703 561.835852529 180.925870703 575.707051618 232.49980979 c 128,-1,37
 589.578250706 284.073748877 589.578250706 284.073748877 591.400390625 359 c 0,38,39
 591.105912747 404.022552816 591.105912747 404.022552816 581.5 445.34765625 c 1,30,-1
EndSplineSet
EndChar

StartChar: Ugrave
Encoding: 217 217 156
Width: 817
Flags: W
LayerCount: 2
Fore
SplineSet
0 716.599609375 m 1,0,-1
 183.799804688 716.599609375 l 1,1,-1
 183.799804688 153.400390625 l 1,2,-1
 235 102.200195312 l 1,3,-1
 488.799804688 102.200195312 l 1,4,-1
 540 153.400390625 l 1,5,-1
 540 716.599609375 l 1,6,-1
 716.799804688 716.599609375 l 1,7,-1
 716.799804688 -0.2001953125 l 1,8,-1
 591.200195312 -0.2001953125 l 1,9,-1
 591.200195312 51 l 1,10,-1
 540 -0.2001953125 l 1,11,-1
 235 -0.2001953125 l 2,12,13
 183.141831619 -0.2001953125 183.141831619 -0.2001953125 141.985237317 10.4791345669 c 128,-1,14
 100.828643016 21.1584644462 100.828643016 21.1584644462 68.130698962 44.3205480503 c 128,-1,15
 35.4327549081 67.4826316544 35.4327549081 67.4826316544 17.716377454 108.079110153 c 128,-1,16
 0 148.675588651 0 148.675588651 0 204.599609375 c 2,17,-1
 0 716.599609375 l 1,0,-1
389.953125 921.400390625 m 1,18,-1
 460.799804688 819 l 1,19,-1
 460.799804688 767.799804688 l 1,20,-1
 358.400390625 767.799804688 l 1,21,-1
 204.799804688 846.48046875 l 1,22,-1
 204.799804688 921.400390625 l 1,23,-1
 389.953125 921.400390625 l 1,18,-1
EndSplineSet
EndChar

StartChar: Uacute
Encoding: 218 218 157
Width: 817
Flags: W
LayerCount: 2
Fore
SplineSet
0 716.599609375 m 1,0,-1
 183.799804688 716.599609375 l 1,1,-1
 183.799804688 153.400390625 l 1,2,-1
 235 102.200195312 l 1,3,-1
 488.799804688 102.200195312 l 1,4,-1
 540 153.400390625 l 1,5,-1
 540 716.599609375 l 1,6,-1
 716.799804688 716.599609375 l 1,7,-1
 716.799804688 -0.2001953125 l 1,8,-1
 591.200195312 -0.2001953125 l 1,9,-1
 591.200195312 51 l 1,10,-1
 540 -0.2001953125 l 1,11,-1
 235 -0.2001953125 l 2,12,13
 183.141831619 -0.2001953125 183.141831619 -0.2001953125 141.985237317 10.4791345669 c 128,-1,14
 100.828643016 21.1584644462 100.828643016 21.1584644462 68.130698962 44.3205480503 c 128,-1,15
 35.4327549081 67.4826316544 35.4327549081 67.4826316544 17.716377454 108.079110153 c 128,-1,16
 0 148.675588651 0 148.675588651 0 204.599609375 c 2,17,-1
 0 716.599609375 l 1,0,-1
327.200195312 922.400390625 m 1,18,-1
 512 922.400390625 l 1,19,-1
 512 846.48046875 l 1,20,-1
 358.400390625 767.799804688 l 1,21,-1
 256 767.799804688 l 1,22,-1
 256 819 l 1,23,-1
 327.200195312 922.400390625 l 1,18,-1
EndSplineSet
EndChar

StartChar: Ucircumflex
Encoding: 219 219 158
Width: 817
Flags: W
LayerCount: 2
Fore
SplineSet
0 716.599609375 m 1,0,-1
 183.799804688 716.599609375 l 1,1,-1
 183.799804688 153.400390625 l 1,2,-1
 235 102.200195312 l 1,3,-1
 488.799804688 102.200195312 l 1,4,-1
 540 153.400390625 l 1,5,-1
 540 716.599609375 l 1,6,-1
 716.799804688 716.599609375 l 1,7,-1
 716.799804688 -0.2001953125 l 1,8,-1
 591.200195312 -0.2001953125 l 1,9,-1
 591.200195312 51 l 1,10,-1
 540 -0.2001953125 l 1,11,-1
 235 -0.2001953125 l 2,12,13
 183.141831619 -0.2001953125 183.141831619 -0.2001953125 141.985237317 10.4791345669 c 128,-1,14
 100.828643016 21.1584644462 100.828643016 21.1584644462 68.130698962 44.3205480503 c 128,-1,15
 35.4327549081 67.4826316544 35.4327549081 67.4826316544 17.716377454 108.079110153 c 128,-1,16
 0 148.675588651 0 148.675588651 0 204.599609375 c 2,17,-1
 0 716.599609375 l 1,0,-1
153.599609375 820 m 1,18,-1
 307.200195312 921.400390625 l 1,19,-1
 409.599609375 921.400390625 l 1,20,-1
 563.200195312 820 l 1,21,-1
 563.200195312 767.799804688 l 1,22,-1
 460.799804688 767.799804688 l 1,23,-1
 358.400390625 841.200195312 l 1,24,-1
 256 767.799804688 l 1,25,-1
 153.599609375 767.799804688 l 1,26,-1
 153.599609375 820 l 1,18,-1
EndSplineSet
EndChar

StartChar: Udieresis
Encoding: 220 220 159
Width: 817
Flags: W
LayerCount: 2
Fore
SplineSet
0 716.599609375 m 1,0,-1
 183.799804688 716.599609375 l 1,1,-1
 183.799804688 153.400390625 l 1,2,-1
 235 102.200195312 l 1,3,-1
 488.799804688 102.200195312 l 1,4,-1
 540 153.400390625 l 1,5,-1
 540 716.599609375 l 1,6,-1
 716.799804688 716.599609375 l 1,7,-1
 716.799804688 -0.2001953125 l 1,8,-1
 591.200195312 -0.2001953125 l 1,9,-1
 591.200195312 51 l 1,10,-1
 540 -0.2001953125 l 1,11,-1
 235 -0.2001953125 l 2,12,13
 183.141831619 -0.2001953125 183.141831619 -0.2001953125 141.985237317 10.4791345669 c 128,-1,14
 100.828643016 21.1584644462 100.828643016 21.1584644462 68.130698962 44.3205480503 c 128,-1,15
 35.4327549081 67.4826316544 35.4327549081 67.4826316544 17.716377454 108.079110153 c 128,-1,16
 0 148.675588651 0 148.675588651 0 204.599609375 c 2,17,-1
 0 716.599609375 l 1,0,-1
153.599609375 921.400390625 m 1,18,-1
 307.200195312 921.400390625 l 1,19,-1
 307.200195312 767.799804688 l 1,20,-1
 153.599609375 767.799804688 l 1,21,-1
 153.599609375 921.400390625 l 1,18,-1
409.599609375 921.400390625 m 1,22,-1
 563.200195312 921.200195312 l 1,23,-1
 563.200195312 767.799804688 l 1,24,-1
 409.599609375 767.799804688 l 1,25,-1
 409.599609375 921.400390625 l 1,22,-1
EndSplineSet
EndChar

StartChar: Yacute
Encoding: 221 221 160
Width: 920
Flags: W
LayerCount: 2
Fore
SplineSet
0 716.599609375 m 1,0,-1
 143.599609375 716.599609375 l 1,1,-1
 409.599609375 450.599609375 l 1,2,-1
 675.599609375 716.599609375 l 1,3,-1
 819.200195312 716.599609375 l 1,4,-1
 819.200195312 676.400390625 l 1,5,-1
 498 359 l 1,6,-1
 498 -0.2001953125 l 1,7,-1
 317.200195312 -0.2001953125 l 1,8,-1
 317.200195312 359 l 1,9,-1
 0 676.400390625 l 1,10,-1
 0 716.599609375 l 1,0,-1
378.400390625 922.400390625 m 1,11,-1
 563.200195312 922.400390625 l 1,12,-1
 563.200195312 846.48046875 l 1,13,-1
 409.599609375 767.799804688 l 1,14,-1
 307.200195312 767.799804688 l 1,15,-1
 307.200195312 819 l 1,16,-1
 378.400390625 922.400390625 l 1,11,-1
EndSplineSet
EndChar

StartChar: Thorn
Encoding: 222 222 161
Width: 612
Flags: W
LayerCount: 2
Fore
SplineSet
0 -0.2001953125 m 1,0,-1
 0 716.599609375 l 1,1,-1
 183.599609375 716.599609375 l 1,2,-1
 183.599609375 588.892578125 l 1,3,-1
 253.026367188 588.892578125 l 2,4,5
 319.827636719 588.892578125 319.827636719 588.892578125 355.517578125 582.047851562 c 0,6,7
 404.932617188 572.7578125 404.932617188 572.7578125 438.333984375 548.065429688 c 128,-1,8
 471.735351562 523.374023438 471.735351562 523.374023438 491.868164062 478.879882812 c 128,-1,9
 512 434.384174699 512 434.384174699 512 359 c 0,10,11
 512 310.673120582 512 310.673120582 498.767241873 264.857304669 c 128,-1,12
 485.534483747 219.041488757 485.534483747 219.041488757 459.551757812 188.826171875 c 0,13,14
 405.102050781 125.506835938 405.102050781 125.506835938 260.8046875 125.506835938 c 2,15,-1
 183.599609375 125.506835938 l 1,16,-1
 183.599609375 -0.2001953125 l 1,17,-1
 0 -0.2001953125 l 1,0,-1
183.599609375 230.095703125 m 1,18,-1
 262.176757812 230.095703125 l 2,19,20
 338.527251632 230.095703125 338.527251632 230.095703125 373.453125 263.166015625 c 0,21,22
 409.599609375 297.392089844 409.599609375 297.392089844 409.599609375 359 c 0,23,24
 409.599609375 403.494628906 409.599609375 403.494628906 388.552734375 435.764648438 c 0,25,26
 369.891793673 464.378177433 369.891793673 464.378177433 341.62109375 477.459960938 c 1,27,28
 312.652863483 486.3046875 312.652863483 486.3046875 260.346679688 486.3046875 c 2,29,-1
 183.599609375 486.3046875 l 1,30,-1
 183.599609375 230.095703125 l 1,18,-1
EndSplineSet
EndChar

